<?xml version="1.0" encoding="utf-8"?>
<!-- Generator: Adobe Illustrator 25.2.2, SVG Export Plug-In . SVG Version: 6.00 Build 0)  -->
<svg version="1.1" id="Calque_1" xmlns="http://www.w3.org/2000/svg" xmlns:xlink="http://www.w3.org/1999/xlink" x="0px" y="0px"
	 viewBox="0 0 25.56 46.58" style="enable-background:new 0 0 25.56 46.58;" xml:space="preserve">
<style type="text/css">
	.st0{fill:#FB8DD6;}
</style>
<path class="st0" d="M22.89,20.09c-3.87-2.67-6.3-6.14-6.97-10.82c-0.33-2.23-0.67-4.46-1.01-6.69c-0.2-1.34-0.67-2.62-2.25-2.58
	c-1.43,0.03-1.84,1.28-2.04,2.5c-0.08,0.45-0.02,0.91-0.07,1.36c-0.73,7.31-2.46,14.09-9.31,18.32c-1.51,0.93-1.75,2.2-0.06,3.4
	c1.26,0.9,2.17,2.13,3.13,3.35c3.54,4.49,4.58,9.98,6.19,15.23c0.38,1.23,0.77,2.22,2.13,2.42c0.99-0.03,1.56-0.54,1.77-1.44
	c0.21-0.97,0.36-1.95,0.52-2.93c1.03-6.43,3.46-12.21,8.27-16.71C26.32,22.57,26.52,22.59,22.89,20.09z M12.21,35.79
	c-1.72-4.41-3.77-7.87-6.11-11.15c-0.56-0.78,0.07-1.14,0.52-1.55c2.84-2.57,4.36-5.96,6.13-10.2c1.37,4.55,3.55,7.69,6.93,10.09
	C16.35,26.52,14.33,30.75,12.21,35.79z"/>
</svg>
