<?xml version="1.0" encoding="utf-8"?>
<!-- Generator: Adobe Illustrator 25.2.2, SVG Export Plug-In . SVG Version: 6.00 Build 0)  -->
<svg version="1.1" id="Calque_1" xmlns="http://www.w3.org/2000/svg" xmlns:xlink="http://www.w3.org/1999/xlink" x="0px" y="0px"
	 viewBox="0 0 57.86 86.83" style="enable-background:new 0 0 57.86 86.83;" xml:space="preserve">
<style type="text/css">
	.st0{fill:#FB89D4;}
</style>
<g id="hoDA5P.tif">
	<g>
		<path class="st0" d="M0.01,29.18C1.48,4.99,34.89-12.26,51.14,10.99c12.19,15.11,7.71,41.34-12.83,45.82
			c-2.79,0.81-2.07,2.61-2.12,4.36c-0.07,2.18,1.61,1.51,2.7,1.52c7.04,0.1,7.04,0.08,7.04,7.11c-0.25,4.86,1.79,7.53-5.91,7.12
			c-9.67-0.62,3.86,11.74-13.57,9.65c-0.29-0.17-0.57-0.46-0.88-0.49c-9.69,0.19-1.48-8.38-7.19-9.24
			c-7.06-0.38-7.06-0.41-7.02-7.69c0.03-6.67,0.85-7.41,7.54-6.78c0.58,0.05,1.16,0.51,1.53-0.43C23.03,55.05-0.47,54.12,0.01,29.18
			z M54,31.06C52.51-9.59-0.86-1.1,4.7,36.18c5.03,21.03,21.9,13.77,19.54,24c0.35,13.06-11.54-1.82-8.86,12.6
			c2.37,3.04,8.81-2.74,8.42,4.69c0.15,4.46,0.57,4.91,4.94,5.27c3.55,0.29,3.64,0.21,3.66-3.31c-1.74-13.02,14.01,1.72,9.59-12.67
			c-0.27-1.45-1.69-0.1-2.55-0.39c-8.47-0.17-6.73-2.02-7.09-9.28C31.16,51.31,54.16,54.52,54,31.06z"/>
		<path class="st0" d="M12.34,30.47C10.86,12.56,35.48,2.4,44.56,18.77C57.59,49.01,14.73,61.92,12.34,30.47z M16.16,28
			c0.76,28.95,35.42,16.04,25.26-6.58C35.43,7.67,15.83,16.22,16.16,28z"/>
	</g>
</g>
</svg>
