<?xml version="1.0" encoding="utf-8"?>
<!-- Generator: Adobe Illustrator 25.2.2, SVG Export Plug-In . SVG Version: 6.00 Build 0)  -->
<svg version="1.1" id="Calque_1" xmlns="http://www.w3.org/2000/svg" xmlns:xlink="http://www.w3.org/1999/xlink" x="0px" y="0px"
	 viewBox="0 0 83.61 88.85" style="enable-background:new 0 0 83.61 88.85;" xml:space="preserve">
<style type="text/css">
	.st0{fill:#FB8DD6;}
	.st1{fill:#FEFEFE;}
</style>
<path class="st0" d="M63.97,47.86c0.95-0.5,1.49-0.81,2.05-1.07c2.31-1.09,4.76-1.72,6.97-0.08c2.26,1.67,2.62,4.28,2.3,6.89
	c-1.3,10.77-5.98,19.89-13.96,27.19c-7.35,6.72-16.28,8.65-25.98,7.91c-8.7-0.66-16.19-4.26-22.17-10.34
	C2.65,67.65-2.83,55.35,1.48,40.68c2.04-6.95,7-9.77,14.09-8.35c1.43,0.28,1.38-0.74,1.39-1.36c0.09-6.33,2.99-11.69,5.79-17.08
	c2.85-5.5,7.21-9.56,12.59-12.42c6.41-3.4,14.89-0.65,20.26,5.94c4.48,5.51,6.16,11.92,7.31,18.71
	C64.11,33.23,63.99,40.37,63.97,47.86z M49.25,65.48c0.8-0.13,1.61-0.23,2.4-0.4c5.56-1.19,8.78,0.86,9.99,6.34
	c0.17,0.79-0.19,1.74,0.54,2.53c5.19-6.23,8.32-13.12,9.2-21.02c0.13-1.2-0.03-2.24-0.91-2.95c-0.97-0.77-1.88,0.09-2.76,0.49
	c-1.53,0.7-2.54,2.03-3.69,3.18c-1.03,1.03-2.3,1.28-3.49,0.66c-1.23-0.65-1.46-1.85-1.15-3.29c0.5-2.39,0.71-4.82,0.81-7.28
	c0.28-6.84-0.75-13.54-1.75-20.26c-0.96-6.48-4.03-11.74-8.7-16.17c-3.48-3.29-8.41-4.33-12.29-2.37
	c-11.2,5.66-18.15,21.34-16.97,32.23c0.11,0.98,0.38,1.96,0.44,2.94c0.07,1.11-0.43,2.03-1.6,2.18c-1.01,0.13-1.66-0.5-1.97-1.5
	c-0.21-0.69-0.44-1.39-0.79-2.01c-1.72-3.05-3.77-4.1-6.11-2.92C8.1,37.02,6.1,38.79,5.3,41.27c-1.44,4.44-1.71,9.02-0.94,13.68
	c1.28,7.79,5.95,13.69,10.67,19.57c0.42,0.53,0.88,1.2,1.75,1.08c0.06-0.08,0.16-0.16,0.15-0.22c-0.07-0.52-0.13-1.05-0.24-1.57
	c-0.8-3.59-1.27-7.13,0.67-10.57c1.26-2.23,3.13-2.95,5.48-2.45c3.27,0.69,3.36,0.71,3.45-2.65c0.13-4.67,1.56-8.96,4.23-12.7
	c2.24-3.14,5.08-6.07,9.38-5.5c4.16,0.55,6.05,3.97,7.57,7.47c0.36,0.82,0.5,1.74,0.69,2.62c1.1,5.09,1.11,10.25,1.05,15.42
	c-0.07,0.08-0.15,0.17-0.22,0.25C49.07,65.62,49.16,65.55,49.25,65.48z M45.4,59.21c-0.28-2.16-0.72-5.11-1.05-8.07
	c-0.28-2.6-1.72-4.51-3.41-6.32c-1.13-1.21-2.24-1.27-3.6-0.38c-3.11,2.03-5,4.96-6.12,8.39c-1.76,5.39-1.3,10.92-0.75,16.42
	c0.12,1.16,0.38,2.26-0.97,2.71c-1.42,0.47-2.45-0.17-3.05-1.53c-0.59-1.32-1.07-2.71-1.85-3.92c-0.67-1.03-1.68-2.21-3.04-1.79
	c-1.31,0.4-1.65,1.83-1.75,3.14c-0.23,3.26,0.94,6.19,2.05,9.19c1.32,3.57,3.87,5.42,7.35,6.47c6.61,1.99,13.2,1.92,19.75-0.11
	c4.45-1.38,8.36-3.33,8.95-8.82c0.48-4.49-2.02-6.93-6.2-5.67c-0.67,0.2-1.37,0.57-1.87,1.05c-1.12,1.08-2.39,1.39-3.72,0.71
	c-1.33-0.68-1.35-2.02-1.25-3.34C45.04,64.89,45.19,62.45,45.4,59.21z"/>
<path class="st0" d="M83.61,32.39c-0.43,1.79-0.63,3.62-1.32,5.25c-0.81,1.91-2.38,3.22-4.6,3.27c-2.23,0.06-3.85-1.24-4.76-3.06
	c-1.94-3.86-1.49-7.78,0.86-11.29c2.31-3.44,6.78-2.92,8.39,0.88C82.84,29,83.14,30.71,83.61,32.39z M75.38,32.88
	c0.32,1.58,0.32,3.68,1.98,3.92c1.96,0.29,1.66-1.9,2.03-3.2c0.02-0.09,0.08-0.17,0.08-0.26c0.07-1.82,0.15-4.45-1.66-4.62
	C75.71,28.53,76,31.35,75.38,32.88z"/>
<path class="st1" d="M49.25,65.48c-0.09,0.07-0.17,0.14-0.26,0.2c0.07-0.08,0.15-0.17,0.22-0.25C49.2,65.44,49.25,65.48,49.25,65.48
	z"/>
</svg>
