<?xml version="1.0" encoding="utf-8"?>
<!-- Generator: Adobe Illustrator 25.2.2, SVG Export Plug-In . SVG Version: 6.00 Build 0)  -->
<svg version="1.1" id="Calque_1" xmlns="http://www.w3.org/2000/svg" xmlns:xlink="http://www.w3.org/1999/xlink" x="0px" y="0px"
	 viewBox="0 0 135.8 69.8" style="enable-background:new 0 0 135.8 69.8;" xml:space="preserve">
<style type="text/css">
	.st0{fill:#FB89D4;}
</style>
<g>
	<path class="st0" d="M2.2,69.4c-2.2-1.9-2.1-2.5-0.3-4.8c13-16.3,30.3-27.3,48-37.5c13.6-7.9,28.1-13.5,43.5-16.8
		c6.9-1.5,13.9-2,21-2c3.5,0,7,0,10.6-0.4c-2.2-1.2-4.3-2.4-6.5-3.5c-1.1-0.6-2.1-1.3-1.5-2.7c0.7-1.5,1.9-1.4,3.2-0.7
		c4.3,2.3,8.6,4.7,12.8,7c1.1,0.6,1.3,1.9,2.2,2.7c0,0.2,0,0.4,0,0.5c-3.8,3.4-8.3,5.6-12.7,8c-0.9,0.5-2.3,0.5-2.8-0.8
		c-0.6-1.4,0.2-2.2,1.4-2.8c1.7-1,3.4-1.9,5.7-3.2c-9.6-0.3-18.5-0.2-27.3,1.2c-22.9,3.5-43.1,13.5-62.1,26.2
		C27.3,46.2,17.5,53,9.4,62C7.2,64.5,5,67,2.8,69.4C2.6,69.4,2.4,69.4,2.2,69.4z"/>
</g>
</svg>
