<svg width="1440" height="772" viewBox="0 0 1440 772" fill="none" xmlns="http://www.w3.org/2000/svg">
<g clip-path="url(#clip0)">
<path d="M361.05 26.844C361.693 26.5473 362.385 26.2507 363.028 25.9541C362.78 26.6462 362.484 27.3383 362.237 28.0304C361.841 27.6349 361.446 27.2395 361.05 26.844Z" fill="#FEFEFE"/>
<path d="M-163 627.816C-163 627.816 285.252 13.0184 408.925 10.0121C532.599 7.00574 49.9064 565.685 69.736 714.499C95.3056 905.402 312.387 415.869 666.709 252.524C757.507 223.463 618.701 381.797 662.013 447.937C698.541 504.055 869.701 319.666 1088.87 267.055C1303.34 215.446 1022.6 476.998 1594 272.566" stroke="#FB8DD6" stroke-width="5" stroke-miterlimit="10"/>
</g>
<defs>
<clipPath id="clip0">
<rect width="1681" height="772" fill="white" transform="translate(-182)"/>
</clipPath>
</defs>
</svg>
