<?xml version="1.0" encoding="utf-8"?>
<!-- Generator: Adobe Illustrator 25.2.2, SVG Export Plug-In . SVG Version: 6.00 Build 0)  -->
<svg version="1.1" id="Calque_1" xmlns="http://www.w3.org/2000/svg" xmlns:xlink="http://www.w3.org/1999/xlink" x="0px" y="0px"
	 viewBox="0 0 432.87 162.6" style="enable-background:new 0 0 432.87 162.6;" xml:space="preserve">
<style type="text/css">
	.st0{fill:#FB8DD6;}
	.st1{fill:#FEFEFE;}
</style>
<path class="st0" d="M432.87,124.29c-1.01,1.3-2.18,1.28-3.6,0.63c-13.25-6.12-26.51-12.22-39.79-18.28
	c-18.46-8.42-36.71-17.38-56.16-23.44c-14.71-4.58-29.7-7.87-45.03-9.71c-19.2-2.31-37.95-0.31-56.37,5.11
	c-15.34,4.51-28.75,12.74-41.41,22.31c-13.66,10.33-26.5,21.66-39.94,32.25c-11.77,9.27-23.83,18.06-37.69,24.06
	c-8.51,3.69-17.27,5.91-26.67,5.26c-8.82-0.61-16.48-7.12-19.07-16.51c-1.14-4.13-1.82-8.3-1.68-12.6c0.06-1.79,0.01-3.59,0.01-5.6
	c-3.77,1.23-7,3.05-10.66,3.82c-10.35,2.19-18.14-2.41-20.86-12.73c-1.75-6.63-1.79-13.35-1.36-20.2
	c0.47-7.51,2.14-14.85,2.39-22.36c0.09-0.06,0.18-0.13,0.27-0.19c-0.05,0.01-0.12-0.01-0.15,0.02c-0.05,0.05-0.07,0.13-0.1,0.2
	C25.51,85.65,14.33,92.81,3.96,101c-1.19,0.94-2.48,1.65-3.51,0.19c-1.04-1.46-0.12-2.75,1.16-3.7c5.75-4.26,11.52-8.51,17.26-12.78
	c5.91-4.4,11.09-9.62,16.52-14.56c1.05-0.95,1.55-2.09,1.83-3.51c3.41-16.81,7.51-33.41,15.05-48.95c2.42-4.99,5.05-9.88,9.15-13.71
	c3.15-2.94,6.77-5.23,11.28-3.21c4.46,2,6.52,5.83,6.98,10.57c0.75,7.66-3.16,13.85-6.67,20.06C66.48,43,57.85,53.02,48.58,62.51
	c-2.35,2.4-4.58,4.91-6.96,7.28c-0.9,0.89-1.4,1.93-1.59,3.08c-1.41,8.75-2.9,17.47-3.55,26.33c-0.4,5.39-0.25,10.66,0.68,15.93
	c1.98,11.25,9.65,15.58,20.31,11.56c0.25-0.1,0.49-0.25,0.75-0.32c5.36-1.45,7.92-4.53,8.45-10.48
	c1.41-15.86,5.57-31.19,11.52-45.94c3.71-9.2,8.37-17.94,15.94-24.72c1.98-1.77,4.09-3.27,6.76-3.87c3.71-0.84,6.35,0.55,7.65,4.19
	c1.95,5.43,1.27,10.97,0.25,16.39c-4.33,23.09-15.61,42.31-32.88,58.1c-1.07,0.98-2.11,2.12-3.39,2.71
	c-3.01,1.39-3.3,3.73-3.27,6.67c0.06,5.74,0.22,11.41,2.21,16.88c2.8,7.71,9.22,12.21,17.39,12.36c10.71,0.19,20.26-3.64,29.43-8.53
	c15.21-8.11,28.4-19.07,41.67-29.91c13.04-10.66,25.76-21.73,39.94-30.92c15.61-10.11,32.63-16.28,51-19.02
	c9.82-1.47,19.68-1.99,29.55-1.47c11.21,0.59,22.27,2.51,33.23,4.95c20.72,4.6,40.37,12.17,59.57,21.06
	c18.6,8.61,37.23,17.15,55.83,25.75c1.31,0.6,2.53,1.4,3.78,2.11C432.87,123.2,432.87,123.75,432.87,124.29z M69.85,119.32
	c1.05-0.67,1.88-1.02,2.49-1.61c2.81-2.69,5.74-5.22,8.34-8.16c11.76-13.28,20.01-28.35,23.73-45.75c0.94-4.4,1.93-8.89,1.18-13.43
	c-0.98-5.94-3.12-6.69-7.8-2.88c-5.75,4.68-9.65,10.78-12.87,17.31C76.5,81.88,72.7,100.25,69.85,119.32z M42.31,62.82
	c7.03-7.17,14-14.27,19.89-22.34c4.61-6.32,8.79-12.88,11.92-20.05c2.07-4.74,3.04-9.56-0.59-14.11c-2.09-2.63-4.26-2.95-7.09-1.14
	c-3.07,1.97-5.1,4.87-6.96,7.88C50.06,28.35,46.09,45.54,42.31,62.82z"/>
<path class="st1" d="M34.99,76.34c0.03-0.07,0.05-0.14,0.1-0.2c0.03-0.03,0.1-0.02,0.15-0.02c-0.09,0.06-0.18,0.13-0.27,0.19
	C34.96,76.31,34.99,76.34,34.99,76.34z"/>
</svg>
