<?xml version="1.0" encoding="utf-8"?>
<!-- Generator: Adobe Illustrator 25.2.2, SVG Export Plug-In . SVG Version: 6.00 Build 0)  -->
<svg version="1.1" id="Calque_1" xmlns="http://www.w3.org/2000/svg" xmlns:xlink="http://www.w3.org/1999/xlink" x="0px" y="0px"
	 viewBox="0 0 33.27 42.19" style="enable-background:new 0 0 33.27 42.19;" xml:space="preserve">
<style type="text/css">
	.st0{fill:#FB8DD6;}
</style>
<path class="st0" d="M21.07,42.1c-11.71,0-17.82-4.96-20.43-16.4c-1.71-7.51-0.06-14.34,5.44-19.77c5.94-5.85,13.17-7.25,21.12-4.74
	c0.6,0.19,1.21,0.41,1.76,0.71c1.39,0.76,1.62,2.03,1.54,3.5c-0.07,1.37-0.98,1.81-2.06,2.19c-3.68,1.29-6.77,3.34-9.12,6.53
	c-2.91,3.95-3.44,8.99-0.71,12.97c2.81,4.09,6.07,7.79,11.81,7.4c1.24-0.08,2.37,0.36,2.73,1.75c0.35,1.36-0.31,2.2-1.48,2.85
	C28.25,41.01,24.72,42.59,21.07,42.1z M24.85,4.68c-6.08-2.28-13.27,0.11-17.71,6.04c-4.46,5.97-4.39,14.08,0.52,21.56
	c3.32,5.06,10.58,7.35,16.5,5.48C7.97,28.15,10.61,11.91,24.85,4.68z"/>
</svg>
