<?xml version="1.0" encoding="utf-8"?>
<!-- Generator: Adobe Illustrator 25.2.2, SVG Export Plug-In . SVG Version: 6.00 Build 0)  -->
<svg version="1.1" id="Calque_1" xmlns="http://www.w3.org/2000/svg" xmlns:xlink="http://www.w3.org/1999/xlink" x="0px" y="0px"
	 viewBox="0 0 152.8 282.4" style="enable-background:new 0 0 152.8 282.4;" xml:space="preserve">
<style type="text/css">
	.st0{fill:#FC86D4;}
</style>
<g id="_x36_iFR2j.tif">
	<g>
		<path class="st0" d="M73.9,282c-1.9-0.1-3.8-0.1-5.7-0.2c-2.1-0.1-3.3-0.6-3.2-3.4c0.4-11.1,0.3-22.1,0-33.2
			c-0.1-5.8-0.3-11.6,0-17.4c0.3-7,0-14,0.3-20.9c0.6-12.8,1.3-25.5,1.1-38.3c0-2-0.6-2.3-2.4-2.3c-9,0.3-17.9,0.6-26.9,0.5
			c-10.9-0.2-21.9-1-32.8-0.9c-2.1,0-2.7-1.3-2.9-2.9c-0.7-4.3-1-8.7-0.5-13c0.8-6.7-0.1-13.4-0.2-20.1c0-0.2-0.3-0.4-0.5-0.6
			c0-11.4,0-22.9,0-34.3c0.4-0.1,0.5-0.5,0.5-0.8C0.5,89.6,1.2,84.8,1,80c-0.2-5.7-0.3-11.4-0.5-17.1c0-0.7,0.3-1.5-0.5-1.9
			c0-2,0-4,0-6c1.4-4.2,1-8.7,1.5-13c1.1-8.5,0.1-17,0-25.5c0-3.4,0.2-3.5,3.6-3.4c19.7,0.7,39.4,1.1,59.2,1.2c2,0,2.8-0.4,2.6-2.5
			c-0.2-3,0.5-5.9,0-8.9C66.7,1.1,67.7,0,69.5,0c5.9,0,11.8,0.1,17.6,0.2c1.9,0,2.7,0.8,2.6,2.9c-0.2,3.1,0,6.2-0.1,9.2
			c0,1.4,0.3,1.8,1.8,1.9c10,0.3,20.1,0,30.1,0.1c9.4,0.1,18.8,0.6,28.2,1c2.2,0.1,3.2,1.8,2.9,3.9c-0.1,0.7-0.3,1.4-0.3,2.1
			c0.5,14.7-0.1,29.4-0.3,44c-0.1,7.3-0.6,14.7-0.3,22c0.6,14.6,1.2,29.2,1.1,43.7c0,7.1-0.3,14.1-0.4,21.2c0,3.2,0.3,6.3,0.1,9.5
			c-0.2,3.6-0.9,4.1-4.4,4.2c-10.3,0.1-20.6,1.3-30.9,0.9c-8.2-0.3-16.4,0.3-24.7-0.2c-3.6-0.2-3.7,0-3.8,3.7
			c-0.3,6.4-0.7,12.9-0.6,19.3c0.1,16.5-1.1,33-1.1,49.5c0,13.3,0,26.7,0,40c0,1.2,0,2.3-0.6,3.4c-0.5,0-1.1,0-1.6,0
			C81.1,281.4,77.5,282.2,73.9,282z M148.9,51.1c0.2,0,0.4,0,0.7,0c-0.7-10.2,0.6-20.4,0.1-30.7c-0.1-2.4-0.7-2.8-2.7-2.8
			c-13.6-0.2-27.3-0.7-40.9-0.4C95.1,17.4,84.2,17,73.4,17c-22.3,0-44.5-0.2-66.7-1.2c-2.2-0.1-2.7,0.4-2.5,2.7
			c0.4,5.4,0.4,10.8,0.4,16.3C4.6,44.2,2.9,53.6,3.3,63c0.3,8.2,0.6,16.5,0.3,24.7c-0.4,13.3-1.3,26.6-0.5,39.9
			c0.4,6.7,1,13.4,0.6,20.1c-0.3,4.4-0.5,8.8,0,13.3c0.2,1.9,0.8,2.4,2.6,2.3c3.5,0,7,0.2,10.6,0.3c8,0.2,16.1,0.8,24.1,0.5
			c8.9-0.3,17.9-0.4,26.8-0.6c13.1-0.3,26.2,0.4,39.3,0.5c13.7,0.1,27.3-0.4,40.9-0.8c1.3,0,1.8-0.5,1.7-1.7
			c-0.1-10,0.2-19.9,0.2-29.9c0-14.8-0.7-29.7-1.2-44.5C148.5,75.1,148.9,63.1,148.9,51.1z M68,240.3c-0.1,12.2,0.2,24.5-0.2,36.7
			c-0.1,1.9,0.6,2.2,2.3,2.2c3.6-0.1,7.3-0.2,10.8,0.2c3,0.4,3.4-0.6,3.3-3.2c-0.3-25.6-0.1-51.3,0.9-76.9
			c0.4-10.2,0.4-20.5,1.1-30.7c0.1-1.7-0.3-2.2-2-2.2c-3.8,0.1-7.6-0.2-11.4-0.1c-4.4,0.1-4.4,0.1-4,4.4c0.1,1.1,0,2.2,0,3.3
			c-0.1,10-0.6,19.9-0.9,29.9C67.7,216,68,228.2,68,240.3z M77.6,14.2c3,0,5.3,0,7.7,0c1.1,0,1.7-0.2,1.6-1.5
			c-0.1-2.7,0-5.4,0.1-8.1c0-1.5-0.6-2-2.1-2c-4.1,0.1-8.3,0.1-12.4-0.1c-2.3-0.1-3.2,0.5-2.9,2.9c0.3,2.8-1,6.5,0.4,8.1
			C71.6,15.4,75.4,14,77.6,14.2z"/>
		<path class="st0" d="M41.2,70.2c-3.6,0.2-6.5,0.4-9.5,0.5c-1.3,0-1.6,0.8-2,1.8c-1.1,2.8-2.2,5.5-3.4,8.3c-0.4,1-0.8,2.5-2.1,1.9
			c-1.5-0.6-1-2-0.4-3.3c1.2-2.6,2.3-5.3,3.4-7.9c-0.3-0.9-0.9-0.5-1.4-0.7c-0.7-0.2-1.2-0.5-1.2-1.2c0-0.8,0.6-1.3,1.2-1.3
			c5.7-0.2,4.5-5.8,7.6-8.6c-2.5-0.5-4.1-0.2-5.8,0c-1,0.1-2.2,0-2.3-1.3c-0.1-1.2,1.1-1.4,2-1.3c5.9,0.8,9-2.1,10.5-7.6
			c0.4-1.6,1.4-3.1,2.1-4.7c0.4-0.9,0.9-2.1,2.1-1.6c1.4,0.6,0.9,1.7,0.4,2.8c-1.6,3.4-3.2,6.8-5,10.6c3.1,0,5.7-0.1,8.4,0
			c1.2,0,1.6-0.6,1.9-1.5c1.1-2.9,2.3-5.7,3.4-8.6c0.4-1,0.8-1.7,1.9-1.3c1.1,0.4,1,1.4,0.6,2.3c-1.2,2.9-2.3,5.8-3.6,9.2
			c2.2,0,4-0.1,5.9,0c1.1,0,2.5,0.2,2.3,1.7c-0.1,1.3-1.4,1.1-2.4,1c-0.3,0-0.5,0-0.8,0c-6.3-0.2-7.3,0.5-9.1,6.7
			c-0.4,1.3,0.1,1.6,1.3,1.5c2.3-0.1,4.5,0,6.8,0c0.9,0,1.7,0.1,1.7,1.2c0,1-0.7,1.4-1.6,1.4c-2.4,0-4.9,0.1-7.3,0
			c-1.7-0.1-2.6,0.5-3.1,2.2c-0.8,2.8-1.8,5.5-2.8,8.2c-0.4,1-0.7,2.4-2.2,1.9c-1.8-0.6-0.8-1.9-0.5-2.9
			C39,76.6,40.1,73.6,41.2,70.2z M45.7,59.3c-3,0-5.8,0-8.6,0c-0.7,0-1.1,0.1-1.5,0.8c-1,2.2-2.1,4.4-3.2,6.5
			c-0.5,0.9-0.3,1.3,0.8,1.3c2.6-0.1,5.2-0.2,7.8-0.2c0.8,0,1.4-0.3,1.7-1C43.6,64.3,44.6,61.9,45.7,59.3z"/>
		<path class="st0" d="M128.8,112.6c-0.1,11.4-5.2,18.9-14.9,23.4c-8.6,4-19.9-2.4-22.1-12.4c-2.8-12.7,5.4-24.3,18.3-25.5
			c5.4-0.5,10.6,1,14.9,4.5C128.4,105.2,129,109.1,128.8,112.6z M126.1,111.4c0.2-4.7-1.4-7.1-7.1-9.2c-0.7-0.2-1.3-0.5-2-0.7
			c-7-1.8-13.3-0.8-18.2,4.9c-5.2,6.1-6.1,14.4-2.5,21c3,5.5,12.2,8.1,17.8,5.2C122.1,128.5,125.8,121.8,126.1,111.4z"/>
		<path class="st0" d="M51,117.9c-0.1-11.4,8.4-20.9,18.9-21.2c5.7-0.2,10,2.2,12.8,7.1c4.3,7.7,4.8,15.6,0.7,23.5
			c-5.3,10.3-16.7,12.4-25.9,4.3C53.5,128.2,50.9,123.6,51,117.9z M53.8,117.8c0,5.2,2.4,9.3,6.3,12.4c8.1,6.4,16.7,4,20.9-4.1
			c3.7-7.1,3.1-14.1-0.8-20.9c-2.7-4.7-7.8-6.6-13-5.3C59.1,101.9,53.8,109,53.8,117.8z"/>
		<path class="st0" d="M96.8,46.4c-3.4,4-6.7,6.8-9.9,9.7c-2.5,2.3-3.3,2.3-5.6,0c-2.7-2.6-5.4-5.1-8.6-8.1c0,5.1,0,9.6,0,14.1
			c0,6.4,0,12.8,0,19.3c0,1.1-0.2,2.2-1.5,2.1c-1.3,0-1.3-1.2-1.3-2.2c0.1-11.5,0.1-23,0.2-34.5c0-0.9-0.1-2,1.1-2.1
			c1-0.1,1.9-0.3,2.9,0.8c2.8,3.1,6,5.8,8.9,8.7c1,1,1.6,0.6,2.4-0.2c3.4-3.5,6.9-6.9,10.4-10.3c0.8-0.8,1.6-1.7,2.8-1
			c1.3,0.6,1.1,1.7,1,3c-1.1,11.3-2.6,22.7-2.3,34.1c0,0.7,0,1.5,0,2.2c0,1-0.3,1.9-1.4,1.9c-1.1,0-1.4-1-1.4-2
			c0.1-4.3-0.1-8.5,0.3-12.8C95.5,61.8,96.1,54.5,96.8,46.4z"/>
		<path class="st0" d="M105.8,70.7c0-6.5,0.2-13,1.1-19.5c0-0.4,0-0.7,0-1.1c0.3-2.1-1.3-5,0.4-6.2c1.4-1,4.2-0.3,6.3-0.3
			c4.5,0,9-0.1,13.6-0.1c1.1,0,2.5-0.1,2.4,1.5c-0.1,1.4-1.5,1.3-2.6,1.3c-5.3,0-10.7,0.1-16,0.1c-1.2,0-1.8,0.3-1.8,1.7
			c0.3,4.5-0.3,9-0.6,13.6c-0.1,1.7,0.5,2.2,2.1,2.1c3.3-0.1,6.5-0.1,9.8-0.2c0.9,0,2-0.1,2,1.1c0,1.2-1,1.3-2,1.3
			c-3.4,0.1-6.9,0.3-10.3,0.4c-1.1,0-1.6,0.1-1.7,1.4c-0.1,3.7-0.2,7.4-0.4,11.1c-0.1,1.7,0.4,2.2,2.1,2.2c5.2-0.1,10.5,0,15.7,0.1
			c0.8,0,1.6,0.1,2.4,0.3c0.7,0.1,1.1,0.6,1,1.4c-0.1,0.8-0.6,1.1-1.3,1.1c-6.8-0.1-13.6-0.1-20.4-0.2c-1.7,0-2.5-1.1-2.4-2.9
			C105.6,77.4,105.7,74,105.8,70.7z"/>
		<path class="st0" d="M36.4,118.3c0,5.5,0,9.9,0,14.2c0,1.1,0.2,2.4-1.4,2.5c-1.9,0-1.4-1.5-1.4-2.6c0-7.1,0-14.1,0.1-21.2
			c0-2.7,0.2-5.4,0.5-8.1c0.2-1.6-0.4-1.9-1.8-1.6c-2.3,0.5-4.7,0.3-7,0.3c-1.1,0-2.1-0.2-2-1.6c0.1-1.2,1.2-1.1,2.1-1.2
			c7-0.2,14.1-0.3,21.1-0.5c0.9,0,2.2-0.3,2.2,1.2c0,1.4-1.2,1.4-2.2,1.4c-2.5,0.1-5.1,0.2-7.6,0.2c-1.4,0-2,0.3-2.2,1.9
			C36.1,108.6,36.8,114,36.4,118.3z"/>
	</g>
</g>
</svg>
