<?xml version="1.0" encoding="utf-8"?>
<!-- Generator: Adobe Illustrator 25.2.2, SVG Export Plug-In . SVG Version: 6.00 Build 0)  -->
<svg version="1.1" id="Calque_1" xmlns="http://www.w3.org/2000/svg" xmlns:xlink="http://www.w3.org/1999/xlink" x="0px" y="0px"
	 viewBox="0 0 125.36 219.81" style="enable-background:new 0 0 125.36 219.81;" xml:space="preserve">
<style type="text/css">
	.st0{fill:#FB89D4;}
</style>
<g id="B1TeC7.tif">
	<g>
		<path class="st0" d="M125.36,68.62c-3.57,12.14-8.77,23.67-13.55,35.34c-2.81,6.86-6.03,13.55-9.15,20.28
			c-0.82,1.77-1.28,3.52-1.27,5.48c0.07,10.6-0.27,21.22,0.23,31.81c0.5,10.69,0.02,21.38,0.54,32.04
			c0.34,6.97,0.27,13.94,0.41,20.91c0.03,1.37,0.4,3.23-1.88,3.14c-2.08-0.09-1.87-1.84-1.92-3.26
			c-0.53-14.58-0.23-29.17-0.69-43.74c-0.38-12.14-0.08-24.27-0.51-36.39c-0.21-5.95,1.36-11.15,3.8-16.38
			c6.96-14.92,13.08-30.18,18.78-45.63c1.83-4.97,1.35-9.93,0.6-14.97c-0.63,4.36-1.07,8.71-2.82,12.86
			c-1.3,3.09-3.27,4.56-6.55,4.53c-5.13-0.04-10.33,0.45-15.21-1.68c-1.1-0.48-1.23,0.17-1.4,0.88c-0.98,4.06-3.68,5.09-7.64,5.28
			c-5.27,0.26-10.42,0.32-15.51-1.17c-0.64-0.19-1.17-0.05-1.77,0.34c-5.32,3.44-11.44,4.19-17.5,4.99
			c-4.88,0.65-9.75,1.31-14.96,2.4c5.12,4.96,7.96,11.03,11.21,16.83c0.74,1.32,1.51,2.83-0.34,3.71c-1.62,0.78-2.34-0.66-3.04-1.87
			c-2.75-4.77-5.11-9.78-8.79-13.98c-0.96-1.1-1.91-2.14-3.1-2.99c-1.11-0.79-2.22-1.64-1.83-3.3c0.36-1.52,1.79-1.5,2.81-1.7
			c5.91-1.19,11.85-2.2,17.85-2.88c4.22-0.47,8.35-1.44,12.37-2.78c2.99-0.99,4.34-2.96,4.36-6.14c0.02-2.99-0.47-5.95-1.27-8.82
			c-0.65-2.34-2.14-3.96-4.6-4.5c-1.76-0.38-3.51-0.98-5.29-1.05c-12.75-0.5-25.41,0.26-37.92,3.05c-2.99,0.67-5.07,2-6.45,4.72
			C9.07,72.5,6.07,81.46,4.41,90.85c-0.48,2.73,0.23,5.35,1.33,7.91c4.21,9.86,11.43,17.23,19.4,24.04
			c4.81,4.1,9.74,8.06,14.12,12.65c3.66,3.83,5,8.4,5.23,13.54c0.42,9.3,1.37,18.58,1.34,27.87c-0.02,5.24,0.26,10.46,0.29,15.7
			c0.04,7.24,0.48,14.45,0.99,21.67c0.1,1.35,0.08,2.72-0.09,4.06c-0.12,0.98-0.82,1.59-1.92,1.51c-1.08-0.08-1.6-0.71-1.71-1.75
			c-0.15-1.44-0.4-2.87-0.45-4.31c-0.25-6.87-0.45-13.75-0.66-20.62c-0.37-12.39-0.54-24.79-1.21-37.16
			c-0.2-3.66,0.23-7.45-0.84-11.03c-1.58-5.31-5.77-8.64-9.7-12.08c-8.55-7.49-17.51-14.55-23.9-24.18
			c-2.93-4.41-4.92-9.26-6.37-14.29c-0.8-2.76,0.4-5.59,1.05-8.24c2.03-8.35,4.71-16.5,8.8-24.12c0.34-0.64,0.63-1.4,1.17-1.81
			c3.16-2.45,2.77-5.87,2.94-9.31c0.55-11.18,0.86-22.39,2.09-33.53c0.35-3.14,2.91-5.08,7.12-5.3c4.26-0.22,8.49-0.12,12.62,2.03
			c0.59-2.69,0.95-5.23,1.75-7.67c0.59-1.79,1.46-3.03,3.22-3.69C48.29,0,55.69-1.08,63.23,1.36c3.16,1.02,3.2,1.34,6.02,7.18
			c4.63-2.3,9.57-1.47,14.38-1.15c3.56,0.24,7.15,0.65,10.47,2.35c2.84,1.45,4.1,3.63,4.08,6.73c-0.03,3.53,0,7.07-0.05,10.6
			c-0.03,1.68-0.06,2.5,2.33,2.07c5.68-1.02,11.34,0.18,16.82,1.68c2.1,0.58,3.06,2.94,3.77,5.05c2.14,6.37,3.21,12.94,3.78,19.61
			c0.06,0.77-0.31,1.66,0.54,2.25C125.36,61.37,125.36,64.99,125.36,68.62z M93.85,35.74c0.05,0,0.09,0,0.14,0
			c0-6.07,0-12.14,0-18.22c0-3.58-0.61-4.51-3.95-5.39c-5.3-1.39-10.74-1.31-16.15-1.12c-2.01,0.07-3.87,2.35-3.86,4.51
			c0.04,6.61,0.18,13.23-0.63,19.79c-0.63,5.04-0.14,10.12-0.89,15.15c-0.25,1.65-0.75,3.7,0.25,5.05c3.71,5,4.07,10.73,3.89,16.53
			c-0.07,2.25,0.89,2.87,2.7,3.07c3.94,0.42,7.84,0.52,11.84,0.22c3.02-0.23,3.96-1.6,4.44-3.96c1.24-6.02,1.97-12.11,2.19-18.24
			C94,47.34,93.85,41.54,93.85,35.74z M66.2,20.72c0-2.44,0.07-4.89-0.01-7.33c-0.17-5.37-2.5-8.55-7.17-9.24
			C53.98,3.4,48.96,3.9,44.09,5.54c-1.88,0.63-2.84,2.1-3.34,3.95c-1.03,3.78-1.41,7.63-1.17,11.52c0.61,9.54,1.51,19.06,1.6,28.63
			c0.02,2.18,0.67,2.65,2.75,2.69c6.47,0.13,12.99-0.83,19.39,0.91c1.26,0.35,1.26-0.63,1.27-1.46
			C64.73,41.41,66.38,31.11,66.2,20.72z M97.68,47.25c0.46,5.21-0.63,11.57-1.21,17.95c-0.28,3.13,0.31,4.29,3.31,5.05
			c3.56,0.91,7.18,0.45,10.78,0.6c2.25,0.09,3.48-0.92,4.18-3.02c3.04-9.03,2.64-18.32,2.16-27.62c-0.07-1.42-0.4-2.88-0.88-4.22
			c-0.34-0.95-0.81-1.95-2.13-2.2c-3.73-0.72-7.47-1.3-11.27-1.14c-3.09,0.13-4.9,2.08-4.93,5.21
			C97.66,40.58,97.68,43.3,97.68,47.25z M37.41,46.66c-0.16-3.61-0.29-7.76-0.55-11.91c-0.31-4.95-0.72-9.9-1.12-14.85
			c-0.11-1.33-0.77-2.18-2.11-2.81c-3.63-1.7-7.42-1.31-11.19-1.15c-1.21,0.05-1.98,0.92-2.23,2.07c-0.3,1.41-0.52,2.84-0.63,4.27
			c-0.29,3.87-0.55,7.75-0.74,11.63c-0.32,6.68-0.58,13.36-0.88,20.04c-0.06,1.39,0.46,1.62,1.81,1.33
			c4.14-0.87,8.29-1.62,12.52-1.99C37.42,52.83,37.41,52.69,37.41,46.66z"/>
	</g>
</g>
</svg>
