<svg id="Calque_1" data-name="Calque 1" xmlns="http://www.w3.org/2000/svg" viewBox="0 0 174.58 295.36"><defs><style>.cls-1{fill:#fb88d4;}</style></defs><path class="cls-1" d="M725.45,531.56c-8.34.34-17.68.14-27,.33-14.51.31-29.07.32-43.54-.53-12.19-.72-24.3.87-36.44.2-6.87-.37-12.62-2.8-16.61-8.76-2.72-4.07-2.16-8.55-1.82-12.92.22-2.81.26-5.61.32-8.41.2-8.52.66-17.05.49-25.57-.42-20-1.58-40-1.72-60.08-.07-10.68-.91-21.37-.81-32.07,0-3.62.45-7.25.37-10.86-.28-13.69-.39-27.39-1.14-41.05-.85-15.39-2-30.77-1.45-46.19.38-9.79.4-19.58.51-29.38.07-6.81,4.09-11.08,9.88-13.71,6.58-3,13.62-4.2,20.81-4.77,17.12-1.35,34.26-1.07,51.41-1,12.87.06,25.75-.14,38.62,0,11.43.15,22.86.54,34.3.48,6,0,12.7,6.37,13.38,12.31a108.89,108.89,0,0,1,.79,15.66c-.23,7.93.84,15.89,1.21,23.85a109.16,109.16,0,0,1,0,12.79c-.8,10.89,0,21.73.62,32.58.22,3.71.4,7.43.5,11.13.29,11.51,1,23,1.4,34.51.68,18.24,0,36.48.47,54.72.17,6.43.53,12.86.45,19.31-.12,9.06-.85,18.12-.48,27.2.43,10.69.53,21.39.52,32.09,0,9-7.61,16.88-16.55,17.67-4.63.4-9.24.36-13.86.41S731,531.56,725.45,531.56Zm-2-3.76c9.72-.42,19.7.26,29.68-.5,7.3-.56,13.72-6.73,13.56-14.15-.17-8.7-.1-17.4-.46-26.1a276.6,276.6,0,0,1,.32-29.92c.38-5.6-.25-11.24-.35-16.85-.44-24.49.33-49-1.09-73.47-.64-11.11-1-22.24-1.65-33.36-.58-10.05-.86-20.12-.58-30.2.1-3.71.44-7.42.3-11.12-.36-9.23-1.26-18.44-1.27-27.66a109.09,109.09,0,0,0-.68-12.92c-.68-5.79-5.17-10.54-10.94-10.43-10.72.2-21.43-.88-32.11-.39-8,.37-15.9-.53-23.89.16-7.1.61-14.31.1-21.48-.21-13.6-.59-27.23-.13-40.82.56-7.55.39-15.16,1.29-22.29,4.25-3.42,1.42-6.36,3.44-8.19,6.79s-1.52,7.15-1.44,10.61c.14,6.07.05,12.1-.09,18.16-.21,9.79-.43,19.58.29,29.38.85,11.55,1.33,23.14,1.65,34.73s.75,23,.64,34.55c-.11,11.69.1,23.39.37,35.09.41,17.58.86,35.15,1.7,52.72.65,13.6-.69,27.2-.49,40.81a14.36,14.36,0,0,1-.33,2.42c-1.2,7.43,1.91,13.28,8.39,15.8,4,1.55,8.21,1.58,12.31,1.55,6.59,0,13.18-1,19.8-.9,4,0,8,.5,11.94.43,14.6-.26,29.19.73,43.79.22C707.74,527.58,715.47,527.8,723.44,527.8Z" transform="translate(-595.91 -236.72)"/><path class="cls-1" d="M610.14,451c0-12.62.27-25.25-.09-37.86-.25-8.89-.17-17.78-.51-26.66-.43-11.22-.74-22.45-1.09-33.68-.38-12.14-.8-24.28-1.09-36.42-.31-13.3-1-26.6-1.6-39.9a27.18,27.18,0,0,0-.46-2.94,11.59,11.59,0,0,1,3-9.73c4.26-5,8.89-8.52,16.07-8.64,10.84-.17,21.67-1.28,32.5-1.93,2.9-.17,5.81-.13,8.72-.14,10.35,0,20.71.24,31.06-.1,9.87-.33,19.74-1.13,29.61-.88a108,108,0,0,1,23.13,2.65c5.83,1.44,9.09,5.52,9.09,11.5,0,8-.41,16,.13,24,.83,12,1.12,24.05,2,36.05.26,3.61.41,7.23.57,10.85.56,12.76,1.46,25.51,1.59,38.27.26,25.85,0,51.71.19,77.57.08,9.33.63,18.68.34,28-.24,7.8-.45,15.59-.46,23.39,0,3.64-3,5.61-5.2,7.94-4,4.34-9.43,4.86-14.94,5.18-10.78.63-21.56-.47-32.34,0-13.49.58-27,.88-40.46,1.73-11,.7-22,.46-32.93.3a154.73,154.73,0,0,1-16.46-1.55c-5.43-.67-9.55-5.71-9.78-11.17C609.92,488.16,610.22,469.55,610.14,451ZM759,419.21c-.12-22.58.42-42.82-1-63-.77-10.56-1.11-21.17-1.52-31.75-.57-14.94-2-29.85-1.82-44.83,0-4.63.05-9.26,0-13.89,0-3.26-2.31-6.44-5-7.11a90.87,90.87,0,0,0-22-2.65c-13.51,0-27,.61-40.52.93-10.43.24-20.86-.08-31.31.39-11.13.5-22.23,1.44-33.33,2.26-7.79.58-14,7.51-13.28,15.11.79,7.84.92,15.72,1.38,23.57.67,11.21.84,22.46,1.18,33.69.36,11.51.61,23,1.08,34.53.57,14.31.91,28.64,1.1,43,.43,32.22-.29,64.45.66,96.68.13,4.34,2.41,7.45,6.71,8.08a110,110,0,0,0,14.56,1.49c10.88.13,21.77.42,32.66-.29,12.39-.81,24.8-1.24,37.2-1.73,14-.55,27.95.65,41.92-.53,4.91-.41,11.45-6.16,11.34-11-.26-10.9.76-21.77.54-32.66-.09-4.53-.43-9.06-.45-13.59C759,442.83,759,429.84,759,419.21Z" transform="translate(-595.91 -236.72)"/><path class="cls-1" d="M677.76,244.88c4.53,0,9.06,0,13.59,0,1.28,0,3-.5,3.26,1.48s-1.13,2.67-2.81,3c-4.68,1-9.4.56-14.08.26a50.89,50.89,0,0,0-10.25,0,12.9,12.9,0,0,1-6.19-.34,1.94,1.94,0,0,1-1.49-2,2.06,2.06,0,0,1,1.43-2.07,7.2,7.2,0,0,1,2.94-.39h13.6Z" transform="translate(-595.91 -236.72)"/><path class="cls-1" d="M702.28,247.43c.23-2.32,1.56-3.15,3.69-3.11s2.95,1.07,2.94,3a3.44,3.44,0,0,1-3.61,3.51C703.15,250.73,702.54,249.18,702.28,247.43Z" transform="translate(-595.91 -236.72)"/><path class="cls-1" d="M663,388.49c-2.31-2.29-3.54-4.91-3.08-8.1.18-1.23-.79-1.48-1.56-1.92-5.65-3.2-7.32-8.38-4.44-14.22a3.71,3.71,0,0,0,0-3.33c-1.77-4.64-1.86-9.19,1.07-13.48,1.06-1.56,2.35-2.9,4.39-2.73s2.07,2,2.77,3.32c2.61,5,6.62,8.81,11,12.24,1.78,1.39,3.8,2.45,5.62,3.8s2.79.84,3.45-1.25c1.73-5.46,5.42-9.24,10.28-12.16,6.93-4.18,17.27-2.27,21.64,3.32,1.29,1.65,3.3,1.29,5,1.49,3.82.44,5.83,3.58,4.38,7.11a11.1,11.1,0,0,1-2.74,4c-3.77,3.44-4.53,8.09-5.3,12.7-.63,3.74-.74,7.57-1.38,11.31-2.12,12.32-9.78,19.83-21.43,23.15-10.74,3.06-21.47,2.92-31-3.82-5.44-3.84-9.64-8.86-10.21-16a13.8,13.8,0,0,1,.3-4.3c.35-1.5,1.6-1.38,2.84-1A12.66,12.66,0,0,0,663,388.49ZM717.46,363c-.71-.13-1.93-.28-1.85-.82.4-2.71-1.66-2.89-3.29-3.62-.35-.16-.57-.68-.8-1.07-2.09-3.57-5.54-4.91-9.35-5.21-7.5-.61-15.18,5.55-17.21,13.53-.88,3.42-1.81,3.94-5.14,2.92a16.14,16.14,0,0,1-3.93-1.82c-7-4.46-13.26-9.74-17.49-17.09-2.55,3.37-2.63,6.12-.14,10.9,1,1.94,1.66,3.65-.53,5.24a3.56,3.56,0,0,0-1.26,3.15c0,3.62,2.69,6.14,7.67,7,1,.18,1.85.26,2.11,1.35a1.94,1.94,0,0,1-1.16,2.24c-2.3,1.28-1.77,2.93-.48,4.49,1,1.17,2.24,2.09,3.33,3.17,1.6,1.57,1.22,2.8-.65,3.86-3.08,1.74-6.54,1.66-9.8,1.5-2.53-.12-3,.36-2.21,2.56,2.43,7.21,7.51,11.87,14.44,14.48,5.54,2.09,11.36,2.16,17.15,1.26A29,29,0,0,0,705.28,401c4.26-5.07,5.16-11.27,5.71-17.52.63-7.27,1.71-14.34,6.77-20.09.24-.15.79-.16.53-.58S717.7,362.78,717.46,363Z" transform="translate(-595.91 -236.72)"/></svg>