<?xml version="1.0" encoding="utf-8"?>
<!-- Generator: Adobe Illustrator 25.2.2, SVG Export Plug-In . SVG Version: 6.00 Build 0)  -->
<svg version="1.1" id="Calque_1" xmlns="http://www.w3.org/2000/svg" xmlns:xlink="http://www.w3.org/1999/xlink" x="0px" y="0px"
	 viewBox="0 0 205.2 258.69" style="enable-background:new 0 0 205.2 258.69;" xml:space="preserve">
<style type="text/css">
	.st0{fill:#FB8DD6;}
	.st1{fill:#FEFEFE;}
</style>
<path class="st0" d="M21.17,203.24c-3.51,2.61-4.57,6.63-5.79,10.45c-3.75,11.69-4.68,23.75-4.42,35.96
	c0.06,2.64-0.68,3.14-2.74,2.35c-1.02-0.39-1.08-1.06-1.1-1.91c-0.3-13.57,0.61-26.99,5.2-39.92c2.23-6.3,5.73-11.78,11.22-15.68
	c3.06-2.18,3.11-4.87,2.26-7.89c-1.44-5.14-5.23-8.53-9.36-12.19c-0.9,5.12-2.68,9.54-5.42,13.53c-2.06,2.99-4.22,5.9-6.83,8.45
	c-1.08,1.06-2.29,2.27-3.66,0.77c-1.18-1.29-0.14-2.46,0.83-3.52c4.1-4.51,7.94-9.19,10.11-15.02c1.62-4.36,1.6-8.25-1.53-12.2
	c-4.98-6.29-4.93-15.47-0.69-22.53c4.5-7.5,10.89-12.9,18.63-16.58c5.32-2.54,4.46-4.92,1.32-9.45c-2.3-3.33-5.6-5.95-8-9.22
	c-3.97-5.43-7.48-11.24-8.56-18.01c-1.44-8.95,0.88-17.33,5.32-25.01c5.17-8.95,12.61-15.85,21.22-21.46
	c2.5-1.62,3.67-3.48,3.46-6.47c-0.3-4.26-0.04-8.52,1.11-12.67c2.23-8.1,7.43-13.89,14.69-17.69c8.57-4.49,17.59-7.61,27.52-7.29
	c6.16,0.2,11.77,1.87,16.77,5.44c1.14,0.81,2.09,0.74,3.28,0.28c13.55-5.2,26.31-2.93,38.42,4.34c8.28,4.97,15.45,11.08,19.53,20.2
	c2.72,6.1,4.13,12.52,5.12,19.08c0.63,4.11,1.42,8.18,2.99,12.09c1.12,2.8,2.82,4.99,5.16,6.83c7.69,6.04,12.5,13.6,11.96,23.75
	c-0.38,7.17-2.71,13.62-7.62,19.03c-2.15,2.37-2.04,2.41,0.74,3.95c7.28,4.03,14.02,8.7,18.62,15.87c2.45,3.82,3.62,8.14,4.04,12.56
	c0.83,8.81-0.37,17.28-4.41,25.36c-2.63,5.25-4.83,10.73-6.53,16.39c-2.59,8.64-1.78,17.18,0.52,25.71
	c1.54,5.74,3.75,11.15,7.35,15.95c0.81,1.08,1.78,2.45,0.11,3.5c-1.43,0.91-2.58,0-3.41-1.25c-1.54-2.31-3.06-4.64-4.64-7.04
	c-3.51,5.25-7.65,9.79-12.14,14.02c-0.33,0.31-0.64,0.65-0.99,0.93c-1.08,0.89-2.45,1.25-3.43,0.25c-1.14-1.16-0.32-2.46,0.72-3.27
	c3.97-3.1,6.98-7.09,10.22-10.87c2.66-3.1,4-6.32,2.58-10.65c-4.8-14.65-2.05-28.58,4.44-42.13c2.03-4.23,4.45-8.44,5.14-13.13
	c2.44-16.71-0.51-25.18-13.46-34.53c-2.5-1.81-5.12-3.42-7.88-4.82c-1.34-0.69-2.04-0.52-2.76,0.87c-4.1,7.91-5.3,16.28-4.31,25.05
	c0.31,2.7,0.61,5.37,1.7,7.93c0.44,1.04,0.67,2.47-0.85,3.02c-1.39,0.5-2.19-0.43-2.78-1.56c-1.57-2.97-1.89-6.27-2.11-9.48
	c-0.63-9.15,0.15-18.14,4.62-26.41c0.78-1.45,0.66-2.09-0.98-2.77c-5.81-2.44-11.56-5.04-13.62-11.86c-2.79,2.01-2.4,4.77-2.77,7.45
	c-1.19,8.63-4.18,16.68-8.94,24.01c-1.82,2.81-3.8,5.51-5.72,8.26c-6.46,9.26-6.59,19.05-2.27,29.12c1.93,4.49,4.63,8.65,6.11,13.33
	c3.08,9.74-0.18,18.17-5.65,26.07c-3.04,4.39-6.34,8.56-8.52,13.54c-3.22,7.38-1.32,13.6,3.55,19.35
	c5.37,6.35,12.93,8.39,20.54,10.25c1.66,0.4,3.41,0.4,5.1,0.67c1.04,0.17,1.93,0.63,1.91,1.91c-0.03,1.22-0.73,1.7-1.89,1.87
	c-11.8,1.75-29.57-8.92-33.6-20.22c-1.86-5.21-1.41-10.32,0.7-15.36c0.33-0.78,1.35-1.66,0.59-2.4c-0.74-0.72-1.66,0.28-2.46,0.59
	c-11.24,4.33-22.57,4.58-34.06,0.96c-6.7-2.12-13.09-4.71-18.67-9.16c-6.4-5.11-10.03-11.76-11.92-19.56
	c-0.45-1.87,0.19-4.58-1.4-5.41c-1.35-0.7-3.62,0.43-5.49,0.72c-6.54,0.99-13.02,2.2-19.28,4.42c-2.85,1.01-4.92,2.44-5.84,5.72
	c-1.44,5.13-4.99,9.48-5.9,14.86c-0.31,1.85-0.87,3.66-0.62,5.62c1.13,8.9,7.85,10.08,15.25,8.87c1.07-0.18,2.09-0.58,3.16-0.75
	c0.87-0.14,1.64,0.19,1.97,1.09c0.32,0.88-0.05,1.59-0.72,2.17c-0.14,0.12-0.3,0.21-0.45,0.31c-6.42,4.25-18.72,0.95-21.84-6
	c-2.28-5.09-1.54-10.28,0.2-15.38c0.7-2.05,1.54-4.06,2.31-6.09c0.19-0.15,0.4-0.32,0.08-0.53
	C21.48,202.95,21.29,203.14,21.17,203.24z M100.24,8.38c-5.42-3.62-10.92-5.1-16.64-4.8c-5.87,0.3-11.56,1.94-17.05,4.18
	c-10.51,4.28-18.49,10.66-19.88,22.87c-0.35,3.09-0.09,6.16-0.21,9.24c-0.13,3.13-1.43,5.67-4.11,7.23
	c-9.99,5.8-17.87,13.72-22.71,24.18c-4.14,8.94-5.01,18.07,0.07,27.36c3.2,5.85,7.46,10.67,11.85,15.49
	c7.84,8.62,9.96,18.86,8.76,30.08c-0.13,1.24-0.6,2.46-0.98,3.66c-0.47,1.49-1.63,2-3,1.55c-1.56-0.52-1.12-1.7-0.71-2.9
	c1.89-5.48,1.33-15.04-1.11-19.46c-1.47,2.13-3.77,3.11-5.9,4.27c-7.19,3.9-13.05,9.16-16.84,16.49
	c-2.83,5.46-1.66,12.11,2.09,17.01c3.06,3.99,6.65,7.41,10.07,11.02c3.31,3.5,5.93,7.43,6.09,12.4c0.07,2.2,0.91,1.81,2.24,1.29
	c3.55-1.39,7.22-2.36,10.96-3.04c7.29-1.32,14.59-2.59,21.88-3.91c3.01-0.55,3.32-1.48,1.21-3.76c-1.23-1.32-2.63-2.49-3.99-3.7
	c-2.72-2.43-4.48-5.19-3.43-9.06c0.71-2.62,1.29-5.27,2-7.88c0.86-3.14-0.05-5.66-2.46-7.77c-1.63-1.43-3.07-3.12-4.82-4.38
	c-6.61-4.78-8.49-20.64-5.14-27.34c1.7-3.39,1.53-6.01,0.21-9.1c-0.46-1.07-0.87-2.26-0.88-3.4c-0.03-2.7-1.48-4.74-2.71-6.94
	c-3.21-5.73-5.95-11.65-5.77-18.44c0.04-1.42-0.89-1.77-1.82-2.36c-3.24-2.05-3.78-7.62-0.59-9.53c4.23-2.52,7.27-6.6,11.84-8.58
	c0.84-0.36,1.21-1.09,1.39-1.9c1.29-5.93,3.74-11.36,7.32-16.23c5.96-8.11,13.02-14.82,23.04-17.74c2.41-0.7,3.47-0.04,4.19,2.27
	c1.79,5.78,1.47,11.6,0.68,17.44c-0.54,3.98-2.19,7.65-3.4,11.44c-0.16,0.5-0.87,1.23-0.05,1.66c0.82,0.42,1.36-0.32,1.72-0.94
	c0.59-1.01,1.05-2.1,1.62-3.12c6.03-10.83,9.18-22.24,6.89-34.7c-0.28-1.53,0.02-2.83,0.6-4.19C94.06,11.23,96.55,9.56,100.24,8.38z
	 M121.07,153.79c-0.33-0.07-0.43-0.13-0.5-0.11c-0.51,0.16-1.02,0.34-1.54,0.51c-9.85,3.15-19.68,6.57-30.15,2.61
	c-1.65-0.62-1.59,0.54-1.55,1.58c0.14,4-0.34,7.96-0.57,11.94c-0.42,7.23-3.74,12-9.89,13.67c-3.65,0.99-7.36,1.91-11.1,2.4
	c-2.27,0.3-2.75,1.23-2.46,3.17c1.27,8.52,4.84,15.83,12.07,20.75c12.88,8.77,26.91,12.78,42.44,8.78
	c7.09-1.82,13.73-4.68,18.05-11.09c4.09-6.07,7.05-12.48,5.34-20.11c-0.59-2.65-1.22-5.15-4.82-4.81c-0.78,0.07-1.6-0.25-2.4-0.4
	c-11.34-2.1-13.17-4.48-12.94-14.85C121.16,163.13,121.07,158.43,121.07,153.79z M52.14,107.89c2.94,8.74,5.81,16.73,10.01,24.31
	c8.06,14.56,30.04,26.86,48.8,20.65c16-5.3,29.43-13.1,36.46-29.25c1.81-4.16,3.11-8.45,3.79-13.58c-2.99,2.24-5.83,3.57-8.77,4.73
	c-13.26,5.25-27.75,0.35-34.29-11.71c-2.32-4.27-3.42-8.95-3.94-13.75c-0.19-1.69-0.81-2.78-2.57-2.88c-1.84-0.1-2.45,1.12-2.7,2.69
	c-0.3,1.86-0.65,3.71-0.98,5.64c1.65,0.17,3.16,0.86,4.83,0.73c1.01-0.08,1.8,0.41,1.91,1.51c0.11,1.08-0.59,1.61-1.51,1.98
	c-1.67,0.68-3.32,0.34-4.71-0.5C97,97.59,96.61,98.01,96,99.39c-4.93,11.06-17.61,17.31-29.5,14.73
	C61.51,113.03,56.91,111.1,52.14,107.89z M140.21,12.32c0.12,2.2,0.46,3.65,0.25,5.22c-0.86,6.3-3.57,12.15-4.38,18.45
	c-0.6,4.73-1.34,9.97,1.87,13.62c4.36,4.96,8.19,10.99,15.5,12.47c1.7,0.35,3.11,1.38,4.54,2.37c2.6,1.81,4.63,4.32,7.46,5.85
	c4.24,2.29,4.39,7.89,0.26,10.41c-1.05,0.64-1.63,1.24-1.57,2.52c0.19,3.79-0.49,7.58-2.31,10.77c-2.1,3.66-0.8,6.49,0.82,9.59
	c1.6,3.04,4.47,4.37,7.32,5.79c5.38,2.69,5.35,2.69,9.16-1.85c8.8-10.47,8.73-25.91-3.37-35.01c-5.57-4.18-8.06-9.84-9.45-16.24
	c-1.55-7.14-2.18-14.46-4.79-21.39C157.64,24.52,149.86,17.99,140.21,12.32z M134.32,52.34c-3.37-8.33-2.56-12.93-1.76-19.1
	c0.12-0.94,0.67-1.74,0.07-2.84c-6.52-11.87-16.66-17.77-30.03-18.25c-4.78-0.17-7.21,3.07-6.46,7.81
	c0.95,5.96,0.61,11.92-0.5,17.83c-0.99,5.21-3.44,9.92-5.53,14.73c-0.62,1.43-0.48,2.23,0.71,3.21c2.51,2.06,4.65,4.39,4.05,8.07
	c-0.11,0.69,0.37,1.22,0.86,1.62c3.06,2.53,3.81,6.04,4.08,9.73c0.07,1,0.12,1.86,1.43,1.76c1.01-0.07,2.23,0.41,2.49-1.29
	c1.09-6.9,5.95-10.68,11.59-13.77c0.74-0.41,1.26-0.78,1.45-1.75c0.85-4.51,3.1-6.39,7.55-7.18
	C127.58,52.34,130.83,52.54,134.32,52.34z M131.77,112.95c5.39-0.09,10.41-1.62,14.84-4.62c9.54-6.46,13.35-16.07,14.13-27.11
	c0.13-1.87,0.33-3.12,2.34-3.58c0.92-0.21,1.57-0.82,1.57-1.94c0-1.05-0.41-1.75-1.38-2.1c-2.13-0.76-3.58-2.44-5.11-3.93
	c-2.27-2.2-4.86-3.77-7.87-4.66c-9.35-2.79-18.83-3.53-28.42-1.55c-8.52,1.76-13.14,6.69-14.38,15.01c-0.3,2.03-1.58,2.55-3.32,2.19
	c-1.17-0.25-2.29-0.45-3.48-0.22c-3.96,0.76-4.56,0.23-4.7-3.88c-0.1-3.02-0.53-5.98-2.63-8.36C90,64.37,85.71,62.2,80.8,61.15
	c-7.57-1.62-15.11-1.05-22.62,0.39c-4.31,0.82-8.46,2.03-11.86,5.02c-2.02,1.78-3.78,3.85-6.34,5.02c-1.54,0.71-1.73,3.05-0.31,3.43
	c3.08,0.82,2.98,2.96,3.21,5.37c0.14,1.53,0,3.11,0.4,4.59c3.55,13.39,10.25,22.61,24.63,25.53c8.21,1.67,18.75-2.84,23.13-9.98
	c2.53-4.12,3.57-8.69,4.32-13.34c0.32-2,1.36-3.02,3.06-3.73c1.66-0.69,3.39-0.65,5.1-0.48c2.22,0.22,4,0.91,4.1,3.72
	c0.07,1.88,0.68,3.73,0.97,5.6C110.67,105.71,121.37,113.25,131.77,112.95z M54.01,58.25c3.84-0.65,3.78-0.68,5.51-3.63
	c1.08-1.84,2.61-3.21,4.75-3.83c4.27-1.25,8.59-1.34,12.86-0.33c1.86,0.44,2.6,0.06,3.14-1.72c1.75-5.79,2.64-11.61,1.61-17.66
	c-0.49-2.85-0.87-3.28-3.4-2.04C66.13,35.1,58.39,45.05,54.01,58.25z M134.71,25.82c0.78-3.33,1.67-6.18,2.07-9.11
	c0.55-4.02-1.24-6.88-5.09-8.18c-4.31-1.44-8.83-1.81-13.35-1.84c-4.55-0.04-6.73,0.52-8.82,2.08
	C126.26,14.14,127.51,16.69,134.71,25.82z M141.14,58.95c-3.96-4.51-18.61-3.66-20.34,0.93C127.43,58.26,134.09,58.95,141.14,58.95z
	 M62.7,56.74c4.78,0,9.11-0.02,13.45,0.01c1.18,0.01,1.66-0.72,1.73-1.67c0.08-1.08-0.9-0.86-1.56-1.01
	c-2.4-0.56-4.87-0.76-7.28-0.44C66.85,53.93,64.26,53.73,62.7,56.74z M86.51,58.83c1.25,0.78,2.07,1.42,3.8,1.58
	C89.14,59.13,88.56,57.99,86.51,58.83z M22.35,201.65c-0.06-0.06-0.12-0.11-0.18-0.17c-0.07,0.14-0.16,0.27-0.21,0.42
	c-0.01,0.03,0.11,0.11,0.17,0.17C22.2,201.94,22.27,201.8,22.35,201.65z"/>
<path class="st0" d="M161.99,211.43c0.07,4.95-2.21,8.37-5.53,11.11c-2.06,1.7-3.77,3.65-5.4,5.71c-3.15,3.99-2.45,8.26,1.68,11.24
	c3.15,2.27,7.2,3.07,9.84,6.17c0.77,0.9,1.65,1.67,1.59,3.02c-0.04,0.92-0.39,1.53-1.25,1.89c-0.81,0.34-1.54,0.1-1.95-0.51
	c-2.08-3.14-5.44-4.36-8.57-5.96c-3.36-1.71-5.88-4.12-6.81-7.97c-1.16-4.81,0.57-8.71,3.74-12.12c2.09-2.25,4.35-4.35,6.54-6.53
	c2.11-2.1,2.79-4.64,2.04-7.48c-0.37-1.39-0.6-2.61,1.06-3.07c1.74-0.48,2.45,0.72,2.75,2.19
	C161.9,210.01,161.94,210.92,161.99,211.43z"/>
<path class="st1" d="M22.35,201.65c-0.08,0.15-0.15,0.29-0.23,0.43c-0.06-0.06-0.18-0.14-0.17-0.17c0.05-0.15,0.14-0.28,0.21-0.42
	C22.23,201.54,22.29,201.6,22.35,201.65z"/>
<path class="st1" d="M21.17,203.24c0.12-0.09,0.31-0.29,0.35-0.27c0.32,0.21,0.11,0.37-0.08,0.53
	C21.35,203.41,21.26,203.33,21.17,203.24z"/>
<path class="st0" d="M104.39,125.51c-4.66,0.21-8.71-1.14-12.4-3.67c-0.59-0.4-1.22-0.85-1.62-1.42c-0.79-1.13-1.61-2.49-0.36-3.68
	c1.44-1.37,2.38-0.03,3.34,0.97c3.95,4.13,11.42,5.38,16.93,2.89c0.9-0.41,1.8-0.89,2.75-1.12c0.98-0.23,2.07-0.22,2.49,1.02
	c0.38,1.13-0.19,1.96-1.13,2.49C111.23,124.76,107.88,125.72,104.39,125.51z"/>
<path class="st0" d="M68.84,61.04c9.72,0,16.27,2.22,21.85,7.33c2.17,1.98,3.36,4.4,3.55,7.09c0.63,8.81-0.14,17.41-5.44,24.94
	c-6.62,9.39-19.27,11.48-29.5,5.05c-8.89-5.59-13.35-13.9-15.12-23.95c-0.16-0.89-0.32-1.78-0.49-2.67
	c-1.21-6.23,2.57-9.6,7.23-12.35C57.13,62.83,63.85,60.92,68.84,61.04z M90.67,78.96c0.99-4.97-2.21-8.77-7.48-11.47
	c-1.63-0.84-2.85-0.94-4.45,0.19c-3.41,2.42-6.97,4.44-11.45,4.48c-4.01,0.04-7.75-0.67-11.34-2.31c-1.62-0.74-2.43-0.37-2.95,1.35
	c-1,3.31-2.47,6.43-4.33,9.35c-0.63,0.98-0.72,1.96-0.37,3.1c2.36,7.74,6.17,14.33,13.31,18.81c9.22,5.78,20.82,2.76,25.74-6.9
	C89.81,90.73,90.47,85.59,90.67,78.96z M71.7,65.04c-4.37-0.36-8.33,0.39-12.45,1.79C65.81,69.45,69.87,68.89,71.7,65.04z"/>
<path class="st0" d="M131.97,63.26c8.51-0.07,15.72,2.2,22.35,6.52c4.49,2.93,6.25,6.8,5.41,12.24c-1.2,7.74-3.92,14.82-9.21,20.49
	c-8.99,9.64-23.7,13-34.1,2.26c-4.05-4.17-5.86-9.49-6.79-15.13c-0.44-2.68-0.45-5.4-0.64-8.1c-0.5-7.24,3.22-11.76,9.18-14.91
	C122.65,64.25,127.43,63.01,131.97,63.26z M131.52,67.09c-2.68-0.36-6.19,0.33-9.39,1.82c-4.14,1.93-8.69,3.81-9.13,9.37
	c-0.44,5.63-0.18,11.25,1.82,16.6c3.38,9.02,9.9,13.44,18.97,12.51c7.31-0.75,12.59-4.98,16.59-10.99c1.07-1.61,1.65-3.09,0.71-5.01
	c-0.86-1.76-0.77-3.71-0.3-5.59c0.5-2.01,1.11-3.99,1.61-6.01c1.03-4.15-0.34-6.9-4.02-8.89C143.39,68.19,138.06,67.14,131.52,67.09
	z M155.68,83.84c-1.43,1.57-1.41,2.75-1.1,4.38C154.93,86.8,155.2,85.74,155.68,83.84z M155.61,82.37c-0.03,0.17-0.11,0.34-0.08,0.5
	c0.05,0.29,0.21,0.3,0.3,0.03c0.05-0.15-0.02-0.34-0.04-0.5C155.78,82.37,155.68,82.37,155.61,82.37z"/>
<path class="st0" d="M78.62,79.96c0.06,2.39-0.46,4.36-2.54,5.5c-1.79,0.98-3.74,1.15-5.39-0.09c-1.74-1.31-2.43-3.29-2.42-5.49
	c0-0.57,0.78-1.26-0.02-1.69c-0.72-0.39-1.42,0.17-1.98,0.59c-0.72,0.53-1.32,1.22-1.98,1.84c-0.66,0.63-1.39,0.87-2.18,0.26
	c-0.79-0.62-1.11-1.36-0.68-2.37c0.77-1.8,2.33-2.78,3.95-3.55c5.24-2.51,14.94-0.5,18.94,3.78c0.85,0.91,1.15,1.93,0.44,2.94
	c-0.82,1.15-1.85,0.72-2.86,0.08C80.93,81.13,80.15,80.16,78.62,79.96z"/>
<path class="st0" d="M125.82,80.56c-1.53,0.06-2.2,1.37-3.32,1.91c-0.97,0.46-1.94,0.8-2.68-0.21c-0.66-0.89-0.5-1.85,0.19-2.75
	c4.07-5.24,15.66-6.86,20.97-2.92c0.95,0.7,1.83,1.46,2.23,2.65c0.31,0.92-0.03,1.59-0.71,2.14c-0.77,0.63-1.52,0.45-2.18-0.19
	c-0.46-0.44-0.83-0.97-1.32-1.36c-0.77-0.61-1.63-1.52-2.62-1.08c-1.03,0.46,0.01,1.42-0.02,2.16c-0.1,2.97-2.36,5.71-4.97,5.84
	c-2.98,0.14-5.08-1.88-5.4-5.2C125.94,81.22,125.88,80.89,125.82,80.56z"/>
</svg>
