<svg width="141" height="58" viewBox="0 0 141 58" fill="none" xmlns="http://www.w3.org/2000/svg">
<path d="M20.9394 56.7872C17.2215 56.7872 14.2832 56.8472 11.8921 55.7453C10.2506 54.9957 8.93886 54.1187 7.59714 53.1068C6.53276 52.3048 4.60638 50.7232 3.52701 48.9692C2.88239 47.9124 2.68 46.7955 2.38767 45.8136C0.371347 39.0375 1.23334 31.7893 0.663678 25.1181C0.408826 22.1424 0.88105 19.1141 1.18088 16.1609C1.24084 15.5537 1.3158 14.9316 1.42074 14.3169C1.75054 12.413 2.37268 10.6965 3.27965 9.20491C3.8793 8.20799 4.63636 7.27104 5.52834 6.40904C6.84757 5.13478 8.39167 4.10038 10.1007 3.34332C13.0015 2.05407 15.8798 1.73926 18.8256 1.4994L23.9751 1.10213C27.1532 0.839782 30.4888 0.56994 33.8693 0.697365C36.7626 0.802303 39.581 1.00469 42.197 1.21456C43.3513 1.30451 44.783 1.41695 46.3196 1.93414C48.7332 2.75117 50.9219 4.45268 52.481 6.72385C53.6203 8.39538 54.8271 10.0369 55.3818 12.3831C56.0714 15.2764 55.7941 18.3571 55.8765 20.8082C55.899 21.5502 55.929 22.2773 55.9665 23.0044C56.0489 24.7209 56.1239 26.4299 56.1763 28.1389C56.2963 32.209 56.2513 35.612 56.0339 38.8277C55.7716 42.7404 55.914 47.7849 52.6759 51.2329C48.216 55.9777 40.9527 57.132 36.4778 57.192H36.0131C36.0131 57.192 35.1211 57.1845 34.6789 57.177L33.5245 57.162C31.7256 57.1695 29.9191 56.6523 28.0452 56.8247C26.4487 56.9671 25.0245 56.6523 23.5853 56.7197C22.7458 56.7572 21.8538 56.7872 20.9394 56.7872ZM32.1154 5.41212C29.4994 5.41212 26.8609 5.62949 24.3124 5.83187L19.1554 6.23664C16.6144 6.43902 14.3657 6.78382 12.1095 7.78824C10.8652 8.34291 9.88331 8.97255 8.93136 9.88701C8.31672 10.4792 7.81451 11.1388 7.40975 11.8059C6.7951 12.8253 6.34537 13.6048 6.113 14.9541C6.03055 15.4638 5.97058 15.981 5.91812 16.4982C5.63328 19.3315 5.46088 22.2173 5.41591 25.0732C5.32596 31.4145 5.49836 38.1381 7.34229 44.3369C7.54467 45.0116 7.85949 45.5063 8.25675 46.1584C8.89388 47.2003 9.86831 47.9274 10.7228 48.572C11.9221 49.4715 13.009 50.2585 14.2608 50.8357C16.0447 51.6602 18.0161 51.7501 21.0818 51.7501C21.9213 51.7501 22.7458 51.7276 23.5179 51.6902C24.927 51.6227 26.3287 51.4953 27.7304 51.3679C29.7392 51.188 31.6057 51.0231 33.5995 51.0156C33.9518 51.0156 34.2891 51.0231 34.6339 51.0305H34.8288C35.256 51.038 35.6683 51.0455 36.0805 51.0455L36.5228 51.038C40.1732 50.9931 44.9779 50.7532 48.2834 47.2453C50.5696 44.8092 50.8544 41.6835 51.0718 38.5578C51.2742 35.4846 51.3192 32.224 51.2067 28.2963C51.1543 26.6173 51.0793 24.9382 50.9969 23.2592C50.9594 22.5022 50.9294 21.7451 50.9069 20.988C50.8245 18.7394 50.8394 16.3183 50.2473 13.8597C49.82 12.0533 49.063 10.8539 48.231 9.63966C47.2116 8.14803 46.3571 7.06116 44.8429 6.55146C43.831 6.20666 42.8116 6.10921 41.8072 6.02676C39.2362 5.82438 36.5078 5.53954 33.6894 5.43461C33.1647 5.41961 32.64 5.41212 32.1154 5.41212Z" fill="#252525"/>
<path d="M20.9318 52.3047C18.4058 52.3047 15.9247 52.0499 13.8634 51.0979C12.6117 50.5208 11.5248 49.7412 10.3405 48.8493C9.486 48.2046 8.51906 47.4776 7.88942 46.4506C7.49216 45.7985 7.2523 45.064 7.06491 44.4268C5.22848 38.2354 5.05608 31.5193 5.14602 25.1855C5.191 22.3297 5.3559 19.4439 5.64823 16.618C5.7007 16.1008 5.75317 15.5836 5.84312 15.0739C6.07548 13.7322 6.50273 12.5404 7.10988 11.5285C7.51464 10.8689 8.03184 10.2317 8.64649 9.63959C9.58344 8.73262 10.6853 7.99055 11.9221 7.44337C14.1633 6.44645 16.6368 6.18411 19.1853 5.97423L24.3274 5.56947C27.3931 5.32211 30.5637 5.06726 33.7044 5.17969C36.5078 5.27713 39.2736 5.47952 41.8446 5.6819C42.8416 5.76435 43.876 5.83931 44.8879 6.18411C46.3795 6.68631 47.7662 7.78067 48.7781 9.26481C49.6026 10.4641 50.2098 11.9258 50.6445 13.7247C51.2292 16.1908 51.3191 18.7243 51.3941 20.9655L51.4016 21.1754C51.4241 21.865 51.4466 22.5471 51.484 23.2367C51.5665 24.9157 51.6414 26.5872 51.6939 28.2662C51.8063 32.2164 51.7689 35.477 51.559 38.5203C51.3491 41.6385 50.8244 45.1614 48.5457 47.5825C45.2627 51.0755 40.0232 51.5402 36.3728 51.5852C35.8257 51.5927 35.2785 51.5852 34.7313 51.5777C34.2816 51.5702 33.8393 51.5627 33.3746 51.5627C31.4407 51.5702 29.4769 51.7426 27.573 51.9225C26.2013 52.0424 24.7846 52.1698 23.3829 52.2373C22.5659 52.2748 21.7489 52.3047 20.9318 52.3047ZM32.1378 6.49892C29.5668 6.49892 26.9658 6.7088 24.4398 6.91118L19.2903 7.31595C16.7718 7.51833 14.5231 7.75819 12.4693 8.67266C11.3824 9.15987 10.408 9.8045 9.57594 10.6065C9.04375 11.1162 8.60901 11.6634 8.26421 12.2256C7.73951 13.0876 7.37223 14.122 7.16984 15.2988C7.08739 15.7785 7.03492 16.2657 6.98246 16.7529C6.69762 19.5413 6.53272 22.3822 6.49524 25.2005C6.40529 31.4294 6.5627 38.0256 8.35416 44.0446C8.52656 44.6217 8.72144 45.2289 9.03626 45.7461C9.53847 46.5556 10.3555 47.1777 11.15 47.7774C12.2744 48.6169 13.2938 49.359 14.4256 49.8837C16.8992 51.0155 20.1598 51.038 23.3229 50.8956C24.6946 50.8356 26.0963 50.7082 27.453 50.5807C29.3794 50.4083 31.3807 50.2285 33.3671 50.221C33.8318 50.221 34.2965 50.2285 34.7538 50.2359C35.286 50.2434 35.8257 50.2509 36.3503 50.2434C40.0532 50.1985 44.6705 49.7487 47.5713 46.6605C49.5577 44.5468 50.0224 41.3161 50.2173 38.4303C50.4197 35.4321 50.4646 32.2164 50.3522 28.3112C50.2997 26.6397 50.2248 24.9757 50.1423 23.3041C50.1048 22.6145 50.0823 21.9174 50.0599 21.2203L50.0524 21.0105C49.9774 18.8367 49.895 16.3782 49.3403 14.0395C48.9505 12.398 48.4033 11.0863 47.6763 10.0219C46.8217 8.78509 45.6824 7.87062 44.4531 7.45836C43.6061 7.17353 42.6617 7.09857 41.7397 7.02362C39.1837 6.82123 36.4328 6.62635 33.6594 6.52141C33.1572 6.50642 32.6475 6.49892 32.1378 6.49892Z" fill="#010101"/>
<path d="M31.4033 57.8515C30.0691 57.8515 28.7274 57.8215 27.3931 57.754C26.1863 57.6941 24.9646 57.5666 23.7802 57.4392C22.5884 57.3118 21.3591 57.1769 20.1598 57.1244L18.8181 57.0719C16.8318 56.997 14.778 56.922 12.7542 56.5922C11.4724 56.3823 10.1157 56.09 8.93139 55.3779C8.07689 54.8607 7.38729 54.1786 6.72018 53.519L4.18665 51.008C3.56451 50.3933 2.91989 49.7562 2.44017 48.9617C1.878 48.0172 1.60815 46.9753 1.42076 46.0758C0.753651 42.8902 0.716175 39.6446 0.77614 36.6088C0.806122 34.7274 0.648713 32.8236 0.491306 30.9796C0.393861 29.8928 0.303917 28.7984 0.243951 27.704C0.109029 24.9606 0.0265766 22.1723 0.00409116 19.4289C-0.0258933 16.1083 0.0715497 12.6153 1.59316 9.60208C3.00234 6.79871 5.67829 4.45258 9.11878 2.99843C12.3494 1.63422 15.8349 1.17699 18.8181 0.907144C19.8375 0.809701 20.8644 0.712259 21.8838 0.614814C24.0051 0.404937 26.2013 0.195059 28.3751 0.0526436C30.5788 -0.0897739 32.8649 0.0826225 35.0687 0.262518C35.9981 0.32998 36.9126 0.404936 37.8121 0.457406C41.5749 0.659789 45.8399 0.884657 49.4678 2.85601C53.1032 4.82736 55.7341 8.44026 56.4837 12.5179C56.851 14.4817 56.896 16.4756 56.896 17.9897C56.9034 18.7767 56.8885 19.5563 56.8735 20.3358C56.8585 21.1004 56.851 21.8649 56.851 22.6145C56.851 24.346 56.896 26.0925 56.9409 27.8465C57.0384 31.6168 57.1433 35.522 56.776 39.2848C56.4537 42.6278 55.7566 45.9334 54.7072 49.0966C54.4524 49.8461 54.1675 50.6332 53.6578 51.3228C53.1181 52.0573 52.3761 52.597 51.724 53.0768C50.0524 54.291 48.3209 55.5428 46.3046 56.2699C44.9104 56.7721 43.4263 56.9895 42.1445 57.1544C38.5916 57.6191 34.9937 57.8515 31.4033 57.8515ZM30.0691 1.34189C29.5294 1.34189 28.9897 1.35688 28.4575 1.39436C26.3063 1.52928 24.125 1.74665 22.0113 1.94904C20.9844 2.05397 19.965 2.15142 18.9381 2.24886C16.0597 2.50371 12.7017 2.94596 9.64347 4.23521C6.49531 5.56943 4.05923 7.6832 2.79246 10.2092C1.40577 12.9526 1.31583 16.1308 1.34581 19.4139C1.3683 22.1423 1.45075 24.9082 1.58567 27.6291C1.64563 28.7159 1.73558 29.7878 1.82553 30.8672C1.99043 32.7411 2.15534 34.6825 2.11786 36.6313C2.05789 39.5846 2.09537 42.7478 2.7325 45.7985C2.8974 46.5855 3.12977 47.5 3.5945 48.2646C3.98427 48.9167 4.56893 49.4938 5.1311 50.0485L7.66463 52.5596C8.27177 53.1592 8.9089 53.7888 9.62848 54.2236C10.6179 54.8157 11.8172 55.0706 12.9715 55.2655C14.9129 55.5803 16.9217 55.6553 18.8706 55.7302L20.2198 55.7827C21.4641 55.8351 22.7159 55.9701 23.9302 56.0975C25.092 56.2249 26.2913 56.3523 27.4606 56.4123C32.2953 56.6447 37.1749 56.4423 41.9721 55.8202C43.1864 55.6627 44.5881 55.4604 45.8549 55.0031C47.6913 54.3435 49.3404 53.1442 50.9369 51.9899C51.5366 51.5476 52.1587 51.0979 52.586 50.5282C52.9757 49.996 53.2156 49.3139 53.433 48.6693C54.4524 45.6036 55.1345 42.403 55.4418 39.1574C55.8016 35.4695 55.6966 31.6168 55.5992 27.8839C55.5542 26.115 55.5093 24.3535 55.5093 22.6145C55.5093 21.8574 55.5242 21.0854 55.5317 20.3133C55.5467 19.5413 55.5617 18.7692 55.5617 17.9897C55.5617 16.528 55.5168 14.6167 55.172 12.7577C54.4973 9.12985 52.0688 5.7868 48.8306 4.03282C45.4726 2.21139 41.365 1.98652 37.7446 1.79163C36.8301 1.74666 35.9082 1.6717 34.9712 1.59674C33.3447 1.46932 31.6881 1.34189 30.0691 1.34189Z" fill="#010101"/>
<path d="M44.4157 11.9406C43.3963 11.0936 41.8072 10.9512 40.5779 11.7232C39.6484 12.3079 39.4386 13.6796 39.9483 14.654C40.8103 16.288 43.816 17.3899 45.0153 15.561C45.4201 14.9463 45.5175 14.1668 45.3526 13.4547C45.1952 12.8251 44.8579 12.3154 44.4157 11.9406Z" fill="#252525"/>
<path d="M43.1639 17.1805C43.104 17.1805 43.0365 17.1805 42.9766 17.1805C41.5149 17.1055 39.9858 16.1761 39.3562 14.9618C38.6441 13.6126 39.0338 11.9111 40.2182 11.154C41.6573 10.247 43.5612 10.3595 44.843 11.4238C45.4201 11.9111 45.8249 12.5557 45.9973 13.2978C46.2222 14.2272 46.0648 15.1867 45.5775 15.9287C45.0453 16.7382 44.1908 17.1805 43.1639 17.1805ZM42.3544 11.8886C41.8597 11.8886 41.365 12.0235 40.9377 12.2933C40.3531 12.6606 40.1657 13.6201 40.5405 14.3396C40.9602 15.1267 42.0546 15.7863 43.044 15.8313C43.6587 15.8538 44.1534 15.6514 44.4607 15.1941C44.738 14.7594 44.828 14.1672 44.6931 13.6126C44.5881 13.1553 44.3408 12.7506 43.981 12.4582C43.5312 12.0835 42.9466 11.8886 42.3544 11.8886Z" fill="#010101"/>
<path d="M29.0422 42.1185C26.756 42.1185 24.3349 42.4034 22.386 41.3465C21.2467 40.7244 20.3997 40.1397 19.7926 39.5925C19.5527 39.3826 18.7806 38.693 18.6008 38.5806C15.3626 36.5493 14.5231 31.6771 14.6431 28.6039C14.7105 26.7225 15.3327 25.2009 15.7824 24.0841C16.397 22.5624 17.244 20.4712 18.983 18.7022C20.9019 16.7458 23.5254 15.5615 26.5611 15.2917C27.7529 15.1792 28.9897 15.2167 30.2115 15.3966C32.8874 15.7789 35.3535 16.7608 37.3173 18.2375C39.7759 20.0739 41.4774 22.6449 42.0921 25.4707C43.1939 30.5453 41.1851 36.2645 37.2124 39.3751C34.9562 41.1441 32.0554 42.1185 29.0422 42.1185ZM28.2551 20.2013C27.9403 20.2013 27.3482 20.3962 27.0258 20.4262C25.047 20.6061 24.0576 20.6211 22.8883 21.8129C21.7564 22.9672 21.1942 24.4663 20.662 25.7781C20.2948 26.685 19.5602 27.8019 19.5227 28.9112C19.4553 30.7402 20.4372 32.6441 22.1237 33.7009C22.551 33.9708 22.6709 34.6304 23.0681 34.9902C23.5779 35.4474 24.3499 35.5973 25.0245 35.9646C28.0228 37.5912 31.4183 37.3663 34.0268 35.32C36.6352 33.2812 37.7821 29.9381 37.0475 26.5726C36.6577 24.7886 35.9606 23.1996 34.3566 22.0003C32.9774 20.9734 31.4258 20.786 29.4694 20.5011C28.9147 20.4187 28.8023 20.2013 28.2551 20.2013Z" fill="#252525"/>
<path d="M29.0422 37.6359C27.5431 37.6359 26.0364 37.2761 24.7022 36.5565C24.0351 36.1967 23.5029 35.717 22.9932 35.2597C22.5884 34.8925 22.1987 34.5402 21.7714 34.2703C20.0999 33.2284 19.058 30.59 19.1255 28.776C19.1629 27.6891 19.5752 26.6697 19.935 25.7778C20.4672 24.466 21.0743 22.9744 22.1837 21.8426C23.3455 20.6582 25.002 19.9387 26.9659 19.7588C27.8129 19.6838 28.6824 19.7063 29.5669 19.8337C31.5083 20.1186 33.2622 20.8082 34.6339 21.8351C36.2305 23.0194 37.3174 24.6534 37.7071 26.4299C38.4342 29.7729 37.0325 33.8206 34.4465 35.8444C32.9399 37.0287 30.9985 37.6359 29.0422 37.6359ZM27.0858 21.1005C25.939 21.1979 24.3274 21.5802 23.1431 22.7795C22.2212 23.7315 21.689 25.0282 21.1868 26.28C20.8495 27.112 20.4972 27.974 20.4672 28.8285C20.4147 30.2002 21.2842 32.3814 22.4835 33.1385C23.0157 33.4683 23.4579 33.873 23.8927 34.2628C24.3649 34.6901 24.8147 35.0873 25.3393 35.3722C27.9178 36.7739 31.3958 36.5265 33.6145 34.7875C35.8257 33.0635 37.0175 29.5855 36.3954 26.7147C36.0806 25.2756 35.1436 23.8889 33.8319 22.9069C32.6326 22.015 31.096 21.4153 29.372 21.1679C28.5925 21.0555 27.8279 21.033 27.0858 21.1005Z" fill="#010101"/>
<path d="M28.3151 43.1678C26.0289 43.1678 23.8102 42.718 21.8089 41.8261C18.0236 40.1395 15.2502 37.0513 14.3807 33.5659C13.7136 30.8899 14.1633 28.184 14.6281 26.1152C15.0104 24.4437 15.64 22.0001 16.7269 20.1712C17.6638 18.5896 18.9306 17.1954 20.3922 16.1385C21.3367 15.4564 22.3111 14.9467 23.2855 14.6244C23.293 14.6244 23.413 14.5794 23.4205 14.5794C26.2163 13.7025 29.297 14.2496 31.7631 14.6844C35.0387 15.269 38.4417 17.8026 40.3756 20.0662C40.8928 20.6809 41.2676 21.2206 41.5374 21.7603C42.1146 22.9146 42.2795 24.1813 42.3769 25.3881C42.6468 28.8136 42.3544 31.7444 41.4774 34.3454C40.0907 38.4455 37.4598 41.2039 33.8544 42.3133C32.0105 42.883 30.1365 43.1678 28.3151 43.1678ZM23.6228 15.2241L23.7128 15.8987C22.8658 16.176 22.0113 16.6257 21.1718 17.2254C19.86 18.1773 18.7207 19.4291 17.8812 20.8533C16.8918 22.5248 16.2996 24.826 15.9398 26.415C15.5051 28.3339 15.0853 30.845 15.685 33.2361C16.4495 36.3318 18.9456 39.0827 22.3561 40.5968C25.6542 42.0734 29.5969 42.2233 33.4571 41.0315C37.4673 39.7948 39.3412 36.4742 40.2032 33.9182C41.0202 31.4896 41.2975 28.7387 41.0352 25.4931C40.9527 24.4287 40.8103 23.3044 40.3306 22.3599C40.1132 21.9177 39.7984 21.4679 39.3487 20.9357C37.6397 18.9269 34.454 16.5283 31.5307 16.0111C29.0797 15.5764 26.3063 15.0816 23.8252 15.8612L23.6228 15.2241ZM23.6228 15.2241H23.6378H23.6228Z" fill="#010101"/>
<path d="M103.179 55.8571L103.177 55.857C101.157 55.7381 99.1567 55.6242 97.177 55.5294C97.1423 55.5278 97.107 55.5262 97.0712 55.5246C95.4966 55.4523 92.8479 55.3308 90.7856 53.8037L90.7816 53.8008C88.7781 52.3071 87.6785 49.7537 87.5235 46.9607C87.4298 45.3281 87.637 43.7293 87.8181 42.3317L87.8224 42.2984L87.8229 42.2942L87.8299 42.2391C87.8989 41.6949 87.9646 41.1767 88.0173 40.6565C88.1997 38.8259 88.2894 36.173 88.2519 33.5539L88.2518 33.5462L88.2518 33.5386C88.2425 31.2595 88.0847 28.8068 87.9275 26.3791L87.9275 26.3786C87.7715 23.9557 87.6068 21.3924 87.597 18.974C87.5876 17.7151 87.5801 16.2995 87.7718 14.88L87.7722 14.8769C88.0499 12.8532 88.7298 10.8629 89.7487 9.10283L103.179 55.8571ZM103.179 55.8571L103.361 55.8676C107.927 56.1305 112.648 56.4023 117.31 56.4023C119.353 56.4023 121.39 56.3493 123.403 56.2282L123.403 56.2283L123.415 56.2274C124.023 56.1859 124.695 56.1532 125.394 56.1198L103.179 55.8571ZM91.8117 18.9545C91.8117 18.9546 91.8117 18.9547 91.8117 18.9548C91.821 21.229 91.9788 23.6815 92.136 26.1091L92.136 26.1097C92.2918 28.5309 92.4564 31.0924 92.4664 33.5093C92.5046 36.2324 92.4141 39.0597 92.2124 41.079L91.8117 18.9545ZM91.8117 18.9545L91.8115 18.911C91.8067 17.6746 91.8023 16.5278 91.9498 15.4452L91.8117 18.9545ZM129.061 55.8911C131.515 55.6625 133.543 54.9482 135.076 53.5715C136.343 52.4351 137.087 50.9682 137.494 50.0875C137.494 50.0867 137.495 50.0859 137.495 50.0852L136.394 49.5768C136.395 49.5745 136.396 49.5723 136.397 49.5701C137.033 48.2118 137.458 46.8547 137.662 45.5392C137.662 45.5391 137.662 45.539 137.663 45.5388C137.663 45.5376 137.663 45.5364 137.663 45.5353L137.664 45.5297C137.852 44.2852 137.847 42.9965 137.842 41.8779L137.842 41.8336L137.842 41.8333L137.842 41.8286L137.842 41.827C137.833 40.0059 137.74 38.2037 137.652 36.4945L137.646 36.3741L137.646 36.3738L137.646 36.3736L137.638 36.2217C137.521 33.9462 137.404 31.665 137.476 29.3519L138.686 29.3882C138.686 29.3881 138.686 29.388 138.686 29.3879L129.061 55.8911ZM124.367 4.04597C124.262 4.0628 124.158 4.07959 124.054 4.09627C123.356 4.20861 122.689 4.31603 122.029 4.39944C117.984 4.882 113.604 4.71874 109.232 4.54652L109.184 5.765L109.232 4.54652C106.699 4.44679 104.03 4.34487 101.482 4.38366L101.475 4.3838C101.113 4.391 100.732 4.38345 100.307 4.37503C100.214 4.37319 100.119 4.37131 100.022 4.36954L99.9925 4.36886C98.9748 4.34558 97.7793 4.31824 96.6114 4.44251C95.4277 4.56845 94.1585 4.85935 93.0277 5.55018C91.7096 6.35245 90.6438 7.55512 89.749 9.10221L124.367 4.04597ZM91.2517 33.5187C91.2417 31.1355 91.0772 28.5936 90.9214 26.1879C90.9214 26.1878 90.9214 26.1878 90.9214 26.1878C90.9214 26.1871 90.9213 26.1865 90.9213 26.1859L91.2517 33.5187ZM134.087 10.9435C134.534 17.0406 134.666 23.033 134.478 29.2584L132.248 8.23459C133.239 8.65784 133.763 9.27505 133.927 9.78306C134.014 10.0589 134.045 10.414 134.087 10.9435ZM134.478 29.2588C134.402 31.6975 134.524 34.0867 134.639 36.331L134.65 36.5275L134.65 36.5277L134.654 36.6217C134.743 38.3493 134.833 40.0913 134.842 41.8417C134.847 43.0143 134.848 44.0849 134.698 45.0773C134.542 46.0821 134.209 47.1687 133.679 48.3017L133.676 48.3078C133.172 49.3964 132.718 50.0251 132.267 50.4285L132.264 50.4313C131.575 51.0517 130.469 51.5213 128.68 51.6853L128.673 51.6859C127.629 51.7866 126.413 51.847 125.202 51.9044C124.495 51.9377 123.798 51.9714 123.148 52.0101L123.142 52.0105C116.753 52.4132 110.032 52.0253 103.423 51.6434L103.243 51.6328C101.28 51.5175 99.3184 51.4023 97.3737 51.314C95.3877 51.2204 94.1585 51.0524 93.2989 50.4136L93.2988 50.4136C92.5078 49.8258 91.8323 48.5645 91.7336 46.729L91.7335 46.7265C91.6665 45.5161 91.8156 44.2904 92.003 42.8389C92.0797 42.2616 92.1531 41.6731 92.2123 41.0794L134.478 29.2588ZM125.051 8.20623C128.021 7.71786 130.263 7.38934 132.247 8.23426L91.9498 15.4452C92.1513 13.9672 92.6521 12.5025 93.3931 11.2208C94.0189 10.1468 94.6259 9.51702 95.2273 9.14821C95.9452 8.71051 97.1147 8.56411 98.6675 8.56411C98.9241 8.56411 99.1556 8.56879 99.4007 8.57374C99.5696 8.57716 99.745 8.5807 99.9394 8.58293C100.482 8.5972 101.021 8.60711 101.538 8.60212L101.538 8.60217L101.55 8.60197C103.955 8.56028 106.503 8.66117 109.02 8.76087L109.071 8.76287L109.072 8.76291L109.112 8.7645C113.474 8.93446 118.131 9.1159 122.537 8.58211C123.289 8.49378 124.044 8.37052 124.763 8.25303C124.859 8.23746 124.954 8.22199 125.048 8.20672L125.051 8.20623Z" fill="#010101" stroke="black" stroke-width="3"/>
<path d="M113.997 26.1362C111.932 25.8941 109.536 25.7005 107.6 24.941C105.659 24.1777 103.346 22.3346 102.435 20.4766C101.481 22.841 102.382 26.2963 104.311 27.9867C103.478 27.8862 102.254 27.4766 101.481 27.1601C101.734 29.4984 103.942 31.792 106.236 32.4213C105.162 32.8271 103.553 33.0059 102.408 32.8979C103.44 33.9069 104.929 34.9085 106.198 35.5973C106.997 36.0293 108.067 36.2787 108.963 36.4388C108.572 36.9154 107.724 37.1165 107.117 37.2431C105.271 37.634 103.425 38.2149 101.579 38.6059C104.714 39.9426 108.602 40.8957 111.977 40.3819C115.357 39.8681 118.597 38.1367 120.597 35.4C121.497 34.1713 122.13 32.775 122.684 31.3601C123.374 29.5989 123.95 27.7819 124.104 25.9016C124.119 25.7266 124.135 25.5404 124.225 25.3878C124.334 25.2016 124.538 25.0936 124.726 24.9856C125.596 24.4904 126.421 23.7197 126.516 22.7293C125.777 22.9154 125.039 23.1016 124.3 23.2878C124.847 22.7144 125.125 22.0032 125.536 21.3293C124.798 21.4745 124.176 22.1186 123.336 22.0516C122.812 22.0069 122.39 21.6309 121.953 21.3479C120.367 20.3165 118.152 20.4505 116.585 21.508C115.018 22.5654 114.079 24.2596 113.997 26.1362Z" fill="#010101"/>
<path d="M110.007 41C106.56 41 103.237 39.8309 101.387 39.0415C101.195 38.9596 101.078 38.766 101.101 38.5574C101.12 38.3527 101.274 38.1814 101.478 38.1404C102.389 37.9468 103.324 37.7011 104.228 37.4628C105.14 37.2245 106.085 36.975 107.019 36.7777C107.174 36.7442 107.392 36.6995 107.622 36.6362C106.955 36.4574 106.409 36.2527 105.968 36.0144C104.48 35.2101 103.026 34.1713 102.073 33.2404C101.926 33.0952 101.888 32.8793 101.975 32.6968C102.062 32.5181 102.246 32.4176 102.457 32.425C103.139 32.492 103.964 32.4473 104.725 32.3207C102.759 31.2559 101.221 29.2266 101.003 27.2122C100.984 27.0447 101.056 26.8771 101.191 26.7766C101.331 26.6761 101.512 26.6537 101.666 26.7207C102.039 26.8734 102.506 27.041 102.973 27.1862C101.621 25.2128 101.154 22.3644 101.986 20.2979C102.058 20.1229 102.227 20.0074 102.416 20C102.634 20 102.785 20.0968 102.868 20.2681C103.67 21.8952 105.78 23.7122 107.78 24.4979C109.423 25.142 111.484 25.3729 113.3 25.5777L113.56 25.6074C113.782 23.7755 114.769 22.1559 116.317 21.1133C118.092 19.9144 120.522 19.8473 122.221 20.9495C122.315 21.009 122.409 21.0761 122.503 21.1394C122.808 21.3516 123.095 21.5527 123.381 21.575C123.735 21.6011 124.074 21.4372 124.462 21.2436C124.767 21.091 125.084 20.9309 125.449 20.8601C125.634 20.8266 125.826 20.9011 125.935 21.0537C126.045 21.2101 126.052 21.4149 125.954 21.575C125.83 21.7761 125.721 21.9809 125.611 22.1819C125.555 22.2899 125.495 22.4016 125.434 22.5096L126.399 22.2676C126.553 22.2266 126.711 22.2638 126.832 22.3644C126.953 22.4649 127.013 22.6176 126.998 22.7702C126.904 23.7755 126.18 24.7064 124.967 25.3989C124.816 25.4846 124.681 25.5628 124.643 25.6261C124.609 25.6856 124.598 25.8122 124.59 25.9277C124.41 28.0574 123.72 30.0383 123.136 31.5277C122.631 32.8197 121.98 34.3239 120.989 35.6793C118.992 38.4085 115.737 40.2926 112.053 40.8511C111.371 40.9553 110.685 41 110.007 41ZM103.177 38.7213C105.448 39.5404 108.76 40.3894 111.906 39.9128C115.338 39.3915 118.363 37.6452 120.205 35.1207C121.132 33.8548 121.754 32.4213 122.236 31.1851C122.797 29.7553 123.46 27.8601 123.626 25.8644C123.645 25.6447 123.667 25.3915 123.807 25.1457C123.976 24.8628 124.24 24.7138 124.451 24.591C124.865 24.3564 125.453 23.9543 125.788 23.4032L124.421 23.7495C124.214 23.8016 123.995 23.7085 123.886 23.5261C123.777 23.3436 123.803 23.1128 123.954 22.9564C124.138 22.7665 124.293 22.5468 124.432 22.316C124.101 22.4537 123.731 22.5617 123.298 22.5245C122.752 22.4798 122.322 22.1819 121.946 21.9213C121.863 21.858 121.776 21.8021 121.693 21.7463C120.311 20.8489 118.322 20.916 116.856 21.9027C115.424 22.8707 114.554 24.4197 114.479 26.1548C114.475 26.2888 114.415 26.4117 114.313 26.4973C114.211 26.583 114.076 26.6314 113.944 26.609L113.19 26.5234C111.314 26.3112 109.186 26.0729 107.423 25.384C105.818 24.7548 103.817 23.3473 102.604 21.6755C102.284 23.7309 103.101 26.2888 104.631 27.6293C104.789 27.767 104.834 27.9904 104.751 28.1803C104.665 28.3702 104.465 28.4931 104.25 28.4559C103.651 28.3851 102.853 28.1617 102.133 27.9122C102.702 29.7181 104.45 31.4346 106.368 31.9633C106.567 32.0154 106.711 32.1941 106.718 32.3989C106.729 32.6037 106.605 32.7936 106.409 32.8644C105.667 33.1473 104.665 33.3335 103.7 33.3894C104.495 34.0186 105.456 34.6479 106.432 35.1766C107.031 35.5005 107.886 35.7612 109.05 35.9734C109.22 36.0032 109.359 36.1186 109.415 36.275C109.476 36.4314 109.446 36.6101 109.34 36.7404C108.865 37.3213 107.995 37.5447 107.219 37.7085C106.311 37.9021 105.377 38.1479 104.476 38.3862C104.047 38.4979 103.614 38.6096 103.177 38.7213Z" fill="#010101"/>
</svg>
