<?xml version="1.0" encoding="utf-8"?>
<!-- Generator: Adobe Illustrator 25.2.2, SVG Export Plug-In . SVG Version: 6.00 Build 0)  -->
<svg version="1.1" id="Calque_1" xmlns="http://www.w3.org/2000/svg" xmlns:xlink="http://www.w3.org/1999/xlink" x="0px" y="0px"
	 viewBox="0 0 941.68 130.22" style="enable-background:new 0 0 941.68 130.22;" xml:space="preserve">
<style type="text/css">
	.st0{fill:#FB88D4;}
	.st1{fill:#FEFCFD;}
</style>
<path class="st0" d="M339.63,69.67c12.88,0.78,25.77,0.69,38.66,0.55c2.53-0.03,3.53,1.16,3.47,3.42
	c-0.13,4.89-0.11,9.81-0.68,14.66c-0.49,4.24-0.56,8.51-0.73,12.73c-0.33,8.15-0.96,16.3-0.71,24.48c0.1,3.21-0.73,3.93-3.95,4.2
	c-11.8,0.98-23.54,0.08-35.29-1.01c-4.69-0.44-9.42-0.03-14.13-0.59c-3.28-0.39-3.87-0.69-3.83-3.88c0.06-4.71-0.03-9.42,0.34-14.14
	c0.32-4.13-0.3-8.32-0.28-12.49c0.04-8.23,0.16-16.45-0.48-24.66c-0.13-1.7,0.84-2.69,2.66-2.69
	C329.66,70.22,334.62,69.34,339.63,69.67z M360.36,125.89c4.9,0,8.54-0.15,12.16,0.05c2.56,0.14,3.49-0.55,3.34-3.27
	c-0.42-7.79,0.36-15.58,0.66-23.36c0.3-7.77,0.91-15.52,1.46-23.27c0.12-1.68-0.67-1.97-2.09-1.94c-3.09,0.07-6.17-0.03-9.26,0.04
	c-12.16,0.28-24.29-1-36.45-0.58c-3.87,0.13-4.02,0.18-3.97,3.93c0.15,11.14,0.38,22.27,0.47,33.41c0.03,3.71-0.27,7.42-0.43,11.13
	c-0.07,1.77,0.63,2.78,2.53,2.7C339.76,124.28,350.65,126.44,360.36,125.89z"/>
<path class="st0" d="M49.44,129.62c-13.69-0.29-27.33-1.51-41-2.14c-2-0.09-2.75-1.27-2.72-3.01c0.09-4.8-0.1-9.6,0.3-14.42
	c0.31-3.86-0.28-7.78-0.25-11.67C5.83,89.7,5.94,81.03,5.3,72.36c-0.17-2.33,1.56-2.6,3.49-2.72c8.88-0.53,17.74-0.5,26.64-0.06
	c8.61,0.43,17.26,0.11,25.88,0.13c2.96,0.01,3.85,0.71,3.71,3.67c-0.4,8.59-1.08,17.17-1.44,25.76c-0.35,8.43-0.46,16.86-0.63,25.3
	c-0.08,3.84-0.56,4.3-4.27,4.77C55.59,129.59,52.52,129.56,49.44,129.62z M43.32,125.35c5.04,0,8.77-0.15,12.48,0.05
	c2.56,0.14,3.48-0.55,3.34-3.27c-0.41-7.79,0.38-15.57,0.66-23.35c0.28-7.76,0.93-15.51,1.45-23.26c0.09-1.36-0.3-2-1.79-1.96
	c-15.6,0.47-31.18-0.83-46.78-0.54c-2.23,0.04-3.34,0.66-3.28,3.33c0.31,12.5,0.41,25.01,0.51,37.52c0.02,2.62-0.23,5.24-0.4,7.86
	c-0.11,1.67,0.44,2.55,2.29,2.48C22.78,123.73,33.66,125.87,43.32,125.35z"/>
<path class="st0" d="M0.19,51.4c-0.01-6.6-0.37-13.2-0.06-19.82c0.38-8.14,1.55-16.24,1.2-24.42C1.22,4.54,3.12,3.78,5.35,3.84
	c4.17,0.12,8.34,0.24,12.49,0.56c9.13,0.71,18.28,1.1,27.44,0.97c3.98-0.06,7.96,0.15,11.91-0.77c2.21-0.51,3.16,1.21,2.84,2.91
	c-0.68,3.61,0.51,7.2-0.28,10.81c-0.5,2.29,0.43,4.72,0.28,7.02c-0.74,11.05,0.05,22.13-0.94,33.17c-0.21,2.33-1.07,3.62-3.9,3.71
	c-9.05,0.28-18.09,1.31-27.13,1.32c-8.22,0.01-16.44-0.89-24.66-1.45c-1.97-0.13-3.17-1.26-3.2-3.34C0.17,56.31,0.2,53.86,0.19,51.4
	z M4.02,40.62c0,5.89,0.01,10.97-0.01,16.05C4,57.86,4.05,58.77,5.67,58.8c11.39,0.24,22.77,1.82,34.16,0.46
	c3.72-0.44,7.42-0.31,11.13-0.49c4.28-0.21,4.23-0.23,4.33-4.22c0.05-1.89,0.42-3.78,0.45-5.67c0.22-12.12,0.31-24.24,0.63-36.35
	c0.07-2.74-0.59-3.5-3.43-3.42c-7.43,0.21-14.88,0.16-22.32-0.1c-7.86-0.27-15.71-0.9-23.56-1.39c-1.31-0.08-2,0.27-1.98,1.79
	C5.17,20.09,3.27,30.71,4.02,40.62z"/>
<path class="st0" d="M380.08,48.75c0.42-12.67,0.81-25.35,1.29-38.02c0.08-2.06,0.6-4.08,0.21-6.2c-0.27-1.48,0.68-2.49,2.26-2.32
	c11.75,1.21,23.56-0.11,35.33,0.83c5.64,0.45,11.34,1.38,17.07,0.34c2.04-0.37,3.49,0.62,3.37,3.1c-0.17,3.43,0.04,6.86-0.45,10.31
	c-0.59,4.14,0.24,8.31,0.41,12.47c0.36,8.71-0.76,17.38-0.61,26.09c0.06,3.62-1.5,5.08-5.24,5.19c-16.68,0.5-33.36-0.49-50.04-0.11
	c-2.52,0.06-3.69-0.88-3.55-3.52c0.15-2.71,0.03-5.44,0.03-8.17C380.13,48.75,380.1,48.75,380.08,48.75z M384.03,46.56
	c0,3.22,0.14,5.41-0.04,7.57c-0.18,2.13,0.68,2.57,2.64,2.55c10.44-0.08,20.88,0.07,31.31-0.06c3.61-0.05,7.18,1.11,10.82,0.15
	c1.72-0.45,3.76,0.48,5.31-0.56c2.02-1.36,0.43-3.54,0.67-5.34c0.62-4.66,1.08-9.35,0.98-14.05c-0.1-4.71-0.1-9.42-0.23-14.12
	c-0.12-4.31,0.19-8.68,0.32-13.03c0.04-1.2-0.04-2.17-1.67-2.09c-8.35,0.43-16.61-1.09-24.95-1.13c-6.94-0.03-13.91,0.41-20.83-0.46
	c-2.48-0.31-3.18,0.93-3.24,3.07C384.75,21.89,384.37,34.74,384.03,46.56z"/>
<path class="st0" d="M550.99,60.45c-11.88-0.57-23.77-0.51-35.66-0.6c-4.02-0.03-4.37-0.47-4.35-4.39
	c0.02-6.89-0.45-13.81-0.26-20.67c0.25-8.98,0.11-17.96,0.23-26.93c0.09-6.49,0.65-6.8,7.25-6c5.2,0.63,10.49,0.71,15.74,0.78
	c8.63,0.11,17.26,0.05,25.89-0.02c2.17-0.02,4.33-0.3,6.49-0.52c2.5-0.26,3.62,1.1,3.55,3.34c-0.16,5.16-0.4,10.32-0.81,15.46
	c-0.13,1.63-0.21,3.25-0.24,4.88c-0.19,10.25-0.38,20.5-0.5,30.75c-0.02,2.07-0.71,3.24-2.92,3.4
	C560.59,60.26,555.8,60.65,550.99,60.45z M527.9,56.09c0,0.02,0,0.04,0,0.06c2.36,0,4.72-0.04,7.09,0.01
	c8.87,0.18,17.74,0.98,26.63,0.03c2.24-0.24,2.86-0.96,2.88-3.15c0.06-9.34,0.3-18.69,0.5-28.03c0.02-0.81,0.29-1.61,0.33-2.41
	c0.28-4.97,0.52-9.94,0.78-14.92c0.05-1.05-0.11-1.73-1.49-1.55c-5.33,0.71-10.69,0.34-16.04,0.38
	c-10.61,0.08-21.22-0.16-31.79-1.09c-1.89-0.17-2.6,0.4-2.47,2.37c0.27,3.79,0.45,7.6,0.47,11.41c0.07,11.41,0.12,22.83,0.01,34.24
	c-0.02,2.24,0.67,2.78,2.75,2.69C520.99,55.98,524.45,56.09,527.9,56.09z"/>
<path class="st0" d="M444.97,46.89c0.75-13.59,0.63-27.19,0.59-40.79c-0.01-2.64,1.2-3.55,3.69-3.42
	c8.51,0.46,17.04,0.97,25.55,0.44c8.05-0.51,16.13,0,24.17-0.89c3.23-0.36,4.1,0.8,4.04,4.01c-0.2,10.33-0.5,20.65,0.22,30.98
	c0.38,5.42,0.14,10.88,0.18,16.33c0,0.54-0.04,1.09,0.02,1.63c0.47,4.31-0.32,5.23-4.72,5.16c-2.99-0.05-5.97-0.38-8.95-0.36
	c-5.52,0.04-11.04,0.13-16.57,0.33c-8.14,0.29-16.3-0.22-24.45-0.49c-3.32-0.11-3.94-1.08-3.79-4.48
	C445.07,52.52,444.97,49.7,444.97,46.89z M499.55,21.31c-0.16,0-0.31,0-0.47,0c0-4.26-0.19-8.54,0.09-12.78
	c0.12-1.8-0.18-2.18-1.86-2.1c-5.97,0.27-11.95,0.13-17.93,0.46c-8.87,0.49-17.77,0.22-26.63-0.44c-2.81-0.21-3.48,0.69-3.42,3.42
	c0.17,8.34,0.3,16.7-0.08,25.03c-0.29,6.34-0.27,12.68-0.42,19.01c-0.04,1.65,0.47,2.21,2.15,2.17c4.34-0.1,8.68,0.12,13.02,0.46
	c7.24,0.58,14.47-0.73,21.73-0.48c3.72,0.13,7.45-0.07,11.16,0.1c2.19,0.1,2.73-0.7,2.71-2.79C499.5,42.69,499.55,32,499.55,21.31z"
	/>
<path class="st0" d="M482.1,128.02c-9.53-0.32-20.94,0.75-32.37,0.56c-3.72-0.06-4.06-0.48-4.21-4.28
	c-0.51-13.22,0.86-26.41,0.78-39.63c-0.03-4.14,0.46-8.3,0.13-12.46c-0.14-1.78,1.04-1.99,2.49-1.98
	c11.07,0.05,22.14,0.07,33.22,0.08c6.17,0.01,12.34-0.05,18.51-0.03c3.24,0.01,3.9,0.6,3.79,3.81c-0.39,12.05-0.36,24.11-0.77,36.15
	c-0.17,4.86,0.54,9.72-0.18,14.6c-0.36,2.47-1.38,3.24-3.7,3.2C494.53,127.96,489.27,128.02,482.1,128.02z M483.19,124.78
	c0-0.2,0-0.4,0-0.6c4.9,0,9.8-0.05,14.7,0.03c1.63,0.03,2.2-0.44,2.2-2.14c0.07-15.23-0.45-30.47,0.56-45.69
	c0.12-1.83-0.58-2.23-2.31-2.32c-5.97-0.32-11.9,0.46-17.89,0.16c-9.15-0.45-18.33-0.1-27.5-0.2c-1.84-0.02-2.5,0.43-2.51,2.4
	c-0.07,8.07-0.33,16.13-0.53,24.19c-0.02,0.63-0.09,1.27-0.11,1.9c-0.21,6.49-1.14,12.93-0.61,19.48c0.21,2.61,1.17,2.83,3.28,2.82
	C462.71,124.73,472.95,124.78,483.19,124.78z"/>
<path class="st0" d="M158.32,69.73c8.53,0,17.06-0.01,25.6,0.01c3.31,0.01,3.94,0.5,3.79,3.75c-0.55,12.14-0.26,24.31-0.77,36.43
	c-0.2,4.78,0.56,9.54-0.17,14.33c-0.37,2.43-1.31,3.27-3.66,3.25c-7.72-0.06-15.43-0.05-23.15,0.03c-9.07,0.1-18.13,0.35-27.2,0.48
	c-3.38,0.05-3.83-0.55-3.97-3.95c-0.54-13.32,0.86-26.6,0.77-39.91c-0.03-4.14,0.46-8.3,0.14-12.46c-0.16-2.04,1.29-2,2.74-1.99
	c8.62,0.02,17.25,0.01,25.87,0.01C158.32,69.72,158.32,69.73,158.32,69.73z M166.26,124.23c0-0.2,0-0.4,0-0.6
	c4.9,0,9.8-0.05,14.7,0.03c1.67,0.03,2.4-0.31,2.41-2.22c0.04-15.14-0.44-30.29,0.55-45.41c0.12-1.86-0.44-2.43-2.38-2.53
	c-5.79-0.29-11.54,0.44-17.35,0.18c-9.42-0.43-18.87-0.11-28.31-0.19c-1.7-0.02-2.13,0.56-2.16,2.19
	c-0.11,7.97-0.34,15.95-0.54,23.92c-0.02,0.73-0.06,1.45-0.09,2.17c-0.27,6.58-1.24,13.11-0.62,19.75c0.22,2.36,0.95,2.77,3.06,2.75
	C145.78,124.18,156.02,124.23,166.26,124.23z"/>
<path class="st0" d="M665.43,60.5c-6.27,0.35-15.04-0.65-23.84-0.64c-1.98,0-3.96-0.31-5.94-0.48c-1.77-0.15-2-1.42-1.81-2.75
	c0.75-5.15,0.39-10.32,0.31-15.48c-0.16-9.62,0.59-19.2,0.71-28.81c0.04-2.87,0.39-5.77,0.44-8.66c0.02-1.52,0.78-2.42,2.34-2.36
	c16.68,0.61,33.37,0.05,50.06,0.28c0.73,0.01,1.46-0.06,2.17,0.05c2.02,0.31,3.29,1.25,3.22,3.58c-0.39,12.58-0.74,25.17-1.04,37.75
	c-0.11,4.62-0.08,9.25-0.06,13.88c0.01,1.96-0.74,2.95-2.85,3.12C682.09,60.55,675.02,60.41,665.43,60.5z M664.18,5.45
	c0-0.03,0-0.07,0-0.1c-7.18,0-14.35,0.01-21.53-0.01c-3.74-0.01-3.9,0.1-4.05,3.93c-0.22,5.7-0.18,11.41-0.44,17.12
	c-0.41,9.15-0.07,18.34-0.14,27.51c-0.01,1.68,0.56,2.18,2.19,2.19c3.98,0.04,7.98,0.33,11.94,0.37c11.33,0.1,22.68,0.67,34.02-0.32
	c1.56-0.14,1.97-0.63,1.99-2.11c0.07-5.44,0.32-10.88,0.38-16.31c0.11-9.7,0.63-19.39,0.77-29.09c0.04-2.72-0.77-3.32-3.34-3.26
	C678.72,5.56,671.45,5.45,664.18,5.45z"/>
<path class="st0" d="M151.77,2.67c3.9,0.08,9.69,0.1,15.5,0.41c6.32,0.33,12.68-0.18,19.02-0.34c2.95-0.07,3.59,0.45,3.62,3.36
	c0.09,12.15-0.37,24.29-1.02,36.42c-0.24,4.52,0.14,9.05-0.48,13.58c-0.38,2.81-1.84,3.88-4.3,3.78c-5.8-0.26-11.61,0.05-17.36,0.26
	c-10.33,0.38-20.66-0.19-30.98,0.25c-4.23,0.18-4.24,0.1-4.23-4.16c0.01-6.27-0.17-12.54,0.08-18.79
	c0.43-10.59,1.27-21.17,1.06-31.78c-0.04-1.99,0.97-3,3.02-2.99C140.42,2.68,145.15,2.67,151.77,2.67z M135.39,44.84
	c0,3.08,0.14,6.18-0.05,9.25c-0.13,2.11,0.64,2.53,2.62,2.55c14.69,0.21,29.37-0.6,44.06-0.54c1.89,0.01,2.58-0.64,2.65-2.41
	c0.26-6.78,0.67-13.56,0.81-20.34c0.16-7.97,0.98-15.92,0.64-23.9c-0.04-0.88,0.52-2.18-1.01-2.41c-1.51-0.22-3.08-0.55-4.57-0.38
	c-5.07,0.59-10.16,0.57-15.21,0.23c-8.86-0.59-17.71-0.63-26.57-0.48c-1.5,0.03-2.35,0.22-2.31,2.04
	C136.75,20.6,135.24,32.7,135.39,44.84z"/>
<path class="st0" d="M317.48,38.16c0.49-7.32-0.74-17-0.62-26.7c0.03-2.16-0.36-4.32-0.47-6.49c-0.09-1.9,0.94-2.81,2.81-2.88
	c13.22-0.55,26.42,0,39.62,0.48c3.88,0.14,7.78-0.33,11.67-0.43c3.38-0.09,4.26,0.67,4.19,4.08c-0.19,10.42,0.39,20.84-0.41,31.26
	c-0.44,5.78-0.15,11.61-0.19,17.41c-0.03,4.41-1.05,5.51-5.41,5.53c-8.8,0.03-17.62,0.29-26.41-0.11
	c-6.96-0.32-13.9-1.01-20.88-1.03c-2.95-0.01-3.95-1.36-3.93-4.32C317.5,50.16,317.48,45.35,317.48,38.16z M352.65,56.6
	c5.98,0,10.61-0.03,15.25,0.02c1.32,0.01,1.88-0.35,2.02-1.81c0.69-7.29,0.32-14.61,0.82-21.92c0.55-8.05,0.06-16.16,0.24-24.24
	c0.06-2.54-0.94-2.93-3.05-2.54c-3.78,0.7-7.6,0.35-11.41,0.26C345.01,6.1,333.5,5.78,322,5.44c-1.5-0.04-1.91,0.64-1.8,1.97
	c0.18,2.16,0.44,4.33,0.47,6.5c0.13,9.25,0.83,18.48,0.68,27.75c-0.07,4.06-0.37,8.15,0.36,12.22c0.26,1.46,0.88,1.74,2.14,1.74
	C333.91,55.55,343.92,57.22,352.65,56.6z"/>
<path class="st0" d="M253.69,106.28c-0.41-10.63,1.28-21.17,1.18-31.79c-0.02-1.94,0.72-3.32,3.07-3.2
	c8.9,0.46,17.77-0.94,26.66-0.43c6.16,0.36,12.32,0.48,18.49,0.47c2.01,0,3.97-0.32,5.95-0.46c3.56-0.26,4.65,0.76,4.61,4.3
	c-0.17,14.33-0.38,28.67-0.56,43c-0.03,2.27-0.03,4.54,0.03,6.81c0.05,2.12-0.7,3.09-3.03,3.08c-13.69-0.08-27.38,0.02-41.08-0.08
	c-4.06-0.03-8.1-0.8-12.2-0.24c-1.11,0.15-1.93-0.55-2.15-1.93c-0.89-5.66-1.03-11.36-0.98-17.07
	C253.7,107.92,253.69,107.1,253.69,106.28z M276.81,124.17c5.73,0.18,13.07-0.15,20.41-0.42c3.34-0.12,6.67,0.58,10.04,0.47
	c1.53-0.05,2.07-0.5,2.01-2.05c-0.1-2.72-0.03-5.45-0.01-8.17c0.04-6.36-0.21-12.74,0.24-19.06c0.45-6.26,0.08-12.51,0.36-18.76
	c0.03-0.77-0.05-1.35-1.19-1.28c-7.34,0.43-14.66,0.39-22.01-0.16c-8.79-0.66-17.58,0.59-26.39,0.38c-1.11-0.03-1.68,0.32-1.68,1.53
	c0,6.25-0.85,12.47-0.99,18.71c-0.19,8.88-0.24,17.78,0.4,26.66c0.13,1.87,0.8,2.23,2.46,2.2
	C265.38,124.11,270.28,124.17,276.81,124.17z"/>
<path class="st0" d="M570.45,103.51c-0.45-10.01,1.25-20.46,1.13-30.99c-0.02-2.04,0.63-3.54,3.15-3.41
	c8.9,0.46,17.77-0.96,26.66-0.42c6.26,0.37,12.5,0.53,18.76,0.42c1.99-0.04,3.97-0.35,5.95-0.44c3.24-0.14,4.31,0.87,4.27,4.11
	c-0.17,14.52-0.38,29.03-0.56,43.55c-0.03,2.27,0.01,4.54,0.02,6.81c0.01,1.89-0.78,2.79-2.81,2.73c-4.99-0.14-10-0.44-14.95-0.35
	c-5.43,0.09-10.9-0.12-16.31,0.27c-7.36,0.52-14.66-1-22.01-0.22c-1.27,0.13-2.23-0.47-2.35-2.01c-0.26-3.24-0.75-6.47-0.92-9.71
	C570.32,110.58,570.45,107.31,570.45,103.51z M574.36,102.69c-0.33,5.72,0.13,11.42,0.4,17.13c0.08,1.58,0.44,2.25,2.17,2.21
	c4.63-0.1,9.27,0.01,13.9-0.02c7.71-0.07,15.42,0.02,23.13-0.39c3.31-0.18,6.67,0.45,10.03,0.42c1.54-0.01,2.07-0.49,2.02-2.04
	c-0.1-2.72-0.03-5.45-0.01-8.17c0.04-6.36-0.21-12.74,0.24-19.06c0.45-6.26,0.08-12.51,0.36-18.76c0.03-0.77-0.05-1.35-1.19-1.28
	c-7.61,0.49-15.21,0.36-22.82-0.18c-8.43-0.6-16.86,0.62-25.3,0.39c-1.35-0.04-1.97,0.32-1.97,1.8
	C575.31,84.06,573.77,93.34,574.36,102.69z"/>
<path class="st0" d="M672.3,127.55c-12.06,0-24.04-1.42-36.06-2.21c-2.34-0.15-2.76-1.85-2.82-3.62c-0.29-9.96,0.1-19.91,0.86-29.83
	c0.49-6.35,0.31-12.69,0.47-19.03c0.11-4.33,0.33-4.37,4.65-4.31c9.45,0.14,18.9-0.1,28.34,0.13c7.07,0.17,14.16-0.53,21.22,0.43
	c2.62,0.36,3.3,1.17,2.78,3.73c-0.11,0.53-0.3,1.07-0.28,1.6c0.52,10.54-1.57,20.96-1.24,31.51c0.19,6.04-0.55,12.1-0.86,18.15
	c-0.1,2.06-1.3,2.66-3.21,2.88C681.55,127.52,676.93,127.56,672.3,127.55z M657.02,72.39c-6.28,0-11.28,0.03-16.27-0.02
	c-1.35-0.01-2.25,0.09-2.21,1.83c0.4,15.15-1.71,30.23-1.12,45.39c0.07,1.9,0.6,2.4,2.47,2.47c6.69,0.26,13.38,0.6,20.05,1.16
	c7.88,0.66,15.73,0.7,23.6-0.01c1.81-0.16,2.37-0.93,2.37-2.53c0-2.36-0.04-4.72,0.06-7.08c0.53-12.57,1.02-25.14,1.73-37.7
	c0.16-2.86-1.2-3.46-3.46-3.4c-3.26,0.08-6.55,0.64-9.76,0.33C668.24,72.23,661.98,72.61,657.02,72.39z"/>
<path class="st0" d="M255.37,31.08c0-8.44-0.01-16.88,0.01-25.32c0.01-3.31,0.33-3.5,3.55-3.61c6.79-0.23,13.6-0.24,20.39-0.33
	c9.95-0.13,19.93,0.04,29.87,0.89c1.92,0.17,3.46,0.8,3.46,3.51c0.05,15.78,0.3,31.56,0.49,47.34c0.06,5.3-0.77,6.51-6.06,6.13
	c-9.06-0.64-18.12-0.04-27.18-0.7c-5.74-0.41-11.57,0.33-17.35,0.7c-7.99,0.51-7.22,0.62-7.21-6.01c0.01-7.53,0-15.07,0-22.6
	C255.34,31.08,255.36,31.08,255.37,31.08z M259.16,30.8c0.01,0,0.02,0,0.03,0c0,7.44,0,14.88,0,22.32c0,3.06,0.31,3.39,3.21,2.85
	c5.84-1.07,11.78-0.72,17.61-0.66c9.06,0.1,18.13,0,27.19,0.29c1.45,0.05,2.12-0.33,2.11-1.96c-0.1-15.14,0.03-30.28-0.53-45.41
	c-0.05-1.24-0.43-1.66-1.72-1.8c-7.94-0.86-15.92-0.44-23.88-0.86c-7.31-0.39-14.67,0.27-22.01,0.34c-1.8,0.02-2.05,0.77-2.04,2.29
	C259.19,15.73,259.16,23.26,259.16,30.8z"/>
<path class="st0" d="M921.55,58.3c-6.69-0.49-15.02,0.71-23.36,0.42c-4.24-0.15-8.48-0.63-12.71-1.05
	c-1.58-0.16-2.46-1.01-2.84-2.75c-0.54-2.49,0.05-4.87,0.1-7.3c0.22-10.06,0.31-20.13,0.65-30.19c0.16-4.8,0.54-9.59,0.49-14.4
	c-0.02-1.92,0.68-3.24,2.88-3c6,0.65,12,0.85,18.05,0.59c7.16-0.3,14.35-0.12,21.52-0.13c3.72-0.01,7.45-0.02,11.17,0.01
	c3.73,0.03,4.48,0.86,4.09,4.6c-0.99,9.46-1.46,18.96-1.43,28.46c0.02,4.79,0.44,9.59,0.39,14.39c-0.02,2.08-0.1,4.15-0.42,6.23
	c-0.6,4.03-0.5,4.07-4.66,4.1C931.39,58.33,927.3,58.3,921.55,58.3z M912.35,4.36c0-0.01,0-0.03,0-0.04
	c-6.35,0-12.71,0.03-19.06-0.01c-6.09-0.03-6.09-0.06-6.11,6.14c-0.02,5.99,0.31,12.01-0.17,17.96c-0.64,7.89-0.09,15.77-0.47,23.64
	c-0.07,1.54,0.4,2.4,2.11,2.4c3.8-0.01,7.56,0.66,11.39,0.56c7.88-0.21,15.75-0.72,23.64-0.53c3.45,0.08,6.9-0.08,10.34,0.01
	c1.61,0.04,2.12-0.46,2.31-2.1c0.65-5.7,0.08-11.37-0.01-17.06c-0.15-9.13,0.31-18.27,1.43-27.35c0.37-3-0.07-3.59-3.08-3.6
	C927.23,4.34,919.79,4.36,912.35,4.36z"/>
<path class="st0" d="M66.17,118.69c-0.04-10.61,1.67-21.1,2.1-31.67c0.16-3.98-0.15-7.97,0.5-11.95c0.75-4.65,0.8-4.89,5.4-4.71
	c15.3,0.61,30.61,0.29,45.91,0.47c4.1,0.05,5,0.88,4.9,4.97c-0.37,15.58-1.78,31.12-1.62,46.72c0.08,7.17,0.7,7.01-7.15,6.91
	c-8.22-0.1-16.44,0.59-24.68-0.14c-5.83-0.52-11.77,0.28-17.66,0.32c-7.68,0.05-7.7-0.04-7.71-7.66
	C66.16,120.87,66.17,119.78,66.17,118.69z M70.02,117.88c0,1.45,0,2.9,0,4.36c0.01,3.52,0.08,3.55,3.72,3.62
	c8.23,0.16,16.46-0.62,24.7-0.07c3.7,0.25,7.39-0.74,11.12-0.45c2.34,0.18,4.66,0.72,7.03,0.45c2.02-0.23,3.12-0.85,3.04-3.34
	c-0.2-5.98-0.3-12,0.12-17.96c0.63-9.11,1.27-18.22,1.48-27.36c0.04-1.72-0.45-2.48-2.27-2.48c-14.78-0.01-29.56,0.06-44.34-0.54
	c-1.72-0.07-2.41,0.52-2.44,2.32c-0.09,5.61-0.39,11.22-0.52,16.84C71.44,101.49,69.82,109.62,70.02,117.88z"/>
<path class="st0" d="M248.25,109.22c0,5.45-0.07,10.9,0.03,16.35c0.04,2.48-1.13,3.57-3.42,3.53c-10.44-0.18-20.87,1.1-31.3,0.44
	c-5.9-0.37-11.79-0.33-17.68-0.42c-3.13-0.04-3.79-0.64-3.8-3.87c-0.03-9.81,0.36-19.64-0.17-29.42c-0.4-7.44,0.16-14.81,0.11-22.22
	c-0.01-2.22,0.85-3.26,3.16-3.47c5.98-0.57,11.92-0.37,17.91,0c10.23,0.63,20.48,0.95,30.74,0.65c0.54-0.02,1.09,0.02,1.63-0.03
	c2.5-0.25,3.41,0.93,3.37,3.35c-0.12,7.35-0.08,14.69-0.53,22.03C248.04,100.48,248.25,104.86,248.25,109.22
	C248.27,109.22,248.26,109.22,248.25,109.22z M195.4,109.59c0.18,0,0.36,0,0.55,0c0,4.54,0.04,9.08-0.02,13.61
	c-0.02,1.43,0.3,2.21,1.94,2.12c6.26-0.36,12.49,0.6,18.75,0.49c8.52-0.15,17.04-0.39,25.56-0.47c1.83-0.02,2.33-0.68,2.24-2.4
	c-0.22-4.52-0.56-9.06-0.38-13.57c0.45-10.95,0.97-21.9,0.98-32.86c0-1.45-0.47-1.96-1.88-1.85c-2.16,0.17-4.34,0.44-6.5,0.37
	c-12.76-0.39-25.48-1.76-38.28-1.51c-2.48,0.05-3.03,0.87-3.01,3.17C195.46,87.65,195.4,98.62,195.4,109.59z"/>
<path class="st0" d="M382.9,119.12c-0.05-10.52,1.71-20.91,2.07-31.4c0.16-4.53,0.03-9.06,0.59-13.58c0.25-2,0.61-3.06,3.05-3.03
	c16.29,0.19,32.58,0.19,48.87,0.29c3.25,0.02,4.4,1.03,4.22,4.25c-0.56,10.03-0.51,20.09-1.37,30.12
	c-0.55,6.49-0.18,13.06-0.21,19.6c-0.02,3.85-0.04,3.8-3.78,4.42c-3.44,0.58-6.84,0.56-10.28,0c-2.63-0.43-5.25,0.47-7.85,0.34
	c-9.6-0.46-19.2,0.15-28.8,0.05c-0.36,0-0.73-0.01-1.09-0.03c-5.14-0.36-5.4-0.64-5.41-5.85
	C382.89,122.57,382.9,120.85,382.9,119.12z M386.75,118.37c0,1.63,0.13,3.28-0.03,4.9c-0.23,2.37,0.65,3.17,3.06,3.17
	c8.6-0.01,17.2-0.5,25.8-0.11c3.79,0.17,7.58-0.79,11.39-0.41c2.43,0.25,4.82,0.69,7.29,0.23c1.51-0.29,2.13-0.86,2.06-2.49
	c-0.13-2.9-0.01-5.81-0.02-8.71c-0.03-11.15,1.34-22.23,1.59-33.36c0.14-6.28,0.03-6.4-6.2-6.37c-13.34,0.06-26.67-0.23-40-0.56
	c-1.62-0.04-2.86,0.07-2.78,2.24c0.2,5.53-0.63,11.03-0.58,16.57C388.39,101.79,386.54,110.02,386.75,118.37z"/>
<path class="st0" d="M508.81,107.24c-0.28-6.02,0.07-12.54-0.38-19.08c-0.39-5.75,0.21-11.56,0.37-17.34
	c0.05-1.75,0.91-2.6,2.66-2.8c6.15-0.69,12.28-0.39,18.45-0.07c10.32,0.54,20.66,1.03,31.02,0.67c4.51-0.16,4.67,0.08,4.61,4.48
	c-0.2,16.7-0.95,33.39-0.57,50.1c0.06,2.86-0.81,3.78-3.71,3.72c-9.72-0.2-19.41,1.01-29.12,0.48c-6.8-0.37-13.6-0.48-20.4-0.45
	c-2.61,0.01-2.89-1.76-2.9-3.67C508.78,118.1,508.81,112.92,508.81,107.24z M512.67,107.42c0,4.54,0.04,9.08-0.02,13.62
	c-0.02,1.46,0.34,2.19,1.96,2.1c6.45-0.36,12.86,0.63,19.3,0.49c8.34-0.17,16.69-0.4,25.03-0.48c1.9-0.02,2.22-0.81,2.2-2.46
	c-0.05-4.53-0.47-9.08-0.34-13.58c0.33-10.96,0.94-21.91,0.94-32.89c0-1.55-0.67-1.86-1.97-1.76c-1.98,0.15-3.98,0.42-5.95,0.36
	c-12.95-0.39-25.86-1.79-38.85-1.51c-2.24,0.05-2.87,0.61-2.91,2.88C511.85,85.29,512.78,96.34,512.67,107.42z"/>
<path class="st0" d="M805.1,59.33c-14.23,0.64-28.91-0.28-43.58,0.05c-2.07,0.05-2.71-0.48-2.65-2.81
	c0.25-10.16,0.05-20.32,0.25-30.48c0.14-7.14,0.61-14.28,1.05-21.41c0.2-3.32,1.06-3.75,4.34-3.34c4.76,0.59,9.57,0.3,14.37,0.66
	c5.6,0.42,11.25,0.17,16.87,0.08c5.43-0.09,10.86-0.4,16.3-0.51c4.41-0.08,4.97,0.6,4.81,4.94c-0.23,6.16-0.27,12.32-0.59,18.47
	c-0.55,10.42-0.61,20.83-0.5,31.26c0.02,2.09-0.88,3.05-2.87,3.08C810.44,59.36,807.99,59.33,805.1,59.33z M812.99,13.79
	c0-0.82-0.01-1.63,0-2.45c0.1-6.65,0.11-6.54-6.72-5.87c-12.95,1.28-25.91,0.16-38.86-0.22c-3.55-0.1-3.8-0.26-3.96,3.34
	c-0.21,4.79-0.27,9.59-0.44,14.39c-0.37,10.15-0.08,20.33-0.15,30.49c-0.01,1.73,0.62,2.1,2.22,2.09
	c14.86-0.06,29.73-0.06,44.59-0.02c1.57,0,2.29-0.34,2.24-2.1C811.54,40.2,812.43,27,812.99,13.79z"/>
<path class="st0" d="M724.73,68.08c7.62,0,15.25-0.07,22.87,0.05c2.1,0.03,4.39-1.49,6.3,0.26c2.03,1.86,0.32,4.15,0.2,6.18
	c-0.63,11.12-0.93,22.25-1.21,33.38c-0.11,4.16-0.31,8.32-0.39,12.48c-0.06,2.85-0.89,3.62-3.75,3.82
	c-16.77,1.18-33.55,0.23-50.32,0.53c-2.37,0.04-3.15-1.07-3.19-3.32c-0.15-8.8,0.89-17.52,1.49-26.27
	c0.38-5.48,1.15-10.98,0.5-16.54c-0.31-2.66,0.09-5.42,0.28-8.12c0.17-2.43,2.06-2.42,3.81-2.42c7.81-0.02,15.61-0.01,23.42-0.01
	C724.73,68.09,724.73,68.08,724.73,68.08z M724.29,120.96c5.93-0.22,14.19,0.47,22.42-0.5c1.29-0.15,1.92-0.38,1.96-1.86
	c0.31-11.04,0.78-22.07,1.02-33.11c0.09-3.9,0.51-7.76,0.92-11.62c0.19-1.8-0.35-2.05-1.81-1.96c-5.15,0.34-10.28,0.3-15.44,0.12
	c-9.52-0.33-19.05-0.12-28.58-0.13c-3.76,0-3.88,0.12-4.02,3.91c-0.03,0.72-0.11,1.47,0.01,2.17c0.94,5.7,0.14,11.38-0.2,17.05
	c-0.47,7.85-1.43,15.66-1.49,23.54c-0.02,1.93,0.6,2.46,2.49,2.43C708.36,120.9,715.17,120.96,724.29,120.96z"/>
<path class="st0" d="M573.21,31.23c0-8.54-0.02-17.07,0.01-25.61c0.01-3.25,0.81-4.21,3.99-4.04c16.51,0.87,33.03,0.37,49.55,0.53
	c2.69,0.03,3.82,1.11,3.53,3.66c-1.85,16.66-0.7,33.36-0.95,50.05c-0.06,4.15-0.48,4.59-4.74,4.68c-6.43,0.13-12.91,0.42-19.3,0.27
	c-10.05-0.24-20.13,0.11-30.17-0.79c-2.2-0.2-2.03-1.67-2.03-3.12c-0.01-8.54,0-17.07,0-25.61
	C573.14,31.23,573.17,31.23,573.21,31.23z M576.96,30.75h0.01c0,7.9,0.02,15.8-0.02,23.7c-0.01,1.41,0.24,2.15,1.9,2.18
	c8.7,0.14,17.41,0.17,26.1,0.32c6.03,0.1,12.13-0.29,18.2-0.26c2.03,0.01,2.33-0.78,2.36-2.55c0.25-15.22-0.97-30.47,1.02-45.64
	c0.27-2.08-0.58-2.67-2.58-2.61c-4.26,0.13-8.54,0.05-12.8,0.05c-10.25,0-20.5,0.23-30.73-0.61c-3.45-0.29-3.46-0.3-3.46,3.1
	C576.96,15.86,576.96,23.31,576.96,30.75z"/>
<path class="st0" d="M96.13,61c-6.63,0-13.26,0.03-19.88-0.02c-2.19-0.02-4.34,0.18-6.49,0.5c-2.32,0.35-3.39-0.77-3.54-2.97
	c-0.89-12.48-1.54-24.98-0.98-37.48c0.19-4.34,0.25-8.69,0.44-13.03c0.15-3.62,0.81-4.35,4.44-4.19c7,0.3,13.91-0.84,20.87-1.1
	c8.63-0.32,17.21,0.75,25.83,0.6c1.34-0.02,2.72,0.18,4.03,0.5c2.26,0.55,3.15,2.12,3.12,4.42c-0.13,8.34,0.07,16.67-0.43,25.02
	c-0.49,8.14-0.94,16.3-0.61,24.46c0.11,2.86-1.72,3.26-3.9,3.26c-7.63,0.01-15.25,0-22.88,0C96.13,60.98,96.13,60.99,96.13,61z
	 M95.84,57.21c0-0.02,0-0.04,0-0.06c7.08,0,14.16-0.06,21.24,0.04c2.05,0.03,2.93-0.51,2.29-2.63c-0.51-1.69-0.29-3.43-0.21-5.14
	c0.63-13.4,1.07-26.8,0.95-40.21c-0.01-1.48-0.55-2.17-2.08-2.12c-6.08,0.17-12.14-0.26-18.2-0.59C90.3,5.99,80.86,7.91,71.34,7.62
	c-1.67-0.05-1.96,0.72-1.93,2.14c0.06,2.45,0.12,4.91-0.07,7.35c-0.94,11.77-0.44,23.52,0.54,35.26c0.14,1.69-0.66,3.82,0.57,4.98
	c1.29,1.21,3.25-0.19,4.96-0.16C82.22,57.28,89.03,57.21,95.84,57.21z"/>
<path class="st0" d="M211.31,60.45c-3.85,0-8.93,0.05-14.01-0.02c-2.77-0.04-3.8-1.25-3.51-3.94c0.74-6.96,0.2-13.92,0.17-20.88
	c-0.02-6.51,0.2-13.04,0.29-19.56c0.05-3.7,0.1-7.39,0.3-11.08c0.12-2.18,1.76-2.68,3.64-2.83c3.28-0.25,6.5,0.46,9.76,0.48
	c10.35,0.08,20.69,0.04,31.04,0.12c3.43,0.03,6.87,0.32,10.3,0.42c1.61,0.05,2.27,0.84,2.25,2.39c-0.08,9.96-0.16,19.91-0.94,29.86
	c-0.51,6.49-0.14,13.06-0.14,19.59c0,5.54-0.01,5.76-5.61,5.42C234.08,59.77,223.32,60.67,211.31,60.45z M198.06,45.73
	c0,2.45,0.01,4.9,0,7.35c-0.01,3.58-0.02,3.57,3.47,3.57c13.94,0,27.88-0.06,41.83,0.07c2.46,0.02,3.34-0.95,3.23-3.09
	c-0.64-13.06,1.25-26.04,1.09-39.09c-0.02-1.81-0.18-3.7,0.26-5.41c0.57-2.24-0.15-2.64-2.19-2.63
	c-12.52,0.05-25.04,0.03-37.56-0.03c-2.71-0.01-5.41-0.32-8.12-0.48c-1.09-0.07-1.94,0.05-1.95,1.53c0,4.98-0.5,9.98-0.37,14.93
	C197.96,30.21,197.4,37.98,198.06,45.73z"/>
<path class="st0" d="M696.38,50.57c-0.65-10.87-0.89-21.74-0.42-32.62c0.2-4.62,0.35-9.23,0.35-13.85c0-2.15,0.93-3.38,3.16-2.91
	c3.39,0.71,6.86,0.69,10.25,0.81c12.5,0.44,25,1.01,37.52,0.67c5.1-0.14,5.94,0.65,5.77,5.77c-0.54,15.94-1.22,31.87-1.03,47.82
	c0.03,2.61-1.63,3.39-3.82,3.63c-2.92,0.32-5.77-0.42-8.66-0.51c-13.15-0.42-26.29,0.77-39.44,0.45c-3.31-0.08-3.68-0.4-3.68-3.81
	C696.39,54.2,696.38,52.39,696.38,50.57z M749.23,11.7c0-1-0.07-2,0.02-2.99c0.14-1.59-0.36-2.28-2.11-2.23
	c-11.34,0.33-22.67-0.09-33.99-0.54c-3.7-0.15-7.42-0.35-11.09-0.78c-1.47-0.17-1.91,0.02-1.99,1.53
	c-0.62,12.14-0.77,24.27,0.04,36.41c0.23,3.43,0.71,6.91,0.35,10.29c-0.25,2.4,0.31,2.67,2.41,2.73c9.26,0.26,18.48-0.87,27.73-0.56
	c4.88,0.17,9.79-0.36,14.66,0.46c1.33,0.22,2.91,0.54,2.88-1.93C747.97,39.94,748.67,25.82,749.23,11.7z"/>
<path class="st0" d="M877.36,29.5c0,8.17-0.04,16.34,0.03,24.5c0.02,2.32-0.45,3.69-3.18,3.97c-4.63,0.49-9.25,0.26-13.86,0.3
	c-11.14,0.1-22.28-0.01-33.42,0.04c-5.72,0.03-5.89,0.09-5.68-5.63c0.26-7.06-0.19-14.1-0.03-21.15c0.22-9.32,1.52-18.58,1.58-27.91
	c0.01-1.9,1.28-2.04,2.81-2.03c14.52,0.02,29.05,0,43.57-0.02c1.27,0,2.54,0,3.81-0.01c4.43-0.05,4.4-0.06,4.39,4.24
	c-0.02,7.9-0.01,15.79-0.01,23.69C877.37,29.5,877.36,29.5,877.36,29.5z M873.48,29.65c0.02,0,0.04,0,0.07,0
	c0-7.17-0.1-14.35,0.06-21.52c0.05-2.2-0.59-2.75-2.73-2.74c-11.44,0.07-22.89,0.09-34.33-0.08c-2.89-0.04-5.76,0.05-8.64,0.06
	c-1.27,0.01-1.82,0.47-1.77,1.75c0.37,8.81-1.17,17.52-1.2,26.32c-0.01,3.91,0.68,7.76,0.53,11.66c-0.09,2.44-0.27,4.88-0.45,7.31
	c-0.11,1.44,0.32,2.13,1.95,2.12c14.59-0.08,29.19-0.11,43.78-0.11c2.13,0,2.78-0.91,2.75-2.99
	C873.42,44.18,873.48,36.92,873.48,29.65z"/>
<path class="st0" d="M45.96,85.42c0,0.45,0.01,0.91,0,1.36c-0.06,3.83-0.28,4.13-4.26,4.1c-2.41-0.02-4.28,0.74-6.11,2.37
	c-3.09,2.75-3.45,5.79-2.29,9.12c1.14,3.26,4.27,4.18,7.52,4.38c0.27,0.02,0.55-0.02,0.82,0.02c1.62,0.21,3.84-0.83,4.62,1.26
	c0.95,2.54,1.18,5.3-0.07,7.93c-0.28,0.59-0.82,1.01-1.47,1.11c-6.95,1.08-13.87,0.37-19.44-3.86c-6.4-4.86-6.87-12.06-5.16-19.54
	c2.63-11.54,13-14.63,21.55-14.08C45.53,79.84,46.05,80.77,45.96,85.42z"/>
<path class="st0" d="M27.55,52.85c-3,0-5.72-0.01-8.44,0c-2.4,0.01-3.76-0.98-3.65-3.58c0.37-8.4,0.7-16.81,1.02-25.21
	c0.06-1.62,0.11-3.24-0.29-4.87c-0.39-1.62-0.28-3.25,0.69-4.71c0.2-0.3,0.31-0.8,0.57-0.9c2.75-1.07,5.5-0.04,8.19,0.3
	c1.98,0.25,1.89,2.38,1.81,4.04c-0.34,6.59-0.61,13.18-1.09,19.76c-0.16,2.22,0.87,2.92,2.73,3.09c2.79,0.26,5.57,0.86,8.38,0.54
	c2.38-0.27,3.31,1.01,3.56,3.07c0.2,1.7,0.44,3.43,0.37,5.13c-0.06,1.6-1.03,2.48-2.74,2.84C34.87,53.16,31.06,52.54,27.55,52.85z"
	/>
<path class="st0" d="M405.05,52.8c-1.27,0-2.54,0.03-3.81-0.01c-1.41-0.04-3.26,0.49-3.85-1.21c-0.78-2.24-0.46-4.67-0.1-6.99
	c0.1-0.65,1.07-0.5,1.7-0.5c2.09-0.01,4.18-0.02,6.27,0.03c1.4,0.03,2.72-0.29,3.95-0.88c2.46-1.17,2.94-3.82,1.13-5.86
	c-1.67-1.9-3.87-3.05-6.17-3.87c-3.94-1.41-6.04-4.15-6.55-8.2c-0.61-4.83,1.03-8.84,4.96-11.64c4.15-2.95,8.86-2.73,13.6-1.72
	c1.19,0.25,1.66,0.97,1.62,2.13c-0.02,0.45,0,0.91,0,1.36c0.02,5.25,0.02,5.24-5.03,5.19c-0.99-0.01-2.05-0.06-2.96,0.26
	c-1.47,0.52-2.79,1.35-2.94,3.2c-0.15,1.89,1.21,2.55,2.57,3.05c3.84,1.4,7.29,3.33,9.56,6.84c2.47,3.81,3.79,8.04,1.86,12.36
	c-2.02,4.5-6.23,6.08-10.89,6.47c-1.62,0.13-3.27,0.02-4.9,0.02C405.05,52.82,405.05,52.81,405.05,52.8z"/>
<path class="st0" d="M542.58,33.07c0-6.26,0.09-11.98-0.04-17.69c-0.05-2.31,0.79-3.09,3.01-2.92c1.8,0.13,3.63,0.01,5.45-0.03
	c1.35-0.03,2.01,0.59,2.01,1.96C553,25.92,553,37.45,552.99,48.98c0,1.02-0.52,1.72-1.46,2.08c-3.26,1.24-7.65-0.31-9.66-3.13
	c-3.99-5.6-7.24-11.64-11.32-17.42c0,3.76,0.05,7.51-0.02,11.27c-0.05,2.62-0.26,5.24-0.43,7.86c-0.03,0.44-0.05,1.01-0.32,1.29
	c-2.01,2.07-4.51,1.42-6.9,1.05c-1.96-0.31-2.72-1.71-2.55-3.56c1.03-11.05,0.21-22.13,0.44-33.19c0.04-1.83,0.26-2.67,2.44-2.85
	c6.97-0.56,6.89-0.65,10.21,5.55C536.12,22.95,538.88,27.95,542.58,33.07z"/>
<path class="st0" d="M470.61,51.18c-3.18,0-6.36,0-9.53,0c-3.56,0-3.98-0.44-4.04-4.13c-0.11-7.16,0.05-14.32,0.49-21.47
	c0.21-3.35,0.12-6.72,0.06-10.07c-0.03-2.1,0.62-3.06,2.97-3.07c7.07-0.03,14.14,0.43,21.21-0.41c3.43-0.41,4.17,0.5,4.16,3.92
	c0,4.88-0.03,4.73-4.94,5.42c-3.36,0.48-6.7,0.28-10.04,0.38c-3.48,0.1-1.71,2.99-2.3,4.52c-0.61,1.6,1.04,1.47,2.09,1.49
	c0.91,0.02,1.82,0,2.72-0.01c3.98-0.03,4.3,0.29,4.35,4.35c0.05,4.13-0.26,4.44-4.51,4.44c-0.73,0-1.46,0.08-2.18,0
	c-2.18-0.26-3.13,0.6-3.18,2.86c-0.06,2.54,1.59,2.47,3.25,2.48c3.72,0.03,7.45,0.16,11.17-0.02c2.36-0.12,2.99,0.95,3.09,3.01
	c0.24,5.29-0.61,6.26-5.84,6.34c-1.54,0.02-3.09,0.01-4.63,0.01c-1.45,0-2.91,0-4.36,0C470.61,51.21,470.61,51.2,470.61,51.18z"/>
<path class="st0" d="M468.41,105.13c0.24,3.96-0.39,7.37-0.4,10.81c-0.01,1.83-0.7,2.32-2.42,2.29c-8.73-0.15-7.42,1.19-7.44-7.2
	c-0.02-8.7,0.7-17.39,0.56-26.1c-0.07-4.2,1.51-5.52,5.68-6.02s8.28-0.76,12.36,0.55c6.65,2.14,9.31,7.56,6.91,14.14
	c-1,2.75-2.32,5.42-4.5,7.35c-1.36,1.2-1.25,1.89-0.22,3.02c3.22,3.55,6.42,7.13,9.62,10.71c0.52,0.59,1.43,1.08,1.02,2.03
	c-0.35,0.8-1.29,0.5-1.95,0.63c-3.77,0.74-7.03,0.27-9.73-3.03C475.23,111.06,472.32,107.95,468.41,105.13z M469,91.28
	c-0.01,0-0.02,0-0.03,0c0,1.09-0.02,2.17,0.01,3.26c0.01,0.52-0.05,1.08,0.77,1.16c1.43,0.14,5-2.08,5.42-3.6
	c0.62-2.25-0.52-3.84-2.37-4.91c-2.49-1.45-3.77-0.66-3.79,2.2C468.99,90.01,469,90.65,469,91.28z"/>
<path class="st0" d="M155.63,120.4c-2.99,0-5.99,0-8.98,0c-4.38,0-4.64-0.27-4.7-4.56c-0.11-7.07,0.08-14.13,0.5-21.19
	c0.2-3.35,0.1-6.71,0.06-10.07c-0.02-2.01,0.69-2.96,2.88-2.92c5.17,0.11,10.35,0.09,15.52,0.01c2.25-0.03,4.5-0.4,6.76-0.47
	c2.16-0.06,3.41,0.88,3.21,3.3c-0.15,1.8,0.47,3.94-0.31,5.34c-0.87,1.57-3.19,0.33-4.82,0.7c-3.23,0.73-6.51,0.36-9.76,0.4
	c-3.43,0.04-1.99,2.83-2.45,4.39c-0.53,1.82,1.12,1.61,2.27,1.65c0.54,0.02,1.09,0.01,1.63,0c4.94-0.05,6.35,1.77,5.24,6.7
	c-0.34,1.49-1.28,2.09-2.74,2.08c-1.54-0.01-3.09,0.07-4.63-0.02c-2.07-0.12-2.3,1.17-2.43,2.78c-0.14,1.79,0.7,2.53,2.33,2.55
	c3.99,0.04,7.99,0.17,11.98,0c2.27-0.09,3.07,0.77,3.18,2.91c0.28,5.36-0.6,6.37-6.01,6.45c-1.45,0.02-2.9,0.01-4.36,0.01
	c-1.45,0-2.9,0-4.36,0C155.63,120.42,155.63,120.41,155.63,120.4z"/>
<path class="st0" d="M662.6,50.09c-3.27,0-6.54,0-9.8,0c-3.26-0.01-3.8-0.52-3.86-3.75c-0.14-7.34,0.05-14.68,0.49-22.01
	c0.2-3.35,0.1-6.71,0.06-10.07c-0.02-2.03,0.73-2.95,2.9-2.9c4.72,0.12,9.44-0.05,14.16,0.07c2.65,0.07,5.23-0.48,7.85-0.54
	c2.25-0.05,3.67,0.74,3.45,3.34c-0.15,1.8,0.46,3.94-0.33,5.34c-0.87,1.54-3.2,0.31-4.84,0.68c-3.23,0.73-6.51,0.35-9.76,0.39
	c-3.52,0.04-1.82,2.94-2.37,4.45c-0.65,1.8,1.16,1.53,2.27,1.58c0.91,0.04,1.82-0.01,2.72-0.01c3.69-0.02,4.09,0.37,4.15,3.99
	c0.08,4.56-0.15,4.79-4.68,4.8c-0.91,0-1.82,0.07-2.72,0c-2.07-0.15-2.31,1.15-2.44,2.76c-0.14,1.78,0.68,2.54,2.33,2.56
	c3.99,0.04,7.99,0.17,11.98,0c2.27-0.09,3.07,0.76,3.18,2.91c0.28,5.36-0.6,6.37-6.01,6.45c-1.45,0.02-2.91,0.01-4.36,0.01
	s-2.91,0-4.36,0C662.6,50.12,662.6,50.11,662.6,50.09z"/>
<path class="st0" d="M350.71,30.17c0-4.84,0.04-9.29-0.02-13.74c-0.03-2.24,0.95-3.22,3.15-2.84c2.42,0.41,4.85,0.55,7.3,0.58
	c1.23,0.01,2.13,0.77,1.98,2.09c-0.88,7.42-0.07,14.87-0.41,22.29c-0.14,3.16-0.37,6.32-0.51,9.49c-0.08,1.9-1.3,2.49-2.89,2.56
	c-1.9,0.08-3.81,0.03-5.72,0.02c-2.34-0.02-3.15-1.92-4.11-3.5c-2.39-3.93-4.66-7.93-7.3-12.46c-0.39,4.33-0.08,8.08-0.61,11.8
	c-0.53,3.77-1.55,4.67-5.34,4c-0.27-0.05-0.52-0.17-0.79-0.21c-5.47-0.87-5.34-0.87-5.51-6.55c-0.28-9.26,0.88-18.49,0.61-27.74
	c-0.06-2.05,0.88-3.05,2.95-2.95c0.18,0.01,0.37,0.02,0.54-0.01c5.68-1.01,9.37,0.88,11.21,6.7c1.08,3.42,3.16,6.51,4.8,9.75
	C350.13,29.6,350.28,29.7,350.71,30.17z"/>
<path class="st0" d="M279.5,80.58c5.27-0.31,10.51,0.48,15.77,0.51c0.53,0,1.31-0.05,1.56,0.26c2.03,2.46,0.82,5.39,0.9,8.1
	c0.05,1.71-1.68,1.83-3.04,2.06c-1.8,0.31-4.24-1.02-5.27,0.77c-0.79,1.37-0.27,3.54-0.23,5.35c0.14,6.44-0.38,12.88,0.34,19.31
	c0.24,2.19-1.21,3.3-3.33,3.44c-2.17,0.15-4.34,0.11-6.51,0.35c-2.49,0.28-3.45-1.11-3.7-3.93c-0.69-7.61-0.48-15.22-0.44-22.84
	c0.01-1.9-0.55-2.46-2.46-2.46c-6.42,0-6.42-0.07-6.31-6.59c0.07-4.24,0.18-4.34,4.56-4.35C274.05,80.57,276.78,80.58,279.5,80.58z"
	/>
<path class="st0" d="M597.21,118.22c-3.27,0-6.53,0-9.8,0c-3.35,0-3.84-0.51-3.9-3.99c-0.13-7.16,0.05-14.31,0.48-21.46
	c0.2-3.35,0.14-6.71,0.06-10.07c-0.05-2.26,0.68-3.29,3.14-3.22c4.9,0.15,9.8-0.03,14.7,0.08c2.29,0.05,4.5-0.5,6.76-0.54
	c3.06-0.05,3.76,0.63,3.74,3.56c-0.01,1.72,0.49,3.76-0.26,5.08c-0.91,1.6-3.18,0.34-4.82,0.71c-3.23,0.74-6.51,0.37-9.76,0.4
	c-3.44,0.03-2,2.81-2.47,4.37c-0.54,1.8,1.08,1.64,2.25,1.67c0.54,0.01,1.09,0.01,1.63,0c4.97-0.05,6.36,1.72,5.26,6.68
	c-0.29,1.33-1.08,2.06-2.45,2.08c-1.45,0.02-2.91,0.11-4.35-0.01c-2.09-0.18-2.92,0.66-3.02,2.77c-0.1,2.23,1.15,2.59,2.87,2.59
	c3.99,0.01,7.99,0.09,11.98-0.01c1.77-0.04,2.52,0.71,2.59,2.33c0.05,1.09,0.05,2.18,0.01,3.26c-0.08,2.41-1.36,3.67-3.76,3.69
	c-3.63,0.03-7.26,0.01-10.89,0.01C597.21,118.21,597.21,118.21,597.21,118.22z"/>
<path class="st0" d="M654.68,95.89c-0.55,6.28-0.12,12.45-0.75,18.61c-0.21,2.07-1.13,2.96-2.99,3.12c-1.17,0.1-2.37,0.13-3.54,0
	c-2.23-0.23-3.54-1.47-3.32-3.8c1.02-10.87,0.22-21.77,0.43-32.66c0.04-2.21,0.2-3.77,2.99-3.4c0.59,0.08,1.23-0.3,1.85-0.38
	c4.22-0.54,4.6-0.27,6.56,3.5c3.06,5.87,6.28,11.64,10.41,17.64c0-6.12,0.15-11.67-0.06-17.22c-0.11-2.83,0.87-3.55,3.58-3.49
	c6.88,0.15,6.88,0.03,6.88,6.87c0,9.54-0.05,19.07,0.04,28.61c0.03,2.54-0.99,3.48-3.41,3.29c-1.17-0.09-2.36-0.03-3.54-0.01
	c-1.6,0.03-2.58-0.72-3.51-2.07C662.16,108.48,658.54,102.12,654.68,95.89z"/>
<path class="st0" d="M301.21,30.66c0.34,6.66-4.66,16.59-14.68,17.96c-7.41,1.01-16.37-2.38-19.1-10.33
	c-2.74-7.99-0.18-19.21,5.84-23.59c6.28-4.57,13.22-5.48,19.89-1.62C299.21,16.58,301.25,22.76,301.21,30.66z M284.39,22.79
	c-4.84-0.01-7.72,2.38-7.79,6.45c-0.06,3.96,3.07,7.24,6.9,7.23c3.84-0.01,7.26-3.09,7.3-6.58
	C290.85,25.46,288.45,22.8,284.39,22.79z"/>
<path class="st0" d="M905.13,32.56c0-4.22-0.07-7.22,0.03-10.22c0.05-1.62-0.43-2.18-2.14-2.22c-6.72-0.14-6.72-0.2-6.61-6.83
	c0.06-3.89,0.28-4.11,4.25-4.11c8.08-0.01,16.15-0.03,24.22,0.5c0.54,0.04,1.31-0.06,1.57,0.25c2.08,2.44,0.83,5.37,0.93,8.08
	c0.07,1.72-1.65,1.86-3.01,2.09c-1.81,0.31-4.25-0.99-5.3,0.75c-0.81,1.35-0.28,3.53-0.24,5.35c0.14,6.44-0.38,12.88,0.34,19.31
	c0.25,2.18-1.17,3.32-3.3,3.47c-2.17,0.16-4.34,0.13-6.52,0.34c-2.12,0.21-3.61-0.91-3.71-3.34
	C905.44,41.11,904.84,36.24,905.13,32.56z"/>
<path class="st0" d="M92.95,80.98c-0.74,3.52-1.92,7.02-4.28,9.74c-1.81,2.09-4.22,0.4-6.23-0.44c-1.76-0.74-1.93-2.24-1.21-3.87
	c1.2-2.72,2.28-5.51,3.67-8.12c1.31-2.45,3.57-0.91,5.35-0.7C91.94,77.8,93.38,78.76,92.95,80.98z"/>
<path class="st0" d="M214.57,118.73c-1.36,0-2.72,0.01-4.08,0c-3.33-0.04-3.67-0.4-3.71-3.82c-0.05-4.87-0.05-4.85,4.88-4.88
	c2.26-0.01,4.54,0.27,6.73-0.6c3.09-1.22,3.69-4.08,1.35-6.47c-1.63-1.67-3.65-2.74-5.78-3.49c-3.94-1.39-6.06-4.16-6.6-8.18
	c-0.65-4.81,0.97-8.84,4.89-11.66c3.95-2.84,8.47-2.75,13.05-1.87c1.78,0.34,2.46,1.33,2.23,3.07c-0.02,0.18,0,0.36,0,0.54
	c0.02,5.26,0.02,5.25-5.02,5.18c-0.73-0.01-1.47-0.08-2.17,0.07c-1.77,0.37-3.31,1.13-3.69,3.12c-0.4,2.15,1.2,2.86,2.77,3.43
	c4.61,1.66,8.47,4.26,10.55,8.82c3.98,8.74-0.58,16.15-10.22,16.75c-1.72,0.11-3.45,0.02-5.17,0.02
	C214.57,118.76,214.57,118.75,214.57,118.73z"/>
<path class="st0" d="M431.42,89.07c-0.52,7.66-0.67,15.37-4.91,22.25c-3.18,5.15-7.92,7.05-14.02,6.64
	c-5.96-0.41-10.44-2.48-13.45-7.67c-1.53-2.64-2.45-5.49-2.52-8.49c-0.12-5.44-0.01-10.89,0.04-16.34c0.03-2.69,1.14-3.73,3.83-3.79
	c1.52-0.04,3.03,0.23,4.51,0.35c2.1,0.16,1.98,2.14,1.77,3.86c-0.73,5.9-0.46,11.74,1.47,17.41c0.83,2.44,2.11,4.38,5.27,4.08
	c1.82-0.17,2.78-1.25,3.64-2.51c2.52-3.7,3.15-8.04,3.95-12.3c0.46-2.49,0.74-5.01,0.57-7.56c-0.12-1.77,0.81-2.68,2.59-2.78
	c0.71-0.04,1.42-0.23,2.13-0.36c3.44-0.65,5.12,0.75,5.12,4.23C431.42,87.08,431.42,88.08,431.42,89.07z"/>
<path class="st0" d="M550.81,101.19c0.33,3.71-0.39,7.55-2.28,11.21c-2.67,5.15-6.87,8.18-12.61,7.88
	c-6.02-0.32-11.15-3.17-13.7-8.84c-4.11-9.15-3.24-18.14,2.22-26.61c2.47-3.83,6.18-5.72,10.49-6.65c3.83-0.82,7.65-1.43,11.46,0.14
	c1.87,0.77,3.23,5.59,1.94,7.11c-0.32,0.38-0.73,0.5-1.21,0.38c-2.93-0.73-5.76,0.12-8.55,0.74c-11.28,2.53-12.32,15.98-7.49,22.47
	c1.49,2,5.77,2.86,8.06,1.9c2.2-0.93,4.16-4.41,4.04-6.93c-0.05-1.17-0.49-1.61-1.64-1.58c-1.45,0.05-2.9-0.01-4.35-0.03
	c-0.54-0.01-1.26,0.21-1.61-0.05c-2.46-1.84-0.57-4.47-1.08-6.69c-0.25-1.07,0.06-2.03,1.49-1.98c4.14,0.16,8.27-0.84,12.43-0.02
	c1.71,0.34,2.25,1.39,2.36,2.83C550.9,97.93,550.81,99.38,550.81,101.19z"/>
<path class="st0" d="M785.89,49.55c-3.36,0-6.72,0.01-10.08,0c-3.02-0.01-3.55-0.58-3.69-3.67c-0.43-9.71,0.72-19.39,0.58-29.09
	c-0.11-7.07-0.02-5.83,6.06-5.95c5.98-0.12,11.95,0.32,17.93-0.45c3.53-0.46,4.33,0.51,4.32,4.03c-0.01,4.86-0.03,4.69-4.78,5.31
	c-3.27,0.42-6.52,0.49-9.77,0.33c-3.77-0.18-2.25,2.83-2.73,4.39c-0.64,2.05,1.31,1.59,2.46,1.67c0.9,0.06,1.81-0.01,2.72-0.01
	c3.45-0.01,3.89,0.43,3.96,3.9c0.09,4.65-0.13,4.88-4.87,4.88c-0.73,0-1.46,0.07-2.18,0c-2.03-0.22-2.69,0.78-2.81,2.68
	c-0.14,2.18,1.02,2.66,2.8,2.66c3.9,0.01,7.81,0.13,11.71-0.02c2.17-0.08,2.87,0.83,2.99,2.82c0.33,5.38-0.59,6.46-5.92,6.52
	c-2.9,0.04-5.81,0.01-8.72,0.01C785.89,49.57,785.89,49.56,785.89,49.55z"/>
<path class="st0" d="M721.69,75.67c5.27-0.26,10.51,0.39,15.77,0.51c0.45,0.01,1.07-0.08,1.33,0.17c2.33,2.26,0.77,5.14,1.13,7.73
	c0.23,1.64-1.1,2.11-2.38,2.44c-0.35,0.09-0.72,0.06-1.08,0.08c-5.17,0.26-5.23,0.26-5.15,5.39c0.11,6.53-0.43,13.06,0.36,19.59
	c0.27,2.24-0.84,3.7-3.17,3.89c-2.17,0.17-4.34,0.21-6.51,0.41c-2.61,0.24-3.65-1.07-3.89-3.76c-0.67-7.51-0.53-15.04-0.44-22.57
	c0.03-2.18-0.46-2.99-2.82-2.94c-5.87,0.13-6.07-0.2-5.97-6.11c0.08-4.82,0.08-4.82,4.92-4.82c1.36,0,2.73,0,4.09,0
	C719.15,75.67,720.42,75.67,721.69,75.67z"/>
<path class="st0" d="M598.01,10.82c5.26-0.26,10.5,0.44,15.75,0.49c1.71,0.02,2.55,0.7,2.45,2.44c-0.02,0.27,0,0.54,0,0.82
	c0.07,6.83,0.08,6.88-6.73,7.16c-1.59,0.06-2.02,0.63-1.97,2.11c0.27,7.15-0.4,14.32,0.4,21.47c0.47,4.22-0.64,5.29-4.98,5.41
	c-1.71,0.05-3.43,0.41-5.13,0.32c-2.13-0.12-3.31-1.15-3.49-3.61c-0.53-7.51-0.55-15.03-0.39-22.54c0.06-2.58-0.77-3.18-3.2-3.11
	c-5.38,0.15-5.69-0.31-5.61-5.92c0.08-5,0.08-5,5-5.01c1.36,0,2.72,0,4.08,0C595.47,10.82,596.74,10.82,598.01,10.82z"/>
<path class="st0" d="M82.52,32.92c-0.26-5.28,0.38-10.81-0.47-16.34c-0.4-2.59,0.71-3.57,3.39-3.58c6.09-0.01,12.17-0.02,18.26,0
	c3.19,0.01,4.5,1.52,4.48,5.04c-0.03,3.17-0.65,3.73-4.2,3.75c-3,0.02-6,0-8.99,0c-1.01,0-2.27-0.1-2.01,1.41
	c0.27,1.58-1.3,3.71,1.21,4.67c3.4,1.3,4.56,3.56,3.63,7.19c-0.43,1.7-1.82,1.94-3.2,1.9c-2.37-0.07-1.62,1.61-1.75,2.83
	c-0.16,1.43,0.28,2.18,1.92,2.14c3.45-0.08,6.9-0.04,10.36,0.01c3.18,0.04,4.22,1.31,3.8,4.46c-0.11,0.81-0.16,1.62-0.21,2.43
	c-0.1,1.85-1.07,2.81-2.92,2.9c-5.18,0.25-10.33-0.25-15.46-0.77c-1.26-0.13-2.52-0.25-3.78-0.27c-2.86-0.04-3.97-1.01-4.03-3.9
	C82.46,42.24,82.52,37.7,82.52,32.92z"/>
<path class="st0" d="M235.12,16.83c0,0.63-0.06,1.28,0.01,1.9c0.31,2.68-1.08,3.65-3.53,3.49c-2.76-0.18-5,0.57-7.11,2.59
	c-2.7,2.58-3.09,5.6-2.13,8.71c0.96,3.09,3.85,4.11,6.86,4.53c0.54,0.07,1.1-0.03,1.63,0.06c1.59,0.28,3.92-0.99,4.61,1.13
	c0.85,2.62,1.29,5.53-0.22,8.17c-1.02,1.78-3.01,1.13-4.5,1.23c-6,0.41-11.97-0.49-16.64-4.35c-6.02-4.99-6.51-11.9-4.88-19.14
	c2.65-11.76,13.08-14.81,21.69-14.21C234.73,11.2,235.22,12.12,235.12,16.83z"/>
<path class="st0" d="M732.73,25.79c-3.28,1.48-3.9,5.81-7.91,6.38c-4.38,0.62-5.56-3.48-8.84-5.43c0,2.8,0,5.27,0,7.74
	c0,4.45-0.08,8.89,0.03,13.34c0.05,2.14-0.77,2.9-2.88,2.84c-8.13-0.25-6.86,1.12-7-6.87c-0.15-8.76-0.27-17.53-0.52-26.29
	c-0.07-2.49,0.69-3.06,3.29-3.55c6.2-1.18,9.45,2.85,13.26,6.19c2.71,2.38,2.7,2.35,5.29-0.2c1.22-1.2,2.63-2.28,3.77-3.5
	c2.76-2.96,6.14-3.02,9.73-2.91c1.6,0.05,2.36,0.59,2.35,2.21c-0.03,10.71-0.05,21.42-0.05,32.12c0,1.64-0.79,2.31-2.36,2.22
	c-0.18-0.01-0.36,0-0.54,0c-8.08-0.19-6.91,1.16-6.93-6.89c-0.01-4.78-0.6-9.56-0.06-14.35C733.46,27.86,733.35,26.85,732.73,25.79z
	"/>
<path class="st0" d="M854.95,31.47c0-6.36,0.06-12.16-0.03-17.95c-0.03-2,0.66-2.68,2.68-2.71c7.75-0.12,7.75-0.18,7.75,7.61
	c0,9.26-0.05,18.53,0.04,27.79c0.03,2.48-0.87,3.55-3.35,3.35c-1.08-0.09-2.18-0.05-3.27-0.01c-1.81,0.07-2.88-0.69-3.94-2.26
	c-4.06-6-7.72-12.24-11.89-18.44c0,2.74,0.01,5.48,0,8.23c-0.02,3.53,0.11,7.08-0.44,10.59c-0.08,0.53-0.01,1.22-0.32,1.56
	c-1.95,2.18-4.48,1.46-6.86,1.13c-1.94-0.27-2.79-1.64-2.61-3.52c1.03-11.05,0.23-22.13,0.43-33.2c0.04-2.02,0.45-2.73,2.66-2.92
	c6.75-0.58,6.69-0.7,9.85,5.27C848.37,21.12,851.21,26.19,854.95,31.47z"/>
<path class="st1" d="M276.6,29.24"/>
<path class="st1" d="M290.8,29.88"/>
</svg>
