<?xml version="1.0" encoding="utf-8"?>
<!-- Generator: Adobe Illustrator 25.2.2, SVG Export Plug-In . SVG Version: 6.00 Build 0)  -->
<svg version="1.1" id="Calque_1" xmlns="http://www.w3.org/2000/svg" xmlns:xlink="http://www.w3.org/1999/xlink" x="0px" y="0px"
	 viewBox="0 0 49.53 130.84" style="enable-background:new 0 0 49.53 130.84;" xml:space="preserve">
<style type="text/css">
	.st0{fill:#FB8DD6;}
</style>
<path class="st0" d="M49.53,27.79c0.12,4.2-2.21,8.46-3.34,13c-6.32,25.38-14.33,50.31-20.42,75.76c-0.72,2.99-1.35,6-1.93,9.02
	c-0.79,4.07-2.08,5.25-6.15,5.27c-5.59,0.03-10.85-1.02-15-5.14c-2.58-2.57-3.29-5.45-2.21-9.16c4.81-16.51,9.32-33.11,14.05-49.64
	c3.78-13.23,7.69-26.42,11.63-39.6c0.76-2.54,2.64-4.53,4.07-6.71c4.12-6.29,8.42-12.46,12.6-18.71c0.76-1.13,1.51-2.06,3.02-1.84
	c1.67,0.24,1.36,1.71,1.65,2.76c0.76,2.74,0.28,5.58,0.65,8.38C48.86,16.46,49.07,21.81,49.53,27.79z M37.78,35.84
	c0.17-0.6-0.25-0.71-0.67-0.93c-2-1.04-2.7-0.62-3.45,1.97C29.75,50.26,25.81,63.62,21.9,77c-2.87,9.82-5.68,19.65-8.61,29.45
	c-0.41,1.37-0.21,2.04,1.11,2.45c1.32,0.4,2.1-0.02,2.37-1.4c0.07-0.35,0.25-0.68,0.35-1.03c6.33-21.54,12.65-43.08,18.97-64.62
	C36.69,39.86,37.22,37.84,37.78,35.84z M42.32,35.65c-0.73,0.59-0.81,1.51-1.05,2.33c-6.93,23.52-13.83,47.05-20.78,70.57
	c-0.36,1.22-0.52,1.9,1.02,2.4c1.87,0.61,1.67-0.7,1.94-1.66c5.1-18.39,10.21-36.79,15.3-55.19c1.47-5.32,2.92-10.64,4.39-15.96
	C43.41,37.17,43.84,36.19,42.32,35.65z M45.71,26.31c-0.39-4.31-0.85-8.62-1.15-12.94c-0.09-1.31-1.03-1.3-1.8-1.63
	c-0.82-0.35-1.57-0.41-2.13,0.48c-3.1,4.89-6.83,9.37-9.39,14.61c-0.28,0.58-0.57,1.19-0.04,1.76c0.43,0.45,1.03,0.4,1.52,0.16
	c2.32-1.13,3.1,0.24,4.36,1.98c1.04,1.44,3.62-2.24,5.17,0.55c0.04,0.08,0.11,0.15,0.18,0.2c1.37,1.15,2.17,0.84,2.75-0.86
	C45.65,29.18,45.61,27.76,45.71,26.31z M8.02,104.76c0.23,0.37-0.42,1.26,0.57,1.41c0.64,0.1,0.84-0.55,1.01-1.07
	c0.28-0.86,0.55-1.72,0.81-2.59c3.01-10.24,6.01-20.47,9.01-30.71c3.66-12.49,7.33-24.98,10.98-37.48c0.2-0.69,1-1.59-0.3-2.01
	c-1.16-0.38-1.64,0.37-1.91,1.36c-0.14,0.52-0.33,1.04-0.49,1.55c-5.19,16.75-9.68,33.71-14.34,50.61
	C11.64,92.1,9.84,98.35,8.02,104.76z M15.86,127.04c1.26-0.2,3.07,0.54,3.65-1.02c0.77-2.08,1.04-4.35,1.41-6.56
	c0.08-0.49-0.63-0.49-1.06-0.62c-4.24-1.3-8.47-2.62-12.7-3.95c-0.59-0.19-1.14-0.57-1.76-0.01c-1.59,1.43-1.65,6.64,0,8.17
	C8.34,125.76,11.92,126.83,15.86,127.04z M20.67,114.65c-4.62-1.53-9.25-3.06-13.87-4.59c-0.09,0.29-0.18,0.58-0.27,0.87
	C11.21,112.22,15.7,114.1,20.67,114.65z"/>
</svg>
