<?xml version="1.0" encoding="utf-8"?>
<!-- Generator: Adobe Illustrator 25.2.2, SVG Export Plug-In . SVG Version: 6.00 Build 0)  -->
<svg version="1.1" id="Calque_1" xmlns="http://www.w3.org/2000/svg" xmlns:xlink="http://www.w3.org/1999/xlink" x="0px" y="0px"
	 viewBox="0 0 51.29 54.27" style="enable-background:new 0 0 51.29 54.27;" xml:space="preserve">
<style type="text/css">
	.st0{fill:#FB8DD6;}
</style>
<path class="st0" d="M25.71,43.12c-1.51,3.41-4,5.81-6.22,8.42c-1.02,1.2-2.17,2.24-3.73,2.57c-3.95,0.85-6.46-1.83-5.75-6.18
	c0.64-3.92,1.25-7.85,2.12-11.73c0.31-1.4-0.06-1.91-1.15-2.54c-3.21-1.86-6.53-3.57-9.12-6.32c-2.95-3.13-2.36-5.89,1.63-7.6
	c2.94-1.26,6.1-1.66,9.23-2.09c2.09-0.29,3.31-0.88,3.75-3.35c0.66-3.81,1.91-7.53,3.1-11.23c1.12-3.49,4.19-4.1,6.66-1.39
	c2.96,3.24,4.18,7.4,5.47,11.42c0.83,2.58,2,3.67,4.78,3.48c3.53-0.23,7.03,0.51,10.44,1.41c4.98,1.32,5.82,5.02,1.98,8.58
	c-1.99,1.84-4.13,3.54-6.6,4.74c-1.82,0.88-2.31,2.14-1.87,4.17c0.67,3.08,1.09,6.23,1.41,9.37c0.22,2.09-0.57,3.97-2.32,5.22
	c-1.76,1.27-3.56,0.88-5.36-0.14C31.05,48.21,28.48,45.8,25.71,43.12z M47.32,22.15c-3.42-1.23-6.74-1.72-10.16-1.8
	c-7.08-0.17-7.07-0.18-9.34-6.67c-0.57-1.62-1.26-3.2-1.92-4.79c-0.63-1.54-1.05-3.23-2.73-4.28c-1.64,4.1-2.91,8.16-3.47,12.36
	c-0.34,2.61-1.68,3.55-3.98,3.94c-3.03,0.51-6.04,1.09-9.04,1.73c-0.85,0.18-1.98,0.32-2.19,1.33C4.3,24.93,5.4,25.2,6,25.7
	c2.38,1.98,5.07,3.48,7.76,4.99c2.06,1.16,2.82,2.74,2.23,5.19c-0.92,3.86-1.55,7.78-2.26,11.69c-0.16,0.87-0.41,1.96,0.52,2.5
	c1.11,0.64,1.56-0.62,2.16-1.16c2.86-2.58,4.74-5.91,6.8-9.11c1.61-2.5,3-2.63,4.77-0.22c2.03,2.77,4.75,4.69,7.49,6.63
	c0.54,0.38,1.14,1.1,1.91,0.46c0.59-0.49,0.79-1.24,0.66-1.98c-0.57-3.38-0.68-6.95-1.92-10.08c-1.21-3.06-0.1-4.3,2.23-5.6
	C41.57,27.21,44.86,25.47,47.32,22.15z"/>
</svg>
