<svg width="294" height="285" viewBox="0 0 294 285" fill="none" xmlns="http://www.w3.org/2000/svg">
<g clip-path="url(#clip0)">
<path d="M149.844 175.929C140.788 157.149 144.304 142.548 159.711 133.52C169.567 127.754 185.435 131.471 192.093 141.11C201.546 154.802 197.754 167.917 179.829 182.28C187.152 185.731 194.726 185.608 202.171 185.608C225.814 185.585 246.45 176.782 265.324 163.222C271.936 158.448 279.153 154.338 283.34 146.814C284.659 144.425 287.065 144.353 289.101 145.755C291.356 147.308 291.626 149.647 290.656 152.206C289.11 156.244 285.482 158.411 282.468 160.879C265.509 174.655 247.428 186.715 225.845 191.938C205.571 196.855 185.462 196.408 166.343 187.091C160.601 184.299 154.852 186.083 149.167 185.714C120.822 183.849 93.2365 179.226 67.9732 165.327C54.9071 158.138 42.2662 150.323 32.3174 138.889C31.5664 138.019 30.7289 136.764 29.4008 137.198C27.937 137.694 28.3112 139.202 28.4739 140.337C28.9177 143.305 29.6738 146.24 30.0098 149.235C30.2748 151.684 30.0917 154.227 27.0029 155.03C23.9905 155.809 22.3388 154.148 21.6177 151.555C18.4787 140.234 17.544 128.561 17.5899 116.916C17.6083 111.204 23.2901 111.856 26.4478 112.971C35.7129 116.287 44.7932 120.112 54.2573 122.903C57.0053 123.712 57.9979 126.182 56.9654 128.748C55.8972 131.428 53.426 131.789 50.8513 130.979C45.702 129.357 40.5915 127.653 35.1764 125.901C42.6475 149.574 111.694 179.557 149.844 175.929ZM183.678 167.551C189.673 160.269 189.288 149.818 182.802 144.358C174.713 137.562 164.283 138.307 157.667 146.141C151.022 154.01 152.023 166.022 159.899 172.587C165.894 177.562 177.445 175.125 183.678 167.551ZM28.2355 135.045L28.6178 134.928L28.3223 134.658L28.2355 135.045Z" fill="#FB88D4"/>
<path d="M28.2363 135.045L28.3231 134.658L28.6187 134.928L28.2363 135.045Z" fill="#FEFEFE"/>
</g>
<defs>
<clipPath id="clip0">
<rect width="235.776" height="174.724" fill="white" transform="translate(183.226 284.842) rotate(-140.807)"/>
</clipPath>
</defs>
</svg>
