<svg width="190" height="47" viewBox="0 0 190 47" fill="none" xmlns="http://www.w3.org/2000/svg">
<path d="M8.40886 29.2707C9.25927 27.4148 10.3048 25.6296 10.9043 23.6886C11.4062 22.0451 12.0196 19.92 9.83083 18.9707C7.61421 18.0215 6.62441 19.7074 5.92736 21.4784C4.10109 26.1255 2.41422 30.8292 0.476419 35.4338C-0.59704 37.9981 0.197588 39.84 2.31662 40.9451C6.24799 42.9994 10.277 44.8837 14.3617 46.598C15.8673 47.2356 17.819 47.3206 18.5997 45.2946C19.4083 43.2261 18.3349 41.8518 16.411 41.1009C14.292 40.265 12.1729 39.4433 10.0678 38.5932C8.31126 37.8706 7.7118 37.1197 9.83083 35.9155C33.2517 22.5835 57.7322 12.2835 84.485 8.04729C98.8303 5.76627 113.245 5.18539 127.619 6.1063C145.867 7.26806 163.614 11.2776 180.218 19.5091C181.682 20.2317 183.16 20.9259 184.345 22.1726C185.92 23.8161 188.123 23.9011 189.335 22.2435C190.743 20.3308 189.795 18.489 187.607 17.2564C176.789 11.1926 165.204 7.32473 153.242 4.33531C141.755 1.45924 130.1 0.141628 118.362 0.0141177C88.277 -0.325911 59.3772 5.46874 31.9134 18.2198C24.1204 21.8468 16.4668 25.7288 8.40886 29.2707Z" fill="#FB88D4"/>
</svg>
