<?xml version="1.0" encoding="utf-8"?>
<!-- Generator: Adobe Illustrator 25.2.2, SVG Export Plug-In . SVG Version: 6.00 Build 0)  -->
<svg version="1.1" id="Calque_1" xmlns="http://www.w3.org/2000/svg" xmlns:xlink="http://www.w3.org/1999/xlink" x="0px" y="0px"
	 viewBox="0 0 120.44 123.88" style="enable-background:new 0 0 120.44 123.88;" xml:space="preserve">
<style type="text/css">
	.st0{fill:#FB88D4;}
</style>
<path class="st0" d="M0,0c17.68,6.48,34.74,14.22,50.14,25.23c11.29,8.07,20.93,17.82,29.69,28.55c10.05,12.3,18.2,25.73,25.05,40
	c2.67,5.56,4.96,11.28,6.86,17.15c0.34,1.06,0.49,2.25,1.59,3.36c1.61-4.73,1.89-9.42,2.7-14.01c0.2-1.16,0.43-2.32,0.5-3.49
	c0.07-1.38,0.85-2.06,2.06-2.01c1.44,0.07,2.02,1.09,1.81,2.48c-0.6,3.93-1.16,7.88-1.87,11.79c-0.75,4.09-1.66,8.14-2.49,12.21
	c-0.53,2.55-2.08,3.26-4.33,2.04c-5.67-3.06-11.34-6.11-17.03-9.13c-1.38-0.73-2.77-1.56-1.84-3.29c0.95-1.77,2.46-0.94,3.78-0.23
	c4.19,2.26,8.37,4.52,13.1,7.08c-1.65-6.24-3.79-11.6-6.08-16.88c-6.09-14.02-13.77-27.12-22.91-39.39
	c-16.67-22.39-37.8-39.08-63.44-50.11"/>
</svg>
