<svg id="Calque_1" data-name="Calque 1" xmlns="http://www.w3.org/2000/svg" viewBox="0 0 237.83 236.4"><defs><style>.cls-1{fill:#fb88d4;}.cls-2{fill:#fefcfd;}.cls-3{fill:#fefefe;}</style></defs><path class="cls-1" d="M605.92,341.61c-.11-2.6-.58-5.2,0-7.8.42-1.88.58-4.09,2.76-4.59,2-.45,3.68.84,4.88,2.38a41.87,41.87,0,0,1,5.28,7.88,36.78,36.78,0,0,1,4.77-15.05c1.19-2,2.4-4.64,5.24-3.88s2.74,3.52,2.73,5.92a101.16,101.16,0,0,0,.49,11.14c.3,2.87.55,3.11,3.3,2.43,7-1.71,14-3.06,21.21-2.89l1.09,0c2.14,0,4.78,1.67,6.19.47s1.18-4,1.94-6.05c5.16-13.71,14.7-23.7,26.89-31.44A78.64,78.64,0,0,1,710,291.76c1.17-.38,1.73-.82,1.41-2.32a26.54,26.54,0,0,0-3.46-9.08c-1.32-2.05-2.85-4.39-.84-6.73s4.62-2.13,7.29-1.24c4.34,1.44,6.32,5.22,8.63,8.66.49.74.85,1.58,1.45,2.71,1.52-4.4,2.8-8.52,5.26-12.12a28.16,28.16,0,0,1,4.44-5.12,3.22,3.22,0,0,1,3.56-.58c1.14.49,1.14,1.72,1.2,2.83.21,3.9-.86,7.75-.4,12.09,1.18-1.57,2.16-2.92,3.18-4.23a16.59,16.59,0,0,1,8.27-5.92c3.52-1.07,5.21.67,4.46,4.23s-2.82,6.69-3.26,10.34c-.12,1-.27,2-.41,3-.24,1.8.44,2.68,2.29,3.31,12.89,4.37,23.19,12.36,32,22.68,5.87,6.91,11,14.18,13.87,22.84,3.68,10.89,3.82,22.05,2.83,33.33a90.05,90.05,0,0,1-6.77,27,75.11,75.11,0,0,1-12.3,19.44,55.3,55.3,0,0,1-21.94,15.57c-1.41.58-1.67,1.15-1,2.6,2.2,4.6.6,6.94-4.58,6.53a46.58,46.58,0,0,1-7.72-1.5c-1.27-.32-1.91-.58-2,1.21-.18,4.16-1.55,4.94-5.62,3.77a14.23,14.23,0,0,1-7.8-5.14c-.86-1.16-1.61-1.26-2.92-.7-4,1.72-8,3.55-12.53,3.06-1.21-.13-1.79.51-2.16,1.6a73.2,73.2,0,0,1-31.08,37.94c-11.16,6.66-22.92,11.67-35.9,13.43-12.28,1.66-24-.36-35.41-5a90.49,90.49,0,0,1-30.3-20.77c-9.44-9.57-15.35-20.88-16.8-34.47a88.15,88.15,0,0,1,7.58-46.1c3.41-7.61,7.13-15.09,12.24-21.75a52.44,52.44,0,0,1,10.35-10.74c1.47-1.08,1.71-2.11.73-3.61-1.93-3-3.43-6.19-5.68-8.94a5.37,5.37,0,0,1-.49-.66c-1.1-1.86-2.69-3.82-1-6s4.13-2.52,6.66-2c3.31.66,5.95,2.6,8.35,4.85a11.8,11.8,0,0,1,1.41,2Zm128.64-69.35c-4.51,4.75-6.21,10.69-7,17-.19,1.51.06,2.93-2,3.17-1.81.2-2.63-.71-3.12-2.32a25.51,25.51,0,0,0-3.06-7.25c-1.76-2.56-3-5.71-6.37-6.75-.85-.26-1.84-.9-2.52,0s.28,1.49.71,2.13a26.87,26.87,0,0,1,4.13,13.34,3.2,3.2,0,0,1-2.54,3.66,27.9,27.9,0,0,0-3.37,1,76.06,76.06,0,0,0-31.87,22.51,46.27,46.27,0,0,0-9.29,17.38c-.54,2-.26,3.17,2,3.76a59.63,59.63,0,0,1,9.93,3.69c13.68,6.25,22,17.74,29.21,30.18,7.35,12.7,8.92,26.87,9.23,41.18a83.59,83.59,0,0,1-2.12,21c-.6,2.52.38,2.81,2.34,2.57.63-.07,1.25-.19,1.87-.31,3.14-.62,6-2.05,8.92-3.28,2.2-.93,3.55-.48,4.74,1.52a9.86,9.86,0,0,0,2.5,2.84c1.28.94,3.08,2.53,4.28,1.64s.14-3.1-.45-4.48c-.67-1.54-.67-2.69.62-3.55s2.52-.16,3.54,1a11.26,11.26,0,0,0,8,3.51c1.11.08,2.65,1.08,3.27.06.73-1.17-.78-2.23-1.4-3.28-1.5-2.56-1.24-3.36,1.71-4.26a43.43,43.43,0,0,0,7-2.83c11.7-6,19.63-15.59,25.68-26.91,5.06-9.47,7.46-19.76,8.65-30.36,1.1-9.73.88-19.43-2-28.8-5.06-16.72-16.36-28.8-30.21-38.7-4.41-3.15-9.15-6-14.6-7.07-4.05-.78-4.45-1-4.51-5.12a20.81,20.81,0,0,1,.46-4.3,64.49,64.49,0,0,1,3.1-10.6c-5.69,2.95-8.87,7.8-10.53,13.69-.41,1.47-.82,2.4-2.35,2.35s-2-1.17-2.24-2.58c-.85-5.42-.26-10.87-.37-16.31l.19-.31ZM609.87,333.79a13.81,13.81,0,0,0-.57,3.35c.38,3.57,0,7.24,1.32,10.71.52,1.31.6,2.76-1,3.52s-2.52-.25-3.28-1.5c-.29-.47-.6-.91-.91-1.35-2.62-3.64-5.48-7-9.57-9.08-1-.53-2.34-1.19-3.23,0-.76,1,.46,1.76,1,2.53A118.9,118.9,0,0,1,605,362.63c.62,1.48.71,2.7-1.21,3.5a12,12,0,0,0-4.59,3.74c-15.24,18.86-23.31,40-21.13,64.62a90.65,90.65,0,0,0,5,24.08c2,5.4,3.93,11,8.79,14.75a105.74,105.74,0,0,0,12.94,9c14.57,8.12,30.06,11.89,46.55,8.23,17.71-3.93,33.3-12,45.75-25.62a65,65,0,0,0,17.15-41,115.69,115.69,0,0,0-1.47-28.71c-3.24-17.17-12.06-31.24-25.21-42.08-12.38-10.19-27.17-14.18-43.33-11-3.8.75-7.72,1.17-11.22,3-2.37,1.25-3.14,1.09-3.91-1.44a41.23,41.23,0,0,1-1.39-11c-.07-2.18,0-4.37,0-6.55-4.1,5.95-5.92,12.31-5,19.33.13,1,.53,2.2-.94,2.75a2.44,2.44,0,0,1-3.1-1c-.87-1.27-1.61-2.63-2.38-4C614.51,340.14,613.08,336.68,609.87,333.79ZM578.49,458.92c.23-1.91-.46-3.2-.83-4.53a111.29,111.29,0,0,1-3.85-24.31c-.66-12.6,2-24.62,6.62-36.28,4.24-10.74,9.91-20.63,18.27-28.66,2-1.94,2.25-3.13,1-5.36-.74-1.3-1.13-1.27-2.15-.45a51.62,51.62,0,0,0-10.77,11.8c-9.44,14.31-16.3,29.6-18,46.92-1.26,12.92.1,25.28,6.67,36.73A14.81,14.81,0,0,0,578.49,458.92Zm.47.42-.09.18H579Z" transform="translate(-564.46 -265.65)"/><path class="cls-1" d="M706.45,487c3.41-.33,5.82,1.56,7.84,4a6.36,6.36,0,0,1,.1,7.61c-3.46,4.58-12.52,4.52-15.86-.15a5.87,5.87,0,0,1-.64-6.63A9,9,0,0,1,705,487,13.49,13.49,0,0,1,706.45,487ZM706.39,498c2.21.18,4.49-.34,5.15-2.77s-1.61-3.18-3.24-4.11a4,4,0,0,0-1.86-.24c-2.69-.05-5.55,2-5.48,3.87S703.27,497.91,706.39,498Z" transform="translate(-564.46 -265.65)"/><path class="cls-1" d="M726.86,472.82a7.14,7.14,0,0,1,6.48,3,5.56,5.56,0,0,1-3.54,8.95,12.73,12.73,0,0,1-4.31-.05c-4.21-.78-6.08-3.28-5.62-7.2C720.21,474.56,722.77,472.82,726.86,472.82Zm.67,8.23c1.5.09,3.12-.28,3.09-1.86,0-2-1.92-2.83-3.65-2.91-1.44-.06-3.39.25-3.28,2.34C723.82,480.93,725.85,480.87,727.53,481.05Z" transform="translate(-564.46 -265.65)"/><polygon class="cls-2" points="14.5 193.7 14.56 193.88 14.41 193.87 14.5 193.7"/><path class="cls-3" d="M734.56,272.26l.29-.22-.19.31Z" transform="translate(-564.46 -265.65)"/><path class="cls-1" d="M788,367.78c.65,19.38-6.9,35.81-18.27,50.86a6.61,6.61,0,0,1-1.78,1.64,1.83,1.83,0,0,1-2.28-.2,1.6,1.6,0,0,1-.25-2.22c1-1.5,2.18-2.88,3.19-4.38,7.16-10.58,13.4-21.65,14.77-34.61s1.29-25.85-3.19-38.34c-.47-1.29-.85-2.63.74-3.21s2.33.65,2.8,1.9a61.39,61.39,0,0,1,3.65,16.09C787.8,359.45,787.85,363.62,788,367.78Z" transform="translate(-564.46 -265.65)"/><path class="cls-1" d="M771.1,371.08c.5,8.34-1.49,16.85-4.23,25.24-.2.61-.41,1.21-.65,1.79-.52,1.22-1.16,2.45-2.77,1.88s-1.22-2.07-.78-3.2a74.43,74.43,0,0,0,3.73-13.58c1.21-6.63,1-13.31.57-20-.43-6.51-1-13-2.71-19.3a77.13,77.13,0,0,0-10.44-22.61,8.8,8.8,0,0,1-.6-.9c-.65-1.33-2.08-2.8-.11-4s2.72.64,3.57,1.88a77.68,77.68,0,0,1,13.2,33.29A116.26,116.26,0,0,1,771.1,371.08Z" transform="translate(-564.46 -265.65)"/><path class="cls-1" d="M704.6,315.35a38.77,38.77,0,0,1,4.68-7.87,1.71,1.71,0,0,1,2.27,0,1.64,1.64,0,0,1,.43,2.2c-1.4,2.52-2.82,5-4.28,7.52a1.64,1.64,0,0,1-2.13.71C704.64,317.54,704.51,316.74,704.6,315.35Z" transform="translate(-564.46 -265.65)"/><path class="cls-1" d="M631.92,424.63c4.32,2.3,5.79,6.38,3.67,10.7a1.8,1.8,0,0,0,.36,2.53c1.7,1.72,2.84,3.07,6,2,4.31-1.51,8.18,4,6.81,9-.26.94-1.24,2-.67,2.79,1,1.34,2.51,2.32,3.3,3.91.06.12.64,0,1,0,7-.88,9.8,1.9,8.79,8.84,1.07,0,.86-.95,1.12-1.51,1.73-3.83,5.15-5.09,9.29-3.42,3.5,1.41,4.51,4.2,2.91,8.29a3.18,3.18,0,0,0,0,2.58c1.14,2.83.56,4.94-1.76,7a6.28,6.28,0,0,1-7.31,1,3.75,3.75,0,0,0-3.45-.27c-2.73.78-5.66,1.11-7.47-1.95-.62-1.05-1.33-.71-2.06-.38-2.36,1.08-4.18,0-6-1.37-.44-.34-.53-1.36-1.38-.95a1.87,1.87,0,0,0-1,2.06,4.68,4.68,0,0,1-2.86,5.07c-2.87,1.3-5.7.29-7.37-2.63-.44-.77-.73-1.62-1.31-2.94-.9,2.17-2.26,3.46-4.16,3.83a8.66,8.66,0,0,1-5.34-.32c-3.29-1.48-4.31-3.77-3.75-8.59-1-.38-1.21.54-1.67,1-2.43,2.35-5.26,2.65-8.31,1.6s-3.65-3.58-3.9-6.28c-.13-1.4.14-2.29-2.09-2.24-4.06.08-7.24-3.54-7.18-7.7,0-2.05-.38-3.17-2.52-4-4-1.54-5.34-5.92-3.37-10.83.65-1.63.89-2.69-.41-4.28-2.2-2.7-1.89-6.53.29-9.62.54-.76,1.09-1.18.3-2.24-2-2.73-1.7-5.79-.81-8.84.24-.81.84-1.46-.07-2.43a9.85,9.85,0,0,1,1.87-15.15,1.83,1.83,0,0,0,.9-2.37A9.24,9.24,0,0,1,597,386.12c1.47-.79,2.15-1.38,1.93-3.37-.78-7.17,7.86-13.14,14.38-10.14.4.19.94.39,1.11.73,1.42,2.93,3.5,3.14,6.58,2.63,3.8-.63,6.32,2.65,5.69,6.56-.37,2.24-.38,3.64,2.53,4.41,4.15,1.09,5.46,5.52,3.45,10.35-.71,1.71-.9,2.76.61,4.3,2.95,3,2.38,6.61.63,10.09-.36.71-.84,1.26-.61,2.23C634.67,419.52,634.64,419.53,631.92,424.63Zm4,45a12.21,12.21,0,0,0-1.6,0c-.84.1-2.06-.47-2.41.39a2.55,2.55,0,0,0,1.12,2.67c.31-1.77,2.19-1.83,2.86-3.13l.14-.18ZM602.69,382.2a3.33,3.33,0,0,0,4.75,3,10.05,10.05,0,0,0,4.36-3.54,4.92,4.92,0,0,0,1-4.56c-.5-1.29-1.83-1.68-3.13-1.76C606.63,375.19,602.59,379.21,602.69,382.2ZM621.61,396a3.4,3.4,0,0,0,2,3.58c1.9.85,3-.56,4.23-1.62a5.65,5.65,0,0,0,1.9-5.85,2.79,2.79,0,0,0-3.17-2c-2.29.22-3.62,1.9-4.57,3.83A7.51,7.51,0,0,0,621.61,396Zm-8,12.18c-.17,2.2.32,4,2.38,4.58s3-1.21,3.85-2.71a9,9,0,0,0,.47-1,5.61,5.61,0,0,0-.27-5.67,2.34,2.34,0,0,0-3-.67,5.76,5.76,0,0,0-3.45,4.86A3.08,3.08,0,0,0,613.62,408.2Zm-9.86-14.91c0-3.17-1.74-5.15-3.44-4.73-2.23.55-4.75,3.89-4.64,6.13s2.89,4.27,4.6,3.22C602.24,396.7,603.64,394.93,603.76,393.29Zm19.13-11c.13-1.58-.26-2.72-2.15-2.64-2.64.1-6,4.11-5.56,6.69.32,2,1.93,2.88,3.73,1.9C621.25,386.94,622.94,385.16,622.89,382.26Zm-16.45,74.08c-.06-3.28-1.34-5-3.54-5-1.79,0-3.5,2.07-3.43,4.2s2.49,4.93,4.19,4.69C606,459.86,606.17,457.92,606.44,456.34Zm-9.22-52c0-.9.24-2-1.34-2.56a2.83,2.83,0,0,0-3.35,1,7.42,7.42,0,0,0-1.86,6.28,2.25,2.25,0,0,0,3.83,1.45A7.23,7.23,0,0,0,597.22,404.31Zm2.69,39.76c-.24-1.59-.69-3.3-3.12-3.37-2.21-.06-3.7,1.73-3.85,4.65-.09,1.82,1.75,4,3.42,4S599.84,446.63,599.91,444.07Zm-1-23.29c-.06-2.95,0-5.06-2.87-5.23-2.17-.12-3.16,1.24-3.23,4.31-.06,2.64,1.26,4.61,3.21,4.42A3,3,0,0,0,598.93,420.78Zm34.53,35.28c2-.06,4,.07,4.08-2.57a4.11,4.11,0,0,0-4-4c-2.07,0-4.23,1.87-4.14,3.85C629.55,456.07,631.75,455.84,633.46,456.06Zm-28.74-45.37c1.87.06,3.07-1.12,3.93-4.08.27-.94,1.19-2.07-.1-2.91a3.22,3.22,0,0,0-4,0,10.43,10.43,0,0,0-2.3,2.61A2.85,2.85,0,0,0,604.72,410.69Zm17,21.94c0-2.32-2.38-5.15-4-4.84a3.45,3.45,0,0,0-2.94,3.41c-.09,1.84,2.48,4.77,4,4.43A3.55,3.55,0,0,0,621.7,432.63Zm-6.55-38.23c0-1.66-1.26-3.29-2.59-3.28-1.54,0-4.49,3.07-4.31,4.68s.85,3.23,2.86,3.39C612.82,399.32,615.13,396.5,615.15,394.4ZM603.2,419.79c0,1.95.9,3.4,3,3.38,2.29,0,3-1.83,3-3.74s-.14-3.78-2.69-3.87C604.63,415.49,603.2,417.41,603.2,419.79Zm-10.94,12.73c0,2,.71,3.36,3,3.33a3.87,3.87,0,0,0,3.51-4.1,3,3,0,0,0-3.18-3.05C593.56,428.67,592.26,430.2,592.26,432.52Zm19.11,30c-1.32.07-2.26,1.06-2.2,2.92s.43,3.66,3,3.66c2.15,0,3.47-1,3.57-3.18C615.78,463.93,614.11,462.49,611.37,462.5ZM609.21,431c.12-2.36-1.13-3.53-3-2.6a5.29,5.29,0,0,0-3,3.33c-.4,1.6-.08,3.16,1.62,3.85s2.69-.46,3.44-1.78A5.24,5.24,0,0,0,609.21,431Zm16.89-23.52c-.12,1.86.63,3.65,2.4,3.64,2.06,0,2.82-2,3-3.93s-.61-3.46-2.59-3.4S626.28,405.64,626.1,407.45Zm-21.29,37.86c.07.92-.14,1.85.79,2.26a2.58,2.58,0,0,0,2.8-.26c1.93-1.5,2.15-3.69,2.16-5.83a1.34,1.34,0,0,0-2.16-1.14C606.56,441.52,605,443.06,604.81,445.31Zm27.27-.26c1.56-.09,2.7-.5,2.74-2.14,0-1.3-2.9-3.9-4.26-3.59s-2.81,1.47-2.68,3C628.09,444.82,630.6,444.39,632.08,445.05Zm-1.61-27c.1-1.15-.36-1.91-1.8-1.9-1.83,0-3.6,2.37-3.64,4.92,0,1.17.13,2.23,1.66,2.2S630.4,420.38,630.47,418.08Zm-10.88,2.57c-.07-2.13-1.35-3.26-2.94-3.16-1.89.12-2.54,1.83-2.59,3.61,0,1.57.62,2.73,2.35,2.68A3.12,3.12,0,0,0,619.59,420.65ZM632.65,431a2.58,2.58,0,0,0-2.62-2.69c-2,0-2.69,1.85-2.63,3.47a2.78,2.78,0,0,0,2.93,2.89C632.11,434.63,632.71,433.34,632.65,431Zm.91,34.81c1,0,2.46-.07,2.34-2s-.92-3.38-3.07-3.43c-1.9,0-2.8,1.23-2.84,2.93C629.94,465.32,631.42,465.79,633.56,465.84Zm6.74-19.17c-.12,1.72.35,3.15,2.33,3.25s2.44-1.5,2.54-3.1c.13-1.94-1-3.27-2.76-3.3S640.21,445.07,640.3,446.67Zm7.63,10.92a3.64,3.64,0,0,0-3.54-2.78c-1.6-.05-2.51.73-2.39,2.22.16,1.86,1.3,3.45,3.15,3.53C646.65,460.62,647.45,459.07,647.93,457.59Zm-32.67-4.11c0-1.42.11-3.35-2-3.38-1.9,0-2.34,1.84-2.34,3.39,0,1.77.6,3.88,2.57,3.83S615.12,455.09,615.26,453.48Zm1-10.08c0,2.31,1.46,3,3.16,3.22,1.55.18,2.29-.87,2.34-2.35s-2-3.61-3.57-3.49C616.55,440.93,616.54,442.37,616.31,443.4Zm45.82,27.78c-.08-1.1.27-2.39-1.32-2.61-1.42-.19-3.54,1.86-3.61,3.46s.38,3,2.12,2.82C661.34,474.66,662.1,473.05,662.13,471.18Zm-37.67-17.57c-.09-1.53-.77-2.95-2.26-2.9-2.1.08-2.12,2.22-2.41,3.7a1.94,1.94,0,0,0,2,2.38C623.57,456.7,624.2,455.22,624.46,453.61Zm.07,17.05c-.5,0-1.7,0-1.67,1.76,0,2.13,1.58,2.83,3.24,2.92,1.15.06,2.8-.3,2.66-2C628.59,471.37,627.12,470.68,624.53,470.66Zm43.88-8.18a2.67,2.67,0,0,0-2.87,2.36c-.2,1.66,1.4,2.29,2.7,2.36,1.46.08,2.94-.55,3.07-2.33C671.46,462.82,669.68,462.88,668.41,462.48Zm-13.29.62c1.74,0,2.67-.54,2.57-1.88-.15-2-1.85-2.26-3.32-2.39-.92-.09-2.22.3-2,1.61A3,3,0,0,0,655.12,463.1Zm-34.45.57c-.1,1.66.32,2.66,1.9,2.65,1.87,0,2.17-1.54,2.29-2.84a2.21,2.21,0,0,0-2.11-2.42C620.91,461,620.86,462.63,620.67,463.67Zm29.83,8.65a4.07,4.07,0,0,0,2.28-3.34,1.62,1.62,0,0,0-1.69-2c-1.72,0-2.47,1.34-2.58,2.91C648.42,471.15,649.24,471.86,650.5,472.32Zm20.74.52c-.06-1.27-1.08-1.51-2-1.62a2.71,2.71,0,0,0-3,2.17A1.67,1.67,0,0,0,668,475.3,3.35,3.35,0,0,0,671.24,472.84Zm-27.12-5.64c0-1.09,0-2-1.25-1.8-1.78.35-2.5,1.64-2.56,3.34,0,1,.39,2,1.49,1.78C643.53,470.11,644,468.55,644.12,467.2ZM624.63,440c.44-1,1.81-1.5,1.68-2.76-.06-.56-.92-1-1.41-1.54-.84.85-2.07,1.53-2.19,2.74C622.66,439,623.62,439.65,624.63,440Zm13.18,33.47c-.88,0-1.4.37-1.27,1.12a2.83,2.83,0,0,0,2.33,2.59,1.07,1.07,0,0,0,1.33-1.26A3.16,3.16,0,0,0,637.81,473.44ZM623.25,412.1c-.75,1-1.76,1.82-1.86,3.13,0,.4.51,1.36.87,1.12a4.08,4.08,0,0,0,2.12-2.86A1.39,1.39,0,0,0,623.25,412.1Zm-8.73,26.49c0-1.58-1.45-2.16-2.34-3.11,0,0-.55.18-.59.34-.38,1.58,1.25,1.67,1.9,2.5A.7.7,0,0,0,614.52,438.59Zm12.55,10.62c.22-.39.65-.79.59-1.11-.16-1-1.15-1.27-1.9-1.63-.46-.22-.78.42-.62.86A3.73,3.73,0,0,0,627.07,449.21Z" transform="translate(-564.46 -265.65)"/><path class="cls-1" d="M657.94,412c-4.46-.36-6.51-2.81-7.05-6.83a6.85,6.85,0,0,1,1.44-5.59c.94-1.11,1-2,.2-3.07-.11-.14-.15-.33-.25-.48-1.27-2.09.57-4.86-.64-6.38s-3.6-2.4-4.22-4.69a1.74,1.74,0,0,0-2.16-1.48c-5.64.63-8.22-3.31-6.93-9,.28-1.25.44-2-.74-3-3-2.51-3.08-7.73-.34-10.76s7.93-3.85,10.78-1.26c1.11,1,2.07.73,3.31.85,3.75.37,7,0,10.34-2.14,2.08-1.34,5,.77,5.23,3.54.18,2,.75,2,2.45,1.76a7.24,7.24,0,0,1,8,6.3c.1,1.26.44,1.75,1.74,1.77,5.57.07,6.12,3.92,5,8.14-.32,1.15-1.65,2.19-.16,3.64,1.33,1.31,2.12,0,3.14-.21a6.07,6.07,0,0,1,6.21,1.8,6.34,6.34,0,0,1,1.19,6.85c-.67,1.65-.45,2.23,1.21,3,3.22,1.47,4.41,5.35,3.22,9.66-.54,1.93-1.34,3.5,1.11,5.06,1.87,1.19,2,3.62.83,5.67-1,1.78-1.22,2.83.92,4.24,2.84,1.87,2.25,5.21,1.57,8-1,3.91-3.28,5.57-7.62,5.89,1.76.91,3.13,1.9,3.42,3.64a8.27,8.27,0,0,1-.35,4.81c-1.59,3.72-3.41,4.71-8.42,4.06a8,8,0,0,1-.17,8.72c-1.54,2.5-3.85,3.13-6.5,3.16s-4-1.44-4.78-3.7c-.37-1.13-.82-1.38-2.07-1.36-2,0-4.4-1-4.46-2.85-.13-3.66-3.4-3.44-5-5.12-.65-.66-1.14-.06-1.7.13-4.69,1.58-8.23-.8-8.36-5.72,0-1.21-.2-2-1.44-2.54-2.79-1.24-3.69-3.69-3.32-6.5a1.85,1.85,0,0,0-1-2.3c-3.42-2.05-4.45-4.93-3.37-8.82a7.51,7.51,0,0,1,7.48-5.91A2.25,2.25,0,0,0,657.94,412Zm4.72-24.71a1.17,1.17,0,0,0,.7,1.22s.26-.19.26-.3c0-.68-.46-.82-1-.89a19.5,19.5,0,0,1-2-6.91C658.71,385.8,658.73,385.88,662.66,387.28Zm12,35.49c1.89,0,2.87-1.41,3.69-2.8a4.27,4.27,0,0,0,.13-4.38c-.42-.76-1-1.33-2-.78a9.68,9.68,0,0,0-4.28,4A2.59,2.59,0,0,0,674.69,422.77Zm-4.49-19.71c.1,1.75-.24,3.08,1.14,3.7a2.34,2.34,0,0,0,2.59-.22,5.94,5.94,0,0,0,2.17-5.05c-.15-1.33-.55-2.8-2.24-3s-2.18,1-2.82,2.1A5.4,5.4,0,0,0,670.2,403.06Zm-28.75-34.28c1.93,0,4.91-3.25,4.71-5.26-.14-1.47-1.22-1.84-2.55-1.85-2.42,0-4.78,2-4.72,4.31C638.93,367.51,639.46,368.89,641.45,368.78Zm41.37,42.5c2.21.07,4.28-1.48,4.18-3.35a3.14,3.14,0,0,0-2.94-3.05,3.8,3.8,0,0,0-4.48,3.57C679.61,410.52,681,411.24,682.82,411.28Zm-25.57,8.88c-.08-1.64.27-3.39-2.11-3.45-1.87,0-3.87,2.15-3.87,4.45,0,1.86,1,3.32,2.88,3.19C656.66,424.18,657.17,422.16,657.25,420.16Zm10.36-9.46c0-1.25-.11-2.52-1.39-3s-2,.66-2.7,1.41a6.08,6.08,0,0,0-1.1,1.52c-.66,1.29-1.39,2.6-.38,4a2,2,0,0,0,2.12.87,4.22,4.22,0,0,0,3.19-3A10.42,10.42,0,0,0,667.61,410.7Zm27.74-9c.14-1.78-.37-3.9-2.15-3.65-2,.27-2.85,2.47-2.78,4.64.05,1.67.17,3.76,2.27,3.59C695.18,406.06,695.28,403.71,695.35,401.69Zm-31.1-20.08c.49,1.8,1,3.93,3.13,3.9,2.25,0,2.49-2.52,2.58-4.13s-.64-3.38-2.74-3.36S664.68,379.91,664.25,381.61Zm9.33-11.43c-.19-2.06-1.63-2.83-3.46-3s-2.37,1.11-2.48,2.55c-.15,1.81,2,4.68,3.25,4.44C673,373.77,673.32,372,673.58,370.18Zm20.69,57a2,2,0,0,0,2.21,2.1c1.71,0,3.73-2.79,3.62-5.11-.06-1.22-.49-2.38-2-2.45S694.31,424.54,694.27,427.14Zm-49.27-54a3.56,3.56,0,0,0-3.53,4c.16,1.59,1,2.77,2.79,2.6,2.21-.2,3-1.78,3.12-3.72A2.38,2.38,0,0,0,645,373.11Zm14.89,30.65a2.78,2.78,0,0,0-2.92-2.84c-2,0-2.47,1.56-2.44,3.2,0,1.9.56,3.85,2.87,3.77C659.32,407.83,659.94,406.17,659.89,403.76ZM655,366c-.08-2-1.5-2.72-3.12-1.95-1.43.68-3.08,4.1-2.61,5.63.36,1.16.92,2.45,2.47,1.42A7.22,7.22,0,0,0,655,366Zm1.17,16.19c-.27-1.73-1.18-3.29-2.83-3.48s-2.6,1.32-2.67,3.07c-.06,1.9.49,3.64,2.59,3.81S655.57,383.74,656.15,382.19ZM680.67,377c.3-1.57-.93-1.91-2.12-2-1.52-.16-3.75,2.24-3.85,4s1,2.24,2.39,2.29C678.8,381.33,680.57,379.21,680.67,377Zm-22.81,19c1.93-.79,2.35-2.62,2.46-4.38a2,2,0,0,0-2.53-2.15c-2.07.29-2.37,2.19-2.47,3.72A2.72,2.72,0,0,0,657.86,396Zm18.26-1c.83.37,1.36.44,1.62-.25s-.29-1.14-.86-1.44c-2.65-1.4-3.08-3.73-2.88-6.45.06-.84,1.32-2.19-.18-2.52-1.22-.27-1.26,1.45-1.75,2.31a1.65,1.65,0,0,0,.44,2.19,2.87,2.87,0,0,1,1,2.94C672.78,394.52,674,395.33,676.12,395.06Zm12.15,23.59c0-1.68-.62-3-2.25-2.91a2.79,2.79,0,0,0-2.59,3,2.65,2.65,0,0,0,2.46,2.78C687.84,421.65,688,419.94,688.27,418.65Zm-3.94,35.13a3.57,3.57,0,0,0,3.38-3.51c0-1-.3-1.78-1.48-1.82-1.7-.07-3.93,1.9-4,3.45C682.27,453.29,683,453.86,684.33,453.78Zm3.17-27.69c-1.64.1-3.71,2.36-3.55,3.76a2.13,2.13,0,0,0,2.2,1.94c1.4.09,3.26-2.29,3.11-3.88A1.9,1.9,0,0,0,687.5,426.09ZM685.06,398c0-1.6-.09-3.42-1.72-3.34s-2.64,1.68-2.74,3.47c-.08,1.53.47,2.74,2.23,2.69S685,399.36,685.06,398Zm-15.39-5.19c.13-1.5-.3-2.38-1.6-2.23-2.26.26-2.77,2.12-3.12,3.92a1.58,1.58,0,0,0,1.82,2.07C669.07,396.32,669.15,394.2,669.67,392.84Zm27.79,19.73a1.43,1.43,0,0,0-1.63-1.26c-1.41,0-3.71,2.88-3.65,4.58,0,1,.64,1.43,1.59,1.42C695.18,417.29,697.54,414.35,697.46,412.57Zm-6.47-23a2.68,2.68,0,0,0-2.36-3.07c-1.2-.11-2,1-2,2.37,0,1.8.79,3.1,2.55,3.2C690.54,392.13,691,390.83,691,389.55Zm-33.78-15.9c-.06,1.57.12,3.22,1.49,3,2-.33,2.3-2.52,2.74-4.24a1,1,0,0,0-1.1-1.45A3,3,0,0,0,657.21,373.65Zm20.73,56.15c-.32-1.05-.78-2.26-2.2-2.14-1.87.16-1.94,1.88-2.09,3.25a1.66,1.66,0,0,0,1.68,2C676.88,432.73,677.74,431.55,677.94,429.8Zm-11.58-7.33c.17-1.68-.67-2.42-1.67-2.32-1.82.17-2.39,1.69-2.56,3.28-.13,1.15.46,2,1.67,1.91C665.66,425.14,666.07,423.58,666.36,422.47ZM690,434.83c-1.84.08-2.47.71-2.31,2.19.33,3-.63,5.64-3.4,8.29,2.27-.64,3.83.09,5.82,0C687.28,441.77,688,438.39,690,434.83Zm-10,4.52c.07,1-.16,2.49,1.35,2.39s2.39-1.42,2.5-3.07c.1-1.32-.52-2.26-1.75-2.27C680.37,436.38,680.06,437.78,680.06,439.35ZM656.11,431a2.13,2.13,0,0,0,2.07,2.41c1.48.1,2-1.2,2-2.39,0-1.41-1-2.05-2.34-2.14C656.38,428.75,656.05,429.72,656.11,431Zm25.09-43.36c0-1.18,0-2.44-1.52-2.42-1.75,0-2.06,1.47-2.24,2.82a1.62,1.62,0,0,0,1.61,2C680.76,390.13,681,388.79,681.2,387.61Zm-19.52,10.51c.69,1.78,1.68,3.36,2,5.2.16.87.78.8,1.44.79,1.33,0,1.3-1,1.33-1.88,0-.59.91-1.56-.33-1.71C664.3,400.29,663.17,399,661.68,398.12Zm30.37,41.75c0,1.19.1,2.48,1.37,2.31,1.57-.21,1.86-1.75,2-3.11.06-.94.2-2.28-1.29-2.08S692.22,438.67,692.05,439.87Zm-28.91,1.75a1.69,1.69,0,0,0,1.42-1.84,2.6,2.6,0,0,0-2.28-2.29c-1-.22-1.51.63-1.53,1.45C660.72,440.38,661.66,441.19,663.14,441.62Zm.07-78.24c-.1-.54.23-1.64-.82-1.54a2.52,2.52,0,0,0-2.22,2.63c0,.81.48,2,1.55,1.83C663.07,366,663.26,364.72,663.21,363.38ZM667,432.74c.18.6-.2,2,.89,1.72,1.48-.36,1.44-2.11,1.74-3.37.16-.68-.09-1.78-1-1.55C667.21,429.91,667.15,431.37,667,432.74Zm9.12-21.88c-2.13.11-5.28-1.13-5,3Zm2.22,35.89c-.17-.66-.57-1.35-1.33-1.39-1.06-.05-1.61.77-1.73,1.72a1.32,1.32,0,0,0,1.33,1.66C677.71,448.73,677.92,447.68,678.33,446.75Zm-5.92-6.48c-.07-.8-.16-1.72-1.11-1.58-1.14.16-1.5,1.18-1.55,2.24,0,.68.15,1.34,1,1.34C672.06,442.27,672.19,441.19,672.41,440.27Zm10.19-15.79a1.39,1.39,0,0,0-1.38-1.05,1.53,1.53,0,0,0-1.45,1.58c0,.62.39,1.59,1.23,1.4S682.15,425.19,682.6,424.48Z" transform="translate(-564.46 -265.65)"/><path class="cls-2" d="M635.94,469.61l.11-.22-.14.18Z" transform="translate(-564.46 -265.65)"/></svg>