<?xml version="1.0" encoding="utf-8"?>
<!-- Generator: Adobe Illustrator 25.2.2, SVG Export Plug-In . SVG Version: 6.00 Build 0)  -->
<svg version="1.1" id="Calque_1" xmlns="http://www.w3.org/2000/svg" xmlns:xlink="http://www.w3.org/1999/xlink" x="0px" y="0px"
	 viewBox="0 0 71.51 61.14" style="enable-background:new 0 0 71.51 61.14;" xml:space="preserve">
<style type="text/css">
	.st0{fill:#FB87D4;}
	.st1{fill:#FEFAFC;}
</style>
<g id="mnT5Sb.tif">
	<g>
		<path class="st0" d="M0,42.78c0-1.98,0-3.96,0-5.94c1.14-2.33,0.54-4.9,1.05-7.34c2.05-9.89,11.1-14.98,17.8-12.68
			c1.44,0.49,1.62-0.14,1.67-1.39c0.24-5.98,3.36-10.32,8.18-13.5c3.78-2.49,8.56-2.66,11.03,0.04c1.71,1.87,2.98,1.6,4.78,0.75
			c0.88-0.42,1.87-0.68,2.83-0.85c2.74-0.49,5.66,0.65,6.6,3.07c1.19,3.06,2.22,6.06,4,8.95c1.54,2.5,2.77,4.94,5.11,6.94
			c4.24,3.62,7.47,8.07,8.26,13.81c1.21,8.83-3.35,15.02-12.78,17.29c-1.63,0.39-2.91,0.96-3.95,2.41c-1.89,2.61-4.56,4.23-7.6,5.35
			c-1.59,0.58-3.37,0.47-4.81,1.46c-0.54,0-1.08,0-1.62,0c-1.69-0.97-3.42-1.04-5.37-0.74c-4.23,0.64-8.66,0.4-11.12-3.53
			c-1.52-2.43-2.85-2.4-5.08-1.96c-6.62,1.31-15.54-1.27-17.94-10.32C0.86,43.91,0.7,43.18,0,42.78z M65.43,43.33
			c-0.64,0.08-1.01,0.42-1.09,1.07c-2.04,1.06-4.09,2.12-6.13,3.18c0.13,0.21,0.26,0.42,0.38,0.63c1.89-1.31,4.62-1.24,5.73-3.83
			c0.71-0.01,1.05-0.4,1.07-1.09c0.08-0.06,0.17-0.12,0.25-0.17c-0.05,0.01-0.11,0-0.13,0.03C65.47,43.2,65.46,43.27,65.43,43.33z
			 M21.1,32c-1.38,0.64-1.82,1.92-2.11,3.24c-0.12,0.56-0.24,1.36,0.67,1.48c0.7,0.1,0.89-0.48,0.96-1.03
			c0.16-1.24,0.3-2.48,0.44-3.73c0.03-0.04,0.06-0.09,0.1-0.13C21.14,31.89,21.12,31.94,21.1,32z M58.85,42.73
			c2.36-0.89,3.72-2.17,4.9-3.63c2.92-3.61,1.94-10.78-1.82-13.29c-0.63-0.42-1.64-1.54-2.22-0.27c-0.77,1.67-1.89,3.82-1.41,5.28
			C59.58,34.7,59.79,38.47,58.85,42.73z M24.38,14.04c-0.07,0.99-0.1,1.93,1.37,1.31c2.51-1.06,5.29-1.52,7.08-4.01
			c1.08-1.5,2.53-2.83,4.05-3.91c2.07-1.47,1-2.23-0.41-3.04c-0.99-0.57-2.07-0.53-3.14-0.29C29.65,4.89,24.78,10.32,24.38,14.04z
			 M44.33,47.05c2.79-0.05,5.5-0.61,8.05-1.62c2.58-1.03,3-5.37,0.85-7.06c-0.49-0.38-0.89-0.49-1.41-0.08
			C48.79,40.71,45.23,42.65,44.33,47.05z M45.5,52.07c-4.3-1.46-8.58-0.08-12.92-1.01C35.1,56.81,38.25,57.29,45.5,52.07z
			 M48.33,5.58c-1.38,0.18-2.7,0.68-3.97,1.35c-0.68,0.36-1.15,0.8-1.07,1.66c0.08,0.91,0.66,1.15,1.45,1.24
			c1,0.1,1.86,0.55,2.7,1.07c0.86,0.54,1.72,1.57,2.84,0.58c1.13-0.99,1.23-2.31,0.78-3.68C50.65,6.52,49.86,5.63,48.33,5.58z
			 M15.28,40.75c-5.42-7.68,0.54-11.32,5.32-15.45c-4.48,0.12-8.81,5.14-9.2,10.46C11.19,38.71,12.19,40.15,15.28,40.75z
			 M9.45,29.16c-3.63,2.32-5.13,5.41-4.41,8.2c0.91,3.5,3.89,6.57,6.44,6.63C6.22,39.99,7.13,34.94,9.45,29.16z M6.64,47.34
			c4.06,4.56,8.92,4.54,14.02,3.42c0.79-0.17,2.1-0.28,1.77-1.51c-0.26-0.99-1.4-0.56-2.1-0.4c-3.52,0.81-6.94,0.49-10.31-0.74
			C9.05,47.77,8.22,46.88,6.64,47.34z M16.82,20.23c-4.46-0.12-7.75,1.68-9.68,5.61C10.29,23.05,14.25,23.34,16.82,20.23z
			 M30.54,56.77c0-1.65-1.1-2.68-1.56-3.95c-0.27-0.73-0.63-1.28-1.56-0.72c-0.83,0.5-1.11,1.05-0.64,1.97
			C27.52,55.57,28.88,56.15,30.54,56.77z M32.29,19.31c2.17-0.88,4.67-1.21,7.02-3.14C35.77,15.3,34.1,17.4,32.29,19.31z"/>
		<path class="st1" d="M21.1,32c0.02-0.06,0.04-0.11,0.06-0.17c-0.03,0.04-0.06,0.09-0.1,0.13C21.07,31.96,21.1,32,21.1,32z"/>
	</g>
</g>
</svg>
