<?xml version="1.0" encoding="utf-8"?>
<!-- Generator: Adobe Illustrator 25.2.2, SVG Export Plug-In . SVG Version: 6.00 Build 0)  -->
<svg version="1.1" id="Calque_1" xmlns="http://www.w3.org/2000/svg" xmlns:xlink="http://www.w3.org/1999/xlink" x="0px" y="0px"
	 viewBox="0 0 340.1 156.16" style="enable-background:new 0 0 340.1 156.16;" xml:space="preserve">
<style type="text/css">
	.st0{fill:#FB8DD6;}
	.st1{fill:#FEFEFE;}
</style>
<path class="st0" d="M0.21,128.2c2.16-7.79,6.01-14.73,10.36-21.46c8.64-13.33,18.34-25.85,28.75-37.85
	C51.45,54.91,63.9,41.22,77.24,28.39c9.28-8.92,18.88-17.5,28.87-25.62c0.77-0.63,1.55-1.3,2.43-1.75c1.63-0.84,3.44-1.63,5.12-0.33
	c1.7,1.31,1.39,3.18,0.84,4.99c-2.48,8.05-6.9,15.18-10.83,22.53C97.14,40.44,90.23,52.48,83.67,64.7
	c-12.76,23.76-23.79,48.32-33.7,73.4c-1.47,3.71-2.67,7.51-3.52,11.41c-0.18,0.8-0.52,1.83,0.13,2.32c0.72,0.56,1.51-0.25,2.15-0.71
	c5.91-4.27,11.02-9.43,16.08-14.63c10.58-10.85,21.12-21.74,31.61-32.67c9.87-10.28,20.08-20.21,30.59-29.81
	c8.89-8.12,17.74-16.35,28.09-22.69c2.4-1.47,4.85-2.83,7.83-2.76c3.05,0.08,4.64,1.53,4.84,4.61c0.25,3.79-0.75,7.37-1.85,10.92
	c-2.01,6.49-4.34,12.88-5.94,19.49c-1.46,6.01,0.02,7.52,5.92,5.72c6.72-2.05,12.79-5.57,18.88-8.97
	c15.52-8.65,30.71-17.95,47.08-24.99c6.16-2.65,12.42-5.14,19.31-5.1c5.22,0.04,8.59,2.4,10.29,7.28c0.51,1.45,0.82,2.96,1.17,4.46
	c1.38,6.01,3.23,7.42,9.53,7.92c13.15,1.05,25.7-1.96,38.21-5.34c8.7-2.35,17.01-5.66,25.04-9.75c1.33-0.68,3.14-2.25,4.31-0.25
	c1.3,2.21-1.06,2.97-2.45,3.72c-11.92,6.38-24.73,10.27-37.86,13.2c-7.8,1.74-15.71,2.67-23.7,2.68c-3.24,0.01-6.47-0.46-9.63-1.41
	c-3.72-1.12-5.73-3.62-6.7-7.18c-0.55-2.01-0.92-4.07-1.54-6.05c-1.32-4.23-4.39-5.92-8.8-5.28c-6.36,0.92-12.28,3.15-18.03,5.83
	c-10.95,5.09-21.52,10.9-32.01,16.88c-9.52,5.43-18.85,11.26-29.13,15.24c-2.46,0.95-4.96,1.71-7.65,1.71
	c-4.88,0-7.5-3.12-6.76-7.94c0.84-5.5,2.73-10.69,4.4-15.95c1.42-4.49,2.97-8.94,3.81-13.59c0.23-1.25,0.77-2.68-0.28-3.61
	c-1.14-1.03-2.4-0.02-3.51,0.53c-6.26,3.06-11.49,7.59-16.77,12c-13.66,11.4-26.43,23.79-38.95,36.41
	c-12.53,12.62-24.68,25.61-37.08,38.36c-4.86,5-9.79,9.96-15.51,14.02c-0.66,0.47-1.36,0.92-2.09,1.26
	c-4.17,1.92-7.07,0.12-7.06-4.44c0.01-4.25,1.48-8.21,2.97-12.08c6.6-17.19,14.06-34.01,21.9-50.67
	c10.16-21.62,22.04-42.31,33.49-63.23c3.43-6.26,7.31-12.34,9.34-19.3c0.05-0.14,0.11-0.28,0.16-0.42c-0.13,0.06-0.27,0.12-0.4,0.18
	c-4.05,2.3-7.32,5.61-10.78,8.62c-11.28,9.83-22.28,19.98-32.53,30.91C47.77,65,29.26,85.29,14.31,108.49
	c-4.27,6.62-8.6,13.25-10.3,21.14c-0.28,1.28-0.87,2.62-2.58,1.95C-0.1,130.99-0.21,129.69,0.21,128.2"/>
<path class="st1" d="M109.87,5.43c0.13-0.06,0.27-0.12,0.4-0.18c-0.05,0.14-0.11,0.28-0.16,0.42
	C110.03,5.59,109.95,5.51,109.87,5.43z"/>
</svg>
