<?xml version="1.0" encoding="utf-8"?>
<!-- Generator: Adobe Illustrator 25.2.2, SVG Export Plug-In . SVG Version: 6.00 Build 0)  -->
<svg version="1.1" id="Calque_1" xmlns="http://www.w3.org/2000/svg" xmlns:xlink="http://www.w3.org/1999/xlink" x="0px" y="0px"
	 viewBox="0 0 196.52 242.34" style="enable-background:new 0 0 196.52 242.34;" xml:space="preserve">
<style type="text/css">
	.st0{fill:#FB8DD6;}
</style>
<path class="st0" d="M70.46,0.12c22.02,0.35,39.78,9.26,53.54,26.5c4.26,5.34,8.38,10.63,10.99,17.01
	c2.75,6.71,4.05,13.77,4.63,20.87c0.64,7.9,1.66,15.87-0.66,23.77c-2.98,10.16-7.42,19.44-14.69,27.26
	c-2.28,2.46-4.36,5.11-6.88,7.34c-1.18,1.04-1.3,1.92-0.27,3.21c2.21,2.76,4.27,5.63,6.36,8.47c0.58,0.79,1.07,1.41,2.17,0.67
	c1.78-1.18,3.2-0.52,4.5,0.98c6.39,7.31,12.14,15.1,17.62,23.1c8.14,11.9,17.27,23.08,25.53,34.88
	c6.97,9.95,14.43,19.51,21.95,29.04c1.78,2.25,1.67,4.48-0.39,6.92c-4.42,5.24-10.13,8.74-16.2,11.68c-2.17,1.05-4.2,0.48-5.8-1.46
	c-7.42-8.93-13.97-18.5-20.78-27.88c-8.94-12.32-17.71-24.77-26.37-37.29c-5.31-7.67-10.35-15.53-16.18-22.82
	c-1.19-1.49-2.14-2.97-0.45-4.77c0.64-0.68,0.06-1.33-0.37-1.93c-2.32-3.24-4.68-6.46-6.9-9.77c-0.84-1.24-1.56-1.3-2.92-0.79
	c-10.15,3.83-20.58,6.64-31.53,6.06c-18.13-0.97-34.44-6.47-47.23-20.14c-4.59-4.9-9.03-9.88-12.43-15.73
	C4,98.91,2,91.88,1.03,84.74c-1.75-12.83-1.57-25.67,2.95-38.11c5.81-15.98,16.11-28.15,30.83-36.6c8.81-5.06,18.28-8.32,28.32-9.85
	C65.51-0.19,68.01,0.12,70.46,0.12z M4.12,71.65c-0.56,7.64,0.97,15.62,3.6,23.39c4.66,13.81,14.06,24.12,25.8,32
	c10.79,7.24,23.26,10.15,36.32,10.4c4.88,0.1,9.6-0.78,14.21-1.86c6.66-1.56,13.41-3.12,19.33-6.91
	c7.16-4.58,13.23-10.3,18.74-16.78c6.11-7.19,10.23-15.3,12.86-24.3c2.27-7.78,1.64-15.64,0.79-23.46
	c-0.62-5.64-1.41-11.36-3.57-16.66c-6.05-14.84-16.26-26.33-29.77-34.66C92.9,6.94,82.31,3.96,70.96,3.76
	c-10.71-0.18-20.42,3.02-30.03,7.36c-12.4,5.61-21.58,14.76-28.34,26.11C6.5,47.46,3.56,58.91,4.12,71.65z M192.44,226.87
	c-0.03-0.95-0.7-1.37-1.14-1.91c-14.41-18.07-27.66-37-41.35-55.6c-6.87-9.33-13.48-18.86-20.4-28.16
	c-1.43-1.91-2.55-2.13-4.42-0.65c-3.34,2.64-6.74,5.21-10.3,7.54c-1.93,1.26-1.8,2.21-0.58,3.86c5.57,7.48,10.68,15.29,16.08,22.88
	c11.7,16.45,23.08,33.13,35.3,49.21c3.18,4.18,6.28,8.43,9.45,12.62c0.76,1.01,1.58,2.12,3.14,1.15c4.54-2.81,9.34-5.25,13-9.28
	C191.7,228,192.07,227.38,192.44,226.87z M113.15,144.37c0.18-0.08,0.45-0.16,0.66-0.31c2.19-1.6,4.35-3.25,6.58-4.79
	c1.02-0.7,0.66-1.24,0.12-1.97c-2.25-3.06-4.47-6.15-6.7-9.23c-0.51-0.71-1-1.29-1.97-0.57c-2.04,1.5-4.1,2.97-6.18,4.41
	c-0.89,0.61-1.18,1.15-0.42,2.15c2.29,3.03,4.49,6.13,6.72,9.21C112.26,143.69,112.45,144.24,113.15,144.37z"/>
<path class="st0" d="M122.42,73.67c-0.19,17.16-6.95,31.11-20.74,41.38c-7.2,5.36-15.28,9.14-24.17,10.68
	c-4.27,0.74-8.67,0.28-13-0.34c-6.08-0.87-12.2-1.43-17.9-4.11c-14.99-7.05-24.71-18.44-29.44-34.36
	c-4.49-15.13-1.43-29.25,5.3-42.83c2.72-5.48,7.29-9.72,12.27-13.3c7.52-5.41,15.15-10.57,24.69-11.92
	c12.69-1.8,24.69-0.4,35.75,6.6c7.98,5.05,15.17,10.85,19.94,19.24c3.6,6.33,5.07,13.33,6.68,20.28
	C122.46,67.84,122.49,70.76,122.42,73.67z M118.61,73.25c0.48-30.84-26.8-53.64-53.75-50.97c-22.59,2.24-47.04,20.7-45.89,51.95
	c0.94,25.51,20.68,49.13,54.12,47.76C94.76,121.1,118.79,101.94,118.61,73.25z"/>
</svg>
