<?xml version="1.0" encoding="utf-8"?>
<!-- Generator: Adobe Illustrator 25.2.2, SVG Export Plug-In . SVG Version: 6.00 Build 0)  -->
<svg version="1.1" id="Calque_1" xmlns="http://www.w3.org/2000/svg" xmlns:xlink="http://www.w3.org/1999/xlink" x="0px" y="0px"
	 viewBox="0 0 153.38 174.78" style="enable-background:new 0 0 153.38 174.78;" xml:space="preserve">
<style type="text/css">
	.st0{fill:#FB88D4;}
	.st1{fill:#FEFCFD;}
</style>
<path class="st0" d="M108,101.71c7.39-5.16,13.95-10.57,21.07-15.22c4.85-3.17,9.56-6.56,14.32-9.87c1.93-1.34,3.78-1.46,5.78-0.08
	c1.64,1.13,2.78,2.61,3.53,4.38c1.47,3.46,0.58,5.98-2.99,8.58c-13.75,10.03-27.53,20.01-41.04,30.37
	c-1.76,1.35-2.17,2.45-0.69,4.41c4.1,5.41,7.72,11.18,12.3,16.24c1.64,1.81,1.05,4.34-1.04,6.18c-4.42,3.89-9.43,7.05-13.92,10.81
	c-6.61,5.53-13.82,10.27-20.39,15.84c-2.47,2.09-3.01,1.88-5.23-0.53c-3.93-4.27-8.78-7.59-12.54-12.03
	c-2.27-2.68-4.84-5.03-7.5-7.27c-2.89-2.44-3.1-6.46-5.7-9.06c-1-1-1.67-2.3-2.96-3.09c-1.49-0.9-2.53-2.13-3.19-3.88
	c-0.63-1.66-1.76-2.77-4.2-2.26c-4.61,0.95-9.22-0.26-13.69-1.38c-7.74-1.95-15.23-4.54-22.15-8.76c-3.05-1.85-4.21-4.12-4.39-7.37
	c-0.35-6.6-0.6-13.22-1.19-19.8c-0.88-9.85-0.83-19.73-1.44-29.59c-0.2-3.18,0.29-6.34,0.34-9.5c0.14-8.62-0.23-17.23-0.96-25.81
	C-1.01,19.71,5.15,13.03,17.3,7.47c10.11-4.63,20.67-6.71,31.81-7.26c14.76-0.73,29.14,0.32,43.02,5.64
	c5.46,2.09,10.5,4.91,14.29,9.55c1.63,2,2.2,4.3,2.17,6.84c-0.37,25.33-0.76,50.66-0.58,75.99C108.01,99.21,108,100.2,108,101.71z
	 M102.56,24.38c-0.49-0.06-0.88,0.07-1.1,0.54c-0.69,0.01-1.14,0.5-1.66,0.85c-6.52,4.34-13.36,8.01-20.97,10.09
	c-2.16,0.59-4.28,1.31-6.41,1.97c8.56-1.42,16.8-3.76,23.95-8.81c1.76-1.24,4.4-1.51,5.07-4.12c0.49,0.07,0.87-0.06,1.09-0.54
	c0.18-0.18,0.37-0.36,0.55-0.55c0.7-0.03,1.06-0.39,1.08-1.09c0.21-0.2,0.73-0.32,0.18-0.71c-0.05,0.25-0.1,0.5-0.15,0.74
	c-0.74-0.02-1.1,0.35-1.1,1.08C102.76,23.85,102.57,24.02,102.56,24.38z M20.76,81.6c0.12-0.67-0.12-1.22-0.49-1.77
	c-3.04-4.51-5.66-9.24-7.85-14.22c-0.84-1.93-1.88-3.77-2.84-5.64c1.25,4.87,3.2,9.4,5.76,13.61c1.67,2.75,2.89,5.84,5.43,8.01
	c1.98,3.97,4.9,7.29,7.45,10.86c6.85,9.56,16.18,16.02,26.47,21.29c0.65,0.33,1.29,0.66,2.06,0.54c0.03,0.07,0.04,0.14,0.09,0.2
	c0.03,0.03,0.1,0.02,0.15,0.03c-0.09-0.07-0.17-0.14-0.26-0.21c-0.22-0.27-0.39-0.63-0.68-0.79c-13.2-7.12-23.69-17.22-32.53-29.2
	C22.8,83.32,22.44,81.71,20.76,81.6z M4.46,38.61c0,1.69,0.09,3.03-0.02,4.35c-0.14,1.69,0.25,2.42,2.18,2.84
	c3.88,0.83,5.67,4.14,4.86,8.07c-0.17,0.8-0.35,1.48,0.1,2.32c1.9,3.51,3.74,7.05,5.51,10.62c0.58,1.16,1.39,1.91,2.61,2.15
	c8.08,1.58,16.19,3,24.43,3.33c8.45,0.34,16.84-0.44,25.11-2.2c11.2-2.38,22.13-5.53,32.08-11.49c2.12-1.27,3.06-2.69,2.94-5.23
	c-0.15-3.24-0.09-6.5,0.26-9.78c0.55-5.15-0.16-10.36,0.7-15.77c-5.12,3.51-9.78,7-15.23,9.1c-18.83,7.26-38.36,9.7-58.41,8.18
	C22.31,44.41,12.96,43.92,4.46,38.61z M20.92,73.16c-0.02,1.16,0.71,1.8,1.2,2.53c4.61,6.87,9.98,13.09,15.68,19.07
	c6.13,6.43,13.25,11.48,21.01,15.69c0.88,0.48,1.77,0.88,2.75,0.02c3.47-3.04,7.25-5.79,10.16-9.38c1.47-1.81,3.14-3.26,4.97-4.56
	c2.78-1.97,4.75-1.52,6.98,1.22c3.49,4.28,7.04,8.51,10.52,12.8c0.63,0.78,1.18,1.07,2.01,0.38c2.44-2.02,4.88-4.05,7.32-6.07
	c0.64-0.53,0.61-1.26,0.62-1.99c0.01-13.07,0.01-26.14,0.06-39.2c0.01-1.72-0.59-1.88-1.9-1.04c-2.68,1.72-5.53,3.12-8.48,4.29
	c-10.65,4.22-21.64,7.19-33.01,8.55c-7.38,0.88-14.8,1.05-22.23,0.24C32.68,75.06,26.83,74.05,20.92,73.16z M54.16,117.89
	c-0.92-0.48-1.39-0.73-1.87-0.99c-9.73-5.23-18.92-11.13-25.7-20.13C20.47,88.66,14.4,80.52,9.87,71.38
	c-0.89-1.79-2.62-1.64-3.97-1.64c-1.68,0-0.9,1.7-0.9,2.61c0.02,4.26,0.07,8.5,0.4,12.77c0.79,10.29,1.16,20.61,1.85,30.91
	c0.12,1.78-0.2,3.94,1.71,5.18c9.64,6.26,20.37,9.24,31.68,10.38c0.85,0.09,2.32,0.09,2.38-1.21c0.09-2.02,1.51-3.04,2.69-4.23
	C48.38,123.44,51.15,120.82,54.16,117.89z M109.53,148.89c-0.39-0.42-0.87-0.94-1.35-1.46c-11.13-12.18-21.98-24.6-32.08-37.66
	c-1-1.29-1.75-3.31-3.02-3.69c-1.5-0.45-2.42,1.77-3.61,2.79c-7.12,6.07-13.68,12.73-20.31,19.32c-1.37,1.36-1.59,2.54-0.28,3.96
	c1.5,1.64,2.2-0.08,3.04-0.79c5.68-4.79,11.3-9.65,17.02-14.39c1.35-1.12,3.1-3.49,4.78-1.46c1.9,2.3-0.87,3.55-2.36,4.84
	c-5.82,5.04-11.68,10.04-17.48,15.11c-0.6,0.52-2.16,1.05-0.89,2.23c1.21,1.13,1.7-0.43,2.32-1c2-1.84,3.87-3.82,5.88-5.65
	c0.9-0.82,2.06-1.36,3.13-0.19c1.14,1.24,0.57,2.3-0.49,3.27c-1.8,1.66-3.49,3.46-5.4,4.97c-2.16,1.71-1.64,3.13-0.15,4.96
	c1.63,2,2.86,1.18,4.24-0.16c0.45-0.44,0.99-0.79,1.49-1.18c6.7-5.11,13.33-10.33,20.44-14.89c1.14-0.73,2.46-1.42,3.23,0.12
	c0.63,1.27,0.21,2.59-1.31,3.4c-1.68,0.89-3.31,1.91-4.82,3.04c-6.09,4.58-12.14,9.2-18.15,13.88c-0.59,0.46-2.41,0.92-1.09,2.09
	c0.94,0.84,1.81,3.1,3.91,1.12c2.16-2.05,4.56-3.85,6.9-5.7c1.01-0.8,2.31-1.63,3.38-0.36c1.06,1.26,0.41,2.58-0.73,3.56
	c-1.99,1.71-4.04,3.36-6.05,5.06c-0.97,0.83-2.15,1.67-0.56,2.99c1.12,0.94,1.76,2.73,3.86,0.89c4.64-4.05,9.17-8.25,14.22-11.82
	c1.31-0.92,2.56-3.12,4.28-1.06c1.84,2.21-0.68,3.14-1.92,4.2c-4.67,4.02-9.43,7.94-14.14,11.93c-0.54,0.46-1.65,0.8-0.72,1.88
	c0.73,0.85,1.55,1.27,2.61,0.58c0.3-0.2,0.58-0.43,0.87-0.66c5.72-4.61,11.4-9.24,17.16-13.79c1.34-1.06,3.11-2.93,4.61-0.79
	c1.38,1.97-0.95,2.95-2.21,3.96c-5.6,4.47-11.25,8.86-16.86,13.32c-0.63,0.5-1.84,1.05-0.76,2.1c1.23,1.19,2.39,2.29,4.39,0.75
	c7.89-6.09,15.91-12.01,23.88-18C108.91,150.13,109.57,149.87,109.53,148.89z M60.41,15c5.68,0.36,12.28,0.66,18.86,1.24
	c5.38,0.48,10.81,1.7,15,5.05c2.91,2.32,4.1,0.79,5.83-0.77c0.6-0.54,0.98-1.3,1.56-1.86c1.14-1.11,0.86-1.98-0.25-2.91
	c-2.8-2.34-5.82-4.33-9.19-5.74C80.04,4.93,67.2,3.54,54.19,3.84c-4.39,0.1-8.84,0.23-13.26,0.84C29.79,6.21,19.38,9.62,10.29,16.32
	C6.45,19.16,4.2,23.21,4.3,28.25c0.05,2.41,2.04,2.69,3.64,3.44c0.96,0.45,1.78,0.49,2.31-0.54c3.23-6.29,9.3-8.6,15.35-10.82
	C36.54,16.32,47.98,15.42,60.41,15z M38.59,36.98c8.7-0.05,17.38-0.67,26-1.75c9.34-1.17,18.16-4.14,26.46-8.61
	c0.79-0.42,1.4-1.01,1.41-1.85c0.01-0.87-0.95-0.98-1.56-1.29c-5.18-2.68-10.82-3.74-16.52-3.9c-7.77-0.22-15.52-1.03-23.36-0.22
	c-8.59,0.89-17.11,1.95-25.19,5.07c-3.95,1.52-7.99,3.15-10.77,6.62c-2.01,2.52-1.87,2.8,1.18,3.57
	C23.58,36.49,31.06,37.01,38.59,36.98z M149.47,83.17c-0.22-1.1-1.03-2.35-2.34-3.29c-0.74-0.53-1.29-0.22-1.95,0.24
	c-6.83,4.79-13.83,9.35-20.48,14.36c-8.9,6.71-18.23,12.83-26.66,20.16c-2.29,1.99-3.61,1.84-5.56-0.41
	c-3.67-4.25-7.23-8.59-10.91-12.84c-0.77-0.89-1.49-2.93-3.08-1.22c-1.09,1.17-3.07,2.09-1.12,4.64
	c10.69,13.99,22.27,27.19,34.08,40.22c2.57,2.84,3.1-0.39,4.41-0.93c1.74-0.72,0.67-1.81-0.13-2.76
	c-4.38-5.22-8.06-10.95-11.94-16.53c-2.12-3.06-1.81-4.7,0.97-7c2.17-1.79,4.36-3.55,6.63-5.21c12.13-8.9,24.28-17.77,36.43-26.64
	C148.63,85.37,149.54,84.88,149.47,83.17z M10.8,37.34c18.36,5.55,36.97,5.34,55.7,1.91C47.86,40.65,29.2,42.87,10.8,37.34z
	 M5,51.23c0.01,1.15-0.04,2.36,1.43,2.54c0.99,0.12,1.61-0.68,1.57-1.5c-0.06-1.34-0.84-2.52-2.23-2.67
	C4.67,49.49,5.16,50.65,5,51.23z M5.42,61.29c-0.16,0.03-0.32,0.07-0.48,0.1c0,1.11-0.03,2.23,0.01,3.34c0.03,0.79,0.59,1.06,1.3,1
	c1.1-0.1,0.7-0.79,0.48-1.35C6.32,63.35,5.86,62.32,5.42,61.29z M9.6,36.65c-0.04-0.05-0.07-0.13-0.12-0.15
	c-0.06-0.02-0.15,0.01-0.22,0.02c0.05,0.08,0.09,0.17,0.15,0.23C9.43,36.76,9.53,36.68,9.6,36.65z"/>
<path class="st1" d="M9.6,36.65c-0.06,0.04-0.17,0.11-0.19,0.1c-0.07-0.06-0.11-0.15-0.15-0.23c0.07-0.01,0.16-0.04,0.22-0.02
	C9.53,36.51,9.56,36.59,9.6,36.65z"/>
<path class="st1" d="M56.74,114.29c0.09,0.07,0.17,0.14,0.26,0.21c-0.05-0.01-0.13,0-0.15-0.03c-0.05-0.05-0.06-0.13-0.09-0.2
	C56.76,114.28,56.74,114.29,56.74,114.29z"/>
</svg>
