<?xml version="1.0" encoding="utf-8"?>
<!-- Generator: Adobe Illustrator 25.2.2, SVG Export Plug-In . SVG Version: 6.00 Build 0)  -->
<svg version="1.1" id="Calque_1" xmlns="http://www.w3.org/2000/svg" xmlns:xlink="http://www.w3.org/1999/xlink" x="0px" y="0px"
	 viewBox="0 0 774.93 369.27" style="enable-background:new 0 0 774.93 369.27;" xml:space="preserve">
<style type="text/css">
	.st0{fill:#FEFEFE;}
	.st1{fill:#FB8DD6;}
</style>
<path class="st0" d="M168.81,5.97c0.07,0.12,0.15,0.23,0.22,0.35c-0.13-0.06-0.25-0.12-0.38-0.18
	C168.65,6.14,168.81,5.97,168.81,5.97z"/>
<g>
	<path class="st1" d="M39.6,353.77c0,0,0-0.01,0-0.01c-0.01,0-0.02,0-0.03-0.01L39.6,353.77z"/>
	<path class="st1" d="M217.29,263.84c0-0.02,0-0.04,0-0.05c-0.01,0.01-0.02,0.02-0.04,0.03
		C217.26,263.81,217.29,263.84,217.29,263.84z"/>
	<path class="st1" d="M702.42,169.38c-2.08-0.64-4.06-1.53-6.27-1.5c-0.24,0-1.17,0.34-0.76-0.4c0.84-1.52-0.17-1.14-0.93-1.06
		c-0.43,0.05-1.1,0.42-1.25,0.26c-1.25-1.37-3.06-1.06-4.54-1.28c-0.99-0.14-2.99-1.88-3.51,0.83c-2.94-0.87-5.92,0.73-8.8-0.09
		c-1.07-0.31-2.83,0.19-3.15-1c-0.66-2.4-2.22-1.4-3.68-1.54c0.63,0.94,1.79-0.05,2.65,1.64c-5.31-2.49-10.11-0.28-14.99-0.15
		c0.9,0.06,1.81,0.12,2.71,0.18c-3.27,0.91-6.55,1.1-9.98,0.94c0.38-1.02,1.46-0.76,1.88-1.39c-1.54-1.5-3.12-0.02-4.69-0.13
		c-5.26-0.34-10.44-0.8-15.81,0.33c-7.78,1.63-15.9,0.54-23.8,1.77c-1.61,0.25-3.25,0.12-4.45,1.62c-0.34,0.43-1.11,0.24-1.89,0.07
		c-2.23-0.49-4.25-2.11-6.8-1.38c-5.68,1.64-11.59,2.57-17.41,2.25c-5.25-0.29-9.99,2.35-15.18,1.4c1.88,0.8,4.02,0.32,6.31,2.1
		c-4-0.71-7.08,0.82-10.43,0.73c-3.32-0.08-6.65,0.7-9.81,1.96c4.7-0.24,9.37-0.62,14.03-1.18c3.28-0.39,6.66-0.42,9.79-0.93
		c2.71-0.44,5.56,0.03,8.27-1.09c2.38-0.99,5.12-0.1,7.69-0.2c4.39-0.16,8.82-2.33,13.12,0.46c0.34,0.22,0.89,0.2,1.33,0.15
		c3.62-0.41,7.25-0.75,10.84-1.33c4.78-0.77,9.61-1.76,14.4-1.21c3.61,0.41,7.14,0.03,10.34-0.9c3.98-1.16,7.89-1.4,11.9-1.42
		c0.35,0,0.87-0.31,1.06,0.38c0.34,1.22,0.38,1.28,0.73,1.24c3.82-0.38,7.56,0.53,11.36,0.6c6.01,0.1,12.02,0.48,18.02,0.9
		c3.54,0.25,7.06,0.83,10.59,1.17c0.7,0.07,1.93,0.52,2.03-0.58c0.09-1.02-1.14-0.79-1.89-1.03c-2.67-0.84-5.4-0.31-8.1-0.53
		c-1.82-0.15-3.73,0.58-5.45-0.51c0.91,0,1.83,0,3.45,0c-1.29-0.73-1.88-1.08-2.7-1.54c1.43,0,2.51,0,3.59,0
		c-0.35,3.1,2.04,0.83,2.94,1.48c0.02,0.02,0.18-0.15,0.29-0.25c-0.42-0.18-0.8-0.33-1.17-0.49
		C690.38,168.57,696.41,168.46,702.42,169.38z M592.73,169.43L592.73,169.43l0.12,0.14C592.84,169.57,592.73,169.43,592.73,169.43z"
		/>
	<path class="st1" d="M196,82.32c0.01,0.01,0.01,0.01,0.02,0.02c0.01,0,0.01,0,0.02,0.01L196,82.32z"/>
	<path class="st1" d="M372.97,225.27c-2.83,0.6-5.51,2.02-8.53,1.51c0.01-0.01,0.01-0.01,0.02-0.02c-0.01,0-0.01,0-0.02,0.01
		c-0.02-0.45,1.21-0.52,0.24-1.38c-0.72-0.64-1.09-0.61-1.81-0.27c-3.74,1.76-8.3,1.56-11.45,4.78c-0.24,0.25-1.24-0.47-1.05,0.53
		c0.21,1.09,0.92,0.34,1.47,0.23c2.24-0.46,4.19-2.05,6.63-1.71c0,0.01-0.01,0.01-0.02,0.02c0,0,0,0,0.01,0
		c-1.03,1.49-2.67,1.9-4.23,2.57c-2.74,1.17-5.24,3.01-8.06,3.86c-6.19,1.87-11.94,4.75-17.78,7.36c-6.17,2.76-12.19,5.9-18.37,8.68
		c-2.1,0.94-4.13,2.12-6.36,2.9c0.51,0.81,0.96,0.65,1.53,0.44c5.49-1.99,10.74-4.55,16.07-6.89c10.68-4.66,21.54-8.84,32.25-13.41
		c0.86-0.37,1.2,0.73,1.89-0.06c1.43-1.65,2.87-3.46,5.56-1.99c0.39,0.21,1.63-0.08,2.13-0.89c0.14-0.22,0.14-0.5-0.2-0.59
		c-2.04-0.59-0.43-1.07,0.12-1.24c0.93-0.28,1.8-0.82,2.86-0.69c2.82,0.34,5.49-0.13,7.93-1.66c1.18-0.74,0.45-2,0.21-2.49
		C373.36,223.56,373.33,225.2,372.97,225.27z"/>
	<path class="st1" d="M482.21,188.7c-1.15,1-2.19,1.06-3.32,1.04c-3.66-0.08-6.93,1.48-10.38,2.23c-1.31,0.29-2.8,1.24-3.87,0.88
		c-2.59-0.89-4.58,0.62-6.71,1.2c-5.82,1.6-11.54,3.55-17.27,5.44c-2.49,0.83-4.91,1.87-7.36,2.81c3.08,0.9,5.59-0.53,8.24-1.18
		c2.79-0.68,5.49-1.74,8.25-2.54c2.77-0.8,5.57-1.55,8.38-2.22c2.79-0.66,5.73-0.88,8.38-1.88c2.37-0.89,4.89-0.92,7.31-1.73
		c4.81-1.6,9.83-2.52,14.25-5.22C486.01,187.33,483.71,187.39,482.21,188.7z"/>
	<path class="st1" d="M488.11,187.53c0.02,0,0.04,0,0.06,0l-0.02-0.03C488.13,187.51,488.12,187.52,488.11,187.53z"/>
	<path class="st1" d="M773.76,174.54c-76.61-115.12-390.05-7.66-495.7,30.76c-2.07-2.9,1.23-5.13,2.26-15.91
		c3.69,0.43,1.65,3.08,1.99,5.01c1.05-5.78,4.02-10.45,3.96-15.66c-3.13,10.48-0.71-3.73-1.02-7.8
		c-4.21-5.39-4.09-14.16-10.49-16.23c-5.25-9.33-11.24-2.84-18.66-11.78c-1.07-5.38-5.72-0.53-7.72-3.71
		c-10.4-7.6-41.64,54.17-35.9,30.91c9.04-49.46,33.53-70.14-28.19-91.97c-26.95,8-113.58,164.53-96.76,110.44
		c2.6-4.63,18.23-38.34,20.2-28.88c3.77-5.84,7.1-15.89,6.87-19.7c1.79-4.07,1.21,3.37,3.63,0.85c-0.55-2.2,3.17-5.14,1.19-6.49
		c-3.65-2.81,5.54-7.13,4.4-7.81c11.19-5.24,13.5-31.47,22.07-38.4c1.61,1.73,5.88-7.75,5.8-9.03c-2.33-2.27,1.15-1.36,1.89-1.42
		c1.03-1.28,5.44-7.4,2.13-5.87c-2.83,1.86-0.32-6.38,2.75-5.88c2.91-0.72,7.93-14.44,9.85-11.68c5.59,3.9,2.6-5.11,6.53-4.07
		c2.59,5.49-0.76,18.29,3.78,22.75c4.44-3.13-2.85-8.77-1.14-13.58c3.15,4.85,4.49-2.01,3.75-5.52c4.98,22.47,8.34-24.01,4.58-28.33
		C130.55-93.41,15.85,238.58,6.95,291.63c-4.19,21.69-17.91,49.36,10.86,48.12c1.13,4.13,3.77,6.78,3.66,11.66
		c-0.76-8.55,13.39,4.1,16.27-2.91c6.56,33.92,14.18-3.82,16.04,5.24c11.9-14.88,50.25-63.59,44.34-71.06
		c-3.43,4.01-8.56,16.21-6.41,4.69c-13.9,9.95,14.59-25.13,17.31-32.19c4.19-4.61,16.12-25.32,7.21-12.89
		c-1.91-4.07-2.49,6.58-6.09,7.05c-1.67-6.26,4.39-10.32,2.79-15.31c4.08-3.52,7.03,0.6,8.14-5.25c-3.83-1.03,2.73-3.99,1.67-5.87
		c-1.38-3.77,3.19-3.18,4.26-6.03c4.38-5.11-0.34,2.59,0.74,3.91c0.83,0.81,0.9,0.99-0.19,1.42c-1.14,5.15-3.78,1.54-3.85,4.43
		c2.59,13.96,16.78-28.59,20.37-18.17c-1.44,8.94-9.1,12.85-12.37,19.41c-0.37,3.97-3.65,9.05-6.52,12.43
		c38-60.2-36.44,141.34,2,100.21c6.59,3.66,13.53,16.91,19.79,15.44c11.06-4.96,10.03,10.62,11.7,1.31
		c2.98-5.25,0.81,3.13,1.59,5.08c1.88-11.34,20.03-25.63,23.77-41.81c4.15-1.66,0.16-3.75-0.02-0.02c-1.01,0.58-2.46-0.9-3.31,0.72
		c-0.09,0.17-0.54-1.66-1.32-0.18c0.55,2.66,2.89,6.9-2.32,7.03c-15.89,22.1,5.17-17.58,9.68-23.92
		c7.49-10.81,29.5-56.11,26.69-37.63c1.23-2.51,5.26-8.84,3.86-2.75c5.07-3.08,1.5-12.45,7.12-14.79c1.88,4.91,3.7-4.58,7.23-2.65
		c1.44,1.89,6.23-1.91,5.81-2.65c5.33,4.16,5.53,7,7.98,12.19c2.86-4.09,9.1,0.05,10.96,3.87c4.52,2.52,8.27,3.06,9.67,6.93
		c1.62-0.56,1.74-7.55,3.57-2.17c-0.19,2.72,2.33-0.97,2.88,1.57c-2.04,7.45,15.28-10.09,21.73-9.74c7.45-3.37-0.39-1.89-4.18-0.23
		c17.4-14.71,41.73-14.17,58.93-30.94c-3.11-3.21-8.68,2.27-13.27,0.72c4.8-2.63,18.37-10.11,18.63-2.56
		c1.36,1.54,6.83-3.86,7.94-1.21c2.33,2.6,6.69-4.6,11.5-4.25c-27.46,5.74-2.28-2.52,8.87-6.89c1.65,4.39-13.24,5.45-5.17,6.31
		c75.75-35.84,168.96-54.16,253.46-61.69c-17.84,5.78-23.75,0.92-35.35,7.1c4.28,1.36,45.8,0.19,53.91-4.43
		c-3.84-0.19-15.98-0.01-5.65-1.86c10.33,1.83,26.33-1.08,36.26,1.7c-15.46-0.07-13.45-1.54-24.76,2.12
		c6.07-1.06,44.34,7.78,45.99,2.41c0.21-4.91,9.83-0.44,4.64,0.7c4.53,2.2,9.79-0.17,13.73,1.8c9.85-0.13,7.99,5.44,17.73,3.62
		c8.13,2.34,4.19,7.36,19.41,5.12C748.28,194.3,781.46,176.61,773.76,174.54z M222.18,124.22c0-0.16,0.01-0.32,0.02-0.48
		C222.29,124.49,221.08,125.07,222.18,124.22z M150.9,62.84c0,0-0.02-0.02-0.04-0.05C150.88,62.82,150.89,62.84,150.9,62.84z
		 M133.55,56.31c0.11,0.05,0.24,0.15,0.35,0.17C133.79,56.46,133.66,56.36,133.55,56.31z M125.72,124.79
		c0.14-0.16,0.28-0.31,0.41-0.48C126,124.48,125.87,124.64,125.72,124.79z M112.53,141.66c0,0,0.04,0.04,0.08,0.07L112.53,141.66z
		 M113.69,111.03c-0.26,0.07-0.48,0.1-0.69,0.12C113.2,111.13,113.43,111.09,113.69,111.03z M112.21,106.84
		c-0.62,3.11-0.66,4.39,0.76,4.3C110.53,111.04,111.05,107.82,112.21,106.84z M110.54,145.09c3.49-3.3-0.32,0.45-1.16,2.68
		C110.17,147.05,110.46,146.12,110.54,145.09z M106.39,124.84c-0.03,0.1-0.12,0.24-0.17,0.35
		C106.27,125.07,106.36,124.94,106.39,124.84z M35.15,210.54c-0.79-0.03-1.85,0.23-2.58,0.32C37.48,211.02,32,201.45,35.15,210.54z
		 M45.34,355.84c0.13-1.42,0.25-2.84,0.38-4.25C45.59,353.01,45.47,354.42,45.34,355.84z M56.69,212.74c0.15,0.07,0.3,0.13,0.45,0.2
		C56.99,212.88,56.84,212.81,56.69,212.74z M60.44,218.94c0.05-0.11,0.14-0.25,0.17-0.35C60.58,218.69,60.48,218.82,60.44,218.94z
		 M62.33,194.84C62.2,195.14,62.26,194.99,62.33,194.84C62.26,194.99,62.2,195.14,62.33,194.84z M62.14,221.47
		c0.11,0.05,0.25,0.15,0.35,0.17C62.39,221.61,62.26,221.51,62.14,221.47z M82.64,292.48c0.48,0.07,0.49,0.44,0.49,0.79
		C83.14,292.92,83.12,292.55,82.64,292.48z M84.16,297.51C84.41,297.4,84.29,297.46,84.16,297.51
		C83.86,297.19,84.24,297.65,84.16,297.51z M102.47,220.36C102.6,220.06,102.53,220.21,102.47,220.36
		C102.53,220.21,102.6,220.06,102.47,220.36z M103.03,220.36c0.01-0.08,0.1-0.22,0.07-0.26
		C103.13,220.14,103.04,220.28,103.03,220.36z M109.02,210.02c0.11,0.05,0.25,0.15,0.35,0.17
		C109.26,210.17,109.13,210.07,109.02,210.02z M112,206.45c-0.04-0.36-0.08-0.77-0.58-0.72C111.92,205.68,111.96,206.09,112,206.45z
		 M125.5,316.55c-0.11-0.05-0.25-0.15-0.35-0.17C125.25,316.41,125.39,316.5,125.5,316.55z M138.45,256.89
		c0.11,0.04,0.23,0.13,0.33,0.16C138.68,257.02,138.56,256.94,138.45,256.89z M139.5,253.27c0.2-0.11,0.35-0.27,0.45-0.47
		C139.84,252.99,139.7,253.16,139.5,253.27z M144.03,264.77c-0.11-0.05-0.25-0.15-0.35-0.17
		C143.78,264.63,143.92,264.72,144.03,264.77z M144.14,226.73c-1.92,2.19-0.66-2.91,0.88-3.14
		C143.89,224.34,143.41,225.39,144.14,226.73z M158.18,223.89C158.18,223.89,158.18,223.89,158.18,223.89
		C157.76,223.71,157.76,223.71,158.18,223.89z M158.61,220.91C158.74,220.61,158.67,220.76,158.61,220.91
		C158.67,220.76,158.74,220.61,158.61,220.91z M168.67,342.77c0.12-0.07,0.24-0.13,0.35-0.2
		C168.9,342.63,168.79,342.7,168.67,342.77z M183.01,191.14c0.53-0.04,0.78-0.41,0.91-0.86
		C184.01,191.1,182.39,191.12,183.01,191.14z M184.99,217.52c0.08-0.72,0.12-1.46,0.12-2.22
		C185.1,216.05,185.07,216.79,184.99,217.52z M185.63,214.24c-0.16-0.01-0.31-0.01-0.47-0.02
		C185.31,214.23,185.47,214.24,185.63,214.24z M183.92,211.51c0.2,0.86-1.08,0.92-1.41,1.6
		C183.92,211.71,187.14,208.32,183.92,211.51z M191.13,196.77c0.47-0.08,0.67-0.31,0.75-0.6
		C191.8,196.46,191.6,196.68,191.13,196.77z M191.09,196.84c-0.08,0.59,0.05,1.26,0.1,1.91C191.14,198.1,191,197.43,191.09,196.84z
		 M188.31,240.89c0.16-0.36,0.38-0.8,0.66-1.34C188.69,240.08,188.47,240.52,188.31,240.89z M189.83,245.74
		c0.25-2.21,2.37-0.85,4.41-3.16C192.63,243.45,191.64,245.23,189.83,245.74z M196.7,238.24c-0.04-0.14-0.07-0.27-0.12-0.4
		C196.63,237.97,196.66,238.11,196.7,238.24z M202.05,111.26C201.04,111.47,201.04,111.47,202.05,111.26
		C203,111.52,203,111.52,202.05,111.26z M205.86,184.67c0,0-0.05-0.14-0.05-0.14C205.82,184.53,205.87,184.67,205.86,184.67z
		 M205.74,183.85c-0.01-0.66,0.19-1.26,0.48-1.84C205.93,182.58,205.73,183.19,205.74,183.85z M206.95,138.44
		c0.22,0.79,0.23-1.85,1.01-2.36C207.51,136.71,207.2,137.53,206.95,138.44z M279.2,251.15c-0.05-0.02-0.11-0.06-0.16-0.09
		C279.09,251.09,279.15,251.12,279.2,251.15z M283.87,253.61l-0.11-0.13C283.8,253.53,283.88,253.61,283.87,253.61z M303.07,231.57
		c0.23-0.35,0.03-0.87-0.36-0.88C303.1,230.69,303.3,231.22,303.07,231.57z M333.37,229.96c0.81,0.31,0.69-1.51-0.1-1.4
		C334.06,228.45,334.18,230.27,333.37,229.96z M356.79,214.21c-0.36,0.34-0.84,0.45-1.31,0.6
		C355.95,214.67,356.43,214.55,356.79,214.21z M356.82,214.21c0.22,0.02,0.42,0.02,0.59-0.01
		C357.24,214.23,357.04,214.24,356.82,214.21z M366.62,211.61c-0.11,0.52-0.22,1.04-0.52,1.24
		C366.59,211.12,369.64,209.32,366.62,211.61z M373.16,205.4c0.18,0.38,0.27,0.7,0.28,0.98
		C373.43,206.11,373.35,205.79,373.16,205.4z M418.44,197.39c-0.06-0.07-0.13-0.14-0.2-0.19
		C418.31,197.26,418.38,197.32,418.44,197.39z M568.39,156.98c1.36,0.1,2.7,0.07,4.04-0.08
		C571.1,157.06,569.75,157.08,568.39,156.98z M653.32,154.75c0.01-0.53-0.02-1.13-0.28-1.52
		C653.4,156.49,660.1,154.07,653.32,154.75z"/>
	<path class="st1" d="M196.77,294.74c-0.44,1.21-1.75,0.34-2.52,1.01c0.82,0.27,2.02,0.18,0.9,1.55c-0.93,1.14,0.74,2.17,0.49,3.37
		c1.46,0.2,1.65-1.07,2.27-1.89c2.09-2.79,3.06-6.34,5.84-8.67c2.35-1.97,0.19-6.9,4.84-7.38c0.15-0.02,0.41-0.5,0.36-0.68
		c-0.42-1.47,0.66-3.03-0.51-4.73c-2.11,3.09-4.15,6.08-6.27,9.18c-0.86-0.75-1.62-1.85-2.89-0.15c-0.53,0.72-1.09,1.36-1.56,2.18
		c-0.75,1.3-1.03,3.07-2.77,3.65C194.56,294.83,194.56,294.83,196.77,294.74z"/>
	<path class="st1" d="M194.93,292.18c0,0,0-0.01,0-0.01c-0.01,0-0.01,0.01-0.02,0.02c0,0,0,0,0,0.01
		C194.92,292.18,194.93,292.18,194.93,292.18z"/>
	<path class="st1" d="M223.83,129.19C223.83,129.19,223.83,129.19,223.83,129.19c-0.01,0.01-0.02,0.02-0.03,0.03L223.83,129.19z"/>
	<path class="st1" d="M414.93,207.6c-4.99,2.67-10.44,4.23-15.7,6.26c-2.94,1.13-6.21,1.78-8.57,4.18c1.84,0.24,3.45-0.8,5.21-0.99
		c4.41-0.48,8.11-2.64,11.96-4.64c3.07-1.59,6.08-3.6,9.7-4.2C416.67,207.97,416.19,206.92,414.93,207.6z"/>
	<path class="st1" d="M715.63,174.02c0.32-0.09,0.63-0.2,0.96-0.38C716.26,173.76,715.94,173.89,715.63,174.02z"/>
	<path class="st1" d="M731.16,176.55c-5.15-0.79-10.16-2.62-15.49-2.14c-0.27,0.02-0.35-0.1-0.21-0.33
		c0.06-0.02,0.12-0.05,0.17-0.07c-3.15,0.86-5.88-2.48-9.09-1.23c2.95,0.15,5.43,2.03,8.33,2.16c5.52,0.25,10.76,1.84,16.07,3.14
		c0.34,0.08,0.85,0.53,1.01-0.25C731.19,177.75,732.4,176.75,731.16,176.55z"/>
	<path class="st1" d="M504.01,183.51c-0.18,0-0.37-0.07-0.52-0.02c-1.85,0.68-3.97,0.39-6.31,1.59c1.84,0.59,3.41,1.69,4.37,1.3
		c3.14-1.29,6.45-0.41,9.23-1.09C509.61,180.73,506.49,183.54,504.01,183.51z"/>
	<path class="st1" d="M532.81,178.58c-0.02,0.45,1.12,0.06,0.95,0.87c-0.88,0.45-1.78-0.8-2.91,0.12c0.65,0.21,1.15,0.38,1.61,0.53
		c-0.24,0.65-1.1,0.01-1.23,0.81c1.43,0.21,2.72-0.14,3.77-1.06c0.56-0.49,1.38-0.79,1.69-0.39c2.11,2.75,3.86-2.17,5.86-0.21
		c0.41-2.86,2.69-1.58,3.89-1.36c1.78,0.33,3.36,0.39,5.65-0.61C545.19,176.37,539.06,178.38,532.81,178.58z"/>
	<path class="st1" d="M169.94,348.76c-0.75,1.45-1.34,3.2-2.86,3.84c-1.79,0.75-1.89,0.52-2.07,2.71c-0.01,0.09,0.22,0.19,0.3,0.26
		c0.89-0.03,0.85-1.33,1.76-1.31c0.38,0.76-0.31,1.61,0.4,2.36c2.89-4.36,4.11-9.42,6.48-13.95c-0.18-0.12-0.37-0.24-0.55-0.36
		C172.24,344.47,171.06,346.6,169.94,348.76z"/>
	<path class="st1" d="M374.89,224.54c0.62,1.16,1.49,0.39,2.07,0.06c3.05-1.7,6.25-3.07,9.43-4.49c1.4-0.62,3.28-0.37,4.17-2.04
		c-5.26,0.45-9.63,3.46-14.47,5.13C375.79,223.31,374.14,223.15,374.89,224.54z"/>
	<path class="st1" d="M390.56,218.07c0.02,0,0.04,0,0.06-0.01c0.01-0.01,0.02-0.02,0.03-0.03c-0.02,0-0.04,0-0.06,0
		C390.58,218.05,390.57,218.06,390.56,218.07z"/>
	<path class="st1" d="M754.65,181c-3.96-0.63-7.89-1.54-11.92-1.64c0.04,0.45,0.11,0.91,0.65,1c3.76,0.64,7.52,1.26,11.28,1.91
		c0.58,0.1,0.92-0.14,0.95-0.63C755.66,181.02,755.08,181.07,754.65,181z"/>
	<path class="st1" d="M446.6,196.39c2.62-0.69,4.52-2.95,7.36-3.1c-2.85-0.48-5.45,0.31-8.03,1.22c-0.61,0.22-1.74,0.04-1.48,1.08
		C444.69,196.57,445.49,196.68,446.6,196.39z"/>
	<path class="st1" d="M111.44,258.63c-0.05,2.36-1.01,4.46-1.08,6.74l0.11,0.13c0.77-1.89,3.41-3.19,1.76-5.85
		c-0.25-0.4,0.27-1.09,0.63-0.95c2.14,0.83,2.15-1.03,3.08-2.08C113.79,256.41,111.48,256.93,111.44,258.63z"/>
	<path class="st1" d="M376.6,219.72c4.06,0.51,6.8-2.68,10.24-3.93C383.2,216.45,379.76,217.72,376.6,219.72z"/>
	<path class="st1" d="M746.6,176.6c-3.59-1.09-7.18-1.96-11.75-1.41c1.32,0.28,1.92,0.4,2.59,0.54c-0.55,0.67-1.42-0.01-1.79,0.74
		c1.25,0.15,2.63,1.11,3.53-0.64c1.69,0.87,4.42-0.58,5.23,2.34c0.03,0.11,0.67,0.06,1.03,0.09
		C745.62,177.6,746.64,177.53,746.6,176.6z"/>
	<polygon class="st1" points="745.43,178.25 745.43,178.25 745.43,178.26 	"/>
	<path class="st1" d="M288.66,263.27C288.66,263.27,288.65,263.27,288.66,263.27c0.01,0.02,0.02,0.02,0.04,0.03
		c0-0.02,0-0.03,0-0.05C288.68,263.26,288.67,263.26,288.66,263.27L288.66,263.27z"/>
	<path class="st1" d="M281.93,264.77c3.39,2.96,3.88,2.86,5.82-0.57c0.2-0.36,0.6-0.62,0.91-0.92
		C285.73,261.14,284.85,265.73,281.93,264.77z"/>
	<path class="st1" d="M162.27,364.87c-1.22,0.31-0.71,1.96-1.91,2.39c-0.5-1.24-0.31-2.57-1.25-3.9c-0.09,0.78-0.01,1.47-0.27,2
		c-0.74,1.49-0.17,3.59,0.59,3.82c1.75,0.52,2.36-1.39,3-2.76C162.69,365.87,163.03,365.29,162.27,364.87z"/>
	<path class="st1" d="M46.67,365.31c5.12-2.91,5.31-3.17,4.33-7.1C50.13,361.28,47.34,362.21,46.67,365.31z"/>
	<path class="st1" d="M766.76,185.99c-3.91,0.63-7.05,2.7-9.89,5.32C760.61,190.36,763.2,187.27,766.76,185.99z"/>
	<path class="st1" d="M104.02,273.96c-1.14,1.14-0.91,3.05-2.3,4.04c-0.25,0.24-0.49,0.48-0.74,0.71c0.12,0.07,0.28,0.22,0.36,0.18
		c0.39-0.16,0.46-0.5,0.39-0.89c0.82-0.88,2.34,1.92,2.4-0.13c0.04-1.36,0.8-2.03,1.11-3.05c0.14-0.45,0.91-0.78,0.27-1.34
		C104.8,272.86,104.46,273.52,104.02,273.96z"/>
	<path class="st1" d="M742.66,179.34c0.01,0.01,0.03,0.01,0.04,0.02v0c0.01,0,0.02,0,0.03,0c0-0.01,0-0.02,0-0.03
		C742.7,179.33,742.68,179.34,742.66,179.34z"/>
	<path class="st1" d="M733.34,178.45c3.09,0.5,6.11,1.87,9.32,0.89C739.64,178.1,736.49,178.21,733.34,178.45z"/>
	<path class="st1" d="M212.35,268.17c0,0.03,0,0.05,0,0.08c0.02-0.01,0.03-0.03,0.04-0.04c0-0.01-0.01-0.02-0.01-0.02
		C212.37,268.18,212.36,268.17,212.35,268.17L212.35,268.17z"/>
	<path class="st1" d="M208.1,273.78c-1.06,0.92,0.5,1.08,0.98,1.52l0,0c0.11,0.48-0.23,1.19,0.43,1.38c0.6,0.17,0.66-0.39,0.67-0.85
		c-0.35-0.19-0.7-0.38-1.06-0.57c0.66-2.52,3.28-4.16,3.22-7C210.52,269.76,209.92,272.19,208.1,273.78z"/>
	<path class="st1" d="M217.29,263.84c0,0-0.03-0.03-0.03-0.03c0,0.02-0.01,0.04-0.01,0.06
		C217.26,263.86,217.28,263.85,217.29,263.84z"/>
	<path class="st1" d="M216.08,264.84c-0.96,1.5-1.46,3.7-4.04,2.28c0.12,0.35,0.23,0.71,0.35,1.06c0.98,0.43,2.19,1.66,2.86-0.05
		c0.59-1.47,1.92-2.59,2-4.27C216.84,264.19,216.34,264.44,216.08,264.84z"/>
	<path class="st1" d="M199.46,83.81c0.18-2.49-0.65-3.98-2.21-3.92c-1.83,0.07-1.34,1.33-1.22,2.39
		C197.13,80.91,197.15,80.93,199.46,83.81z"/>
	<path class="st1" d="M196,82.32c0,0,0.03,0.03,0.03,0.03c0-0.02-0.01-0.04-0.01-0.06C196.02,82.3,196.01,82.3,196,82.32z"/>
	<path class="st1" d="M429.74,200.2c2.03,0.36,3.91-0.33,6.17-1.44C433.28,197.96,431.64,199.49,429.74,200.2z"/>
	<path class="st1" d="M424.92,205.3c2.18,0.14,3.94-1.06,6.13-1.85C428.35,202.54,426.91,204.76,424.92,205.3z"/>
	<path class="st1" d="M262.64,265.13c-0.21,2.23-0.28,4.05,1.07,5.6C263.11,269.02,264.26,267.05,262.64,265.13z"/>
	<path class="st1" d="M107.34,268.99c0.38,0.11,0.62,0.06,0.86,0.04c2.25-0.21,1.2-2.56,2.28-3.53c0,0-0.11-0.13-0.11-0.13
		C107.58,265.18,109.53,268.68,107.34,268.99z"/>
	<path class="st1" d="M514.18,182.21c1.97,1.32,3.92,0.59,5.87-0.16C518.11,182.34,516.18,181.98,514.18,182.21z"/>
	<path class="st1" d="M288.69,263.25c1.19-0.64,2.38-1.28,3.57-1.92C290.38,260.87,288.53,260.45,288.69,263.25z"/>
	<path class="st1" d="M219.35,141.69c2.51-0.96,2.51-0.96,0.73-3.29C219.95,139.55,219.1,140.48,219.35,141.69z"/>
	<path class="st1" d="M576.68,164.49c-0.81-0.51-1.38-0.91-1.98-1.25c-1.52-0.88-2.6-0.58-1.93,0.37
		C573.66,164.85,575.08,164.72,576.68,164.49z"/>
	<path class="st1" d="M723.06,169.65c2.16,0.8,3.61,0.98,5.38,0.4C725.63,169.09,725.63,169.09,723.06,169.65z"/>
	<path class="st1" d="M586.44,163.47c1.11-0.24,2.23-0.48,3.94-0.86C587.16,161.52,587.06,161.56,586.44,163.47z"/>
	<path class="st1" d="M168.26,62.49c0.13,0,0.26,0,0.39-0.01c0-2.06,0-4.13,0-6.2c-0.13,0-0.26,0-0.39,0
		C168.26,58.36,168.26,60.42,168.26,62.49z"/>
	<path class="st1" d="M192.05,299.08c-1.27,0.19-0.88,1.76-1.83,2.33c-0.26,0.16,0.19,0.82,0.47,0.76c1.22-0.24,1.18-1.62,1.93-2.15
		C192.63,299.45,192.38,299.03,192.05,299.08z"/>
	<path class="st1" d="M223.83,129.19c0,0-0.03,0.03-0.03,0.03c0.01,0.01,0.02,0.02,0.03,0.03
		C223.83,129.22,223.83,129.2,223.83,129.19z"/>
	<path class="st1" d="M223.53,132.99c0.43-1.22,2.39-2.3,0.3-3.75C224.09,130.52,223.46,131.72,223.53,132.99z"/>
	<path class="st1" d="M144.43,92.99c0.02-0.04-0.43-0.44-0.6-0.4c-1.18,0.28-0.63,1.88-1.69,2.31c-0.08,0.03-0.06,0.3-0.07,0.48
		C143.28,95,143.93,94.07,144.43,92.99z"/>
	<path class="st1" d="M491.37,186.9C491.37,186.9,491.37,186.9,491.37,186.9c-1.04,0.26-2.25-0.34-3.16,0.6
		c1.09-0.16,2.29,0.49,3.25-0.49c0.88-0.32,2.23,0.6,2.8-1.37C493.1,186.1,491.76,185.1,491.37,186.9z"/>
	<path class="st1" d="M305.03,199.51c0.71-0.04,1.31-0.32,1.88-0.85C305.74,197.89,305.1,198.07,305.03,199.51z"/>
	<polygon class="st1" points="305.03,199.51 305.03,199.51 305.02,199.52 305.03,199.52 	"/>
	<path class="st1" d="M182.97,315.44c0.47-0.64,1.25-1.18,0.93-2.26C183.16,313.8,182.83,314.51,182.97,315.44z"/>
	<path class="st1" d="M488.17,187.53c0.01-0.01,0.02-0.02,0.04-0.03c-0.02,0-0.04,0-0.06,0
		C488.15,187.51,488.17,187.53,488.17,187.53z"/>
	<path class="st1" d="M206.62,275.07c0.29-0.82,0.73-1.39,0.55-2.21C206.19,273.37,206.33,274.1,206.62,275.07z"/>
	<polygon class="st1" points="210.19,275.82 210.19,275.82 210.19,275.83 	"/>
	<path class="st1" d="M105.93,270.99c-0.21,0.36,0.14,0.44,0.37,0.45c0.37,0.01,0.67-0.13,0.72-0.68c-0.15-0.08-0.37-0.29-0.52-0.24
		C106.28,270.57,106.05,270.78,105.93,270.99z"/>
	<path class="st1" d="M92.13,187.12c0.01,0.08,0.39,0.21,0.41,0.19c0.18-0.28,0.32-0.57,0.48-0.87c0.48,0.06,1.03,0.77,1.4,0.18
		c0.61-0.96-0.42-1.61-0.55-2.63c-0.73,0.86-1.01,1.57-0.89,2.41l0,0C92.5,186.42,92.08,186.51,92.13,187.12z"/>
	<path class="st1" d="M180.39,66.07c-0.24,0.09-0.23,0.73,0.13,1.08c0.06-0.17,0.18-0.34,0.16-0.49
		C180.64,66.43,180.87,65.88,180.39,66.07z"/>
	<path class="st1" d="M104.75,161c0.04,0,0.12-0.15,0.1-0.21c-0.12-0.51-0.5-0.57-0.93-0.51C104.07,160.66,104.27,161,104.75,161z"
		/>
	<path class="st1" d="M361.15,224.04c0,0.01,0.01,0.01,0.01,0.01c0.01,0.01,0.02,0.02,0.03,0.02c-0.01-0.01-0.01-0.02-0.02-0.04v0
		C361.17,224.04,361.16,224.04,361.15,224.04z"/>
	<path class="st1" d="M359.72,223.93c0.58,0.04,1.01,0.07,1.43,0.1C360.82,223.46,360.4,223.37,359.72,223.93z"/>
	<path class="st1" d="M746.52,178.67c0.07-0.02,0.1-0.14,0.15-0.21c-0.41-0.06-0.82-0.13-1.23-0.19
		C745.67,178.73,746.06,178.82,746.52,178.67z"/>
	<path class="st1" d="M745.44,178.26c0,0,0-0.01-0.01-0.01c0,0-0.01,0.01-0.01,0.01C745.43,178.26,745.44,178.26,745.44,178.26z"/>
	<path class="st1" d="M39.59,353.77c0,0-0.02-0.02-0.02-0.02c-0.01,0.03-0.01,0.05-0.02,0.08
		C39.57,353.81,39.58,353.79,39.59,353.77z"/>
	<path class="st1" d="M39.42,354.5c0.05-0.23,0.09-0.45,0.14-0.68c-0.12,0.18-0.25,0.37-0.37,0.55
		C39.26,354.42,39.34,354.46,39.42,354.5z"/>
	<path class="st1" d="M270.49,268.89c0.07,0.09,0.2,0.28,0.21,0.27c0.19-0.11,0.37-0.25,0.55-0.39c0,0-0.12-0.15-0.12-0.14
		C270.93,268.72,270.71,268.8,270.49,268.89z"/>
	<path class="st1" d="M145.02,91.86c0.06-0.13,0.12-0.27,0.18-0.4c-0.06-0.05-0.12-0.1-0.18-0.15c-0.06,0.14-0.14,0.27-0.18,0.41
		C144.84,91.75,144.96,91.82,145.02,91.86z"/>
	<path class="st1" d="M210.19,275.82C210.19,275.82,210.19,275.83,210.19,275.82C210.19,275.82,210.19,275.82,210.19,275.82
		C210.19,275.81,210.19,275.82,210.19,275.82z"/>
	<path class="st1" d="M210.35,275.14c-0.05,0.22-0.11,0.45-0.16,0.67c0.14-0.16,0.28-0.31,0.42-0.47
		C210.52,275.28,210.44,275.21,210.35,275.14z"/>
	<path class="st1" d="M131.59,228.06c0.04-0.04,0.06-0.11,0.09-0.17c-0.08,0.06-0.16,0.13-0.25,0.19
		C131.49,228.07,131.56,228.09,131.59,228.06z"/>
	<path class="st1" d="M131.68,227.89c0.01-0.01,0.02-0.02,0.03-0.02c0,0,0,0,0,0c0,0-0.01-0.01-0.01-0.01
		C131.69,227.86,131.68,227.88,131.68,227.89z"/>
	<path class="st1" d="M361.44,224.26c-0.08-0.06-0.17-0.12-0.25-0.19c0.03,0.06,0.05,0.13,0.09,0.17
		C361.31,224.27,361.39,224.26,361.44,224.26z"/>
	<path class="st1" d="M189.47,304.15c-1.47,1.38-2.2,3.26-3.29,4.89l0,0c-0.48,0.64-1.04,1.24-1.43,1.94
		c-0.21,0.38-0.78,0.89-0.12,1.4c0.27,0.21,0.56,0.41,0.85,0.61c0.24-0.47,0.59-0.91,0.68-1.41c0.14-0.79,0.11-1.62,0.16-2.43
		c3.02-0.4,2.98-2.77,3.19-4.97l0,0c0.09-0.09,0.18-0.18,0.26-0.26C189.66,304,189.57,304.08,189.47,304.15z"/>
	<polygon class="st1" points="107.97,270.72 108.06,270.58 107.93,270.56 	"/>
	<path class="st1" d="M213.18,261.86c-0.02-0.06-0.03-0.11-0.05-0.17c-0.07-0.01-0.14-0.03-0.21-0.04c0.03,0.07,0.06,0.14,0.11,0.19
		C213.05,261.87,213.12,261.86,213.18,261.86z"/>
	<path class="st1" d="M571.64,163.45L571.64,163.45c-0.12-0.07-0.23-0.14-0.34-0.22c0.08,0.11,0.15,0.22,0.23,0.33
		c0.12,0.08,0.23,0.15,0.35,0.23C571.8,163.68,571.72,163.57,571.64,163.45z"/>
	<path class="st1" d="M225.19,159.51c0.08,0.06,0.16,0.12,0.24,0.18c-0.02-0.06-0.04-0.12-0.08-0.16
		C225.31,159.5,225.24,159.52,225.19,159.51z"/>
</g>
</svg>
